<svg xmlns="http://www.w3.org/2000/svg" width="320" height="120" viewBox="0 0 320 120"><defs><style>.a{fill:#eff3f4;}.b,.y{fill:none;}.b{stroke:#7886c3;}.c,.h,.l{fill:#7886c3;}.c{font-size:11px;letter-spacing:-0.04em;}.c,.d,.f{font-family:NotoSansCJKkr-Medium, Noto Sans CJK KR;font-weight:500;}.d{fill:#7a7a7a;font-size:12px;letter-spacing:-0.03em;}.e,.s{fill:#f3b749;}.e{opacity:0.6;}.f{font-size:16px;}.g{font-family:NotoSansCJKkr-Bold, Noto Sans CJK KR;font-weight:700;}.i,.n{opacity:0.2;}.j,.n,.o,.u{fill:#fff;}.j{opacity:0.9;}.k,.l,.u{opacity:0.4;}.m,.q{fill:#263238;}.m{opacity:0.1;}.p{fill:#ff8b7b;}.r{fill:#ff5652;}.t{fill:#407bff;}.v{fill:#0c94c6;}.w{opacity:0.3;}.x{stroke:none;}</style></defs><g transform="translate(-20 -524)"><rect class="a" width="320" height="110" rx="6" transform="translate(20 534)"/><g class="b" transform="translate(36 609)"><rect class="x" width="110" height="24" rx="12"/><rect class="y" x="0.5" y="0.5" width="109" height="23" rx="11.5"/></g><text class="c" transform="translate(91 625)"><tspan x="-44.798" y="0">제품계산기 바로가기</tspan></text><text class="d" transform="translate(36 556)"><tspan x="0" y="0">중량 얼마? 공임 얼마?</tspan></text><rect class="e" width="80" height="9" transform="translate(134 591)"/><text class="f" transform="translate(36 577)"><tspan x="0" y="0">계산기 두드리고 하는 실수,</tspan><tspan x="0" y="19">제품 소싱할 때</tspan><tspan class="g" y="19" xml:space="preserve"> 간단 계산법</tspan></text><g transform="translate(-526.048 299.517)"><g transform="translate(788.041 224.483)"><g transform="translate(1.772)"><path class="h" d="M848.842,227.724a3,3,0,0,0-3.027-3.241H796.038a3.516,3.516,0,0,0-3.457,3.241l-1.141,17.228-7.167,53.019a2.767,2.767,0,0,0,2.8,3.241h49.778a3.828,3.828,0,0,0,3.679-3.241l7.168-53.019Z" transform="translate(-784.243 -224.483)"/><path class="i" d="M848.842,227.724a3,3,0,0,0-3.027-3.241H796.038a3.516,3.516,0,0,0-3.457,3.241l-1.141,17.228-7.167,53.019a2.767,2.767,0,0,0,2.8,3.241h49.778a3.828,3.828,0,0,0,3.679-3.241l7.168-53.019Z" transform="translate(-784.243 -224.483)"/></g><path class="h" d="M835.386,297.7H785.609a2.768,2.768,0,0,1-2.8-3.241l7.167-53.019h56.26l-7.167,53.019A3.831,3.831,0,0,1,835.386,297.7Z" transform="translate(-782.775 -220.967)"/><path class="h" d="M843.112,224.483H793.334a3.514,3.514,0,0,0-3.456,3.241l-1.142,17.228H845l1.142-17.228A3,3,0,0,0,843.112,224.483Z" transform="translate(-781.539 -224.483)"/><path class="j" d="M791.039,240.317l.8-12.057a1.85,1.85,0,0,1,1.821-1.706H841.5a1.576,1.576,0,0,1,1.594,1.706l-.8,12.057a1.851,1.851,0,0,1-1.82,1.7H792.632A1.576,1.576,0,0,1,791.039,240.317Z" transform="translate(-781.063 -224.054)"/><g class="k" transform="translate(52.189 4.222)"><path class="h" d="M830.691,228.235l-.542.506a.148.148,0,0,1-.1.04h-2.884a.149.149,0,0,1-.107-.046l-.467-.507a.147.147,0,0,1,.107-.248h3.895A.147.147,0,0,1,830.691,228.235Z" transform="translate(-825.887 -227.98)"/><path class="h" d="M830.043,236.066h-3.9a.147.147,0,0,1-.1-.254l.542-.507a.139.139,0,0,1,.1-.039h2.883a.145.145,0,0,1,.109.046l.47.506A.147.147,0,0,1,830.043,236.066Z" transform="translate(-826.001 -226.469)"/><path class="h" d="M830.333,232.124l-.28.261a.149.149,0,0,1-.1.039h-3.375a.147.147,0,0,1-.147-.158l.037-.5a.147.147,0,0,1,.147-.135H830a.149.149,0,0,1,.107.046l.228.246A.149.149,0,0,1,830.333,232.124Z" transform="translate(-825.911 -227.224)"/><path class="h" d="M830.222,232.294l-.285,3.9a.145.145,0,0,1-.254.088l-.466-.5a.141.141,0,0,1-.039-.109l.211-2.9a.147.147,0,0,1,.045-.1l.541-.5A.147.147,0,0,1,830.222,232.294Z" transform="translate(-825.342 -227.118)"/><path class="h" d="M830.5,228.467l-.284,3.906a.147.147,0,0,1-.255.088l-.467-.507a.136.136,0,0,1-.037-.11l.21-2.894a.148.148,0,0,1,.047-.1l.539-.5A.147.147,0,0,1,830.5,228.467Z" transform="translate(-825.284 -227.912)"/></g><path class="l" d="M824.815,237.351h0a.544.544,0,0,1,.535-.5h6.106a.515.515,0,0,1,.518.553h0a.544.544,0,0,1-.534.5h-6.106A.515.515,0,0,1,824.815,237.351Z" transform="translate(-774.058 -221.918)"/><path class="l" d="M818.484,237.351h0a.542.542,0,0,1,.534-.5h6.106a.515.515,0,0,1,.519.553h0a.545.545,0,0,1-.535.5H819A.515.515,0,0,1,818.484,237.351Z" transform="translate(-775.371 -221.918)"/><path class="l" d="M812.152,237.351h0a.544.544,0,0,1,.535-.5h6.1a.514.514,0,0,1,.519.553h0a.545.545,0,0,1-.534.5h-6.106A.515.515,0,0,1,812.152,237.351Z" transform="translate(-776.684 -221.918)"/><path class="l" d="M805.821,237.351h0a.542.542,0,0,1,.534-.5h6.106a.514.514,0,0,1,.518.553h0a.543.543,0,0,1-.533.5h-6.107A.515.515,0,0,1,805.821,237.351Z" transform="translate(-777.997 -221.918)"/><path class="m" d="M791.843,265.014l2.249-16.644a2.355,2.355,0,0,1,2.264-1.992H813a1.7,1.7,0,0,1,1.725,1.992l-2.249,16.644a2.359,2.359,0,0,1-2.265,1.992H793.568A1.7,1.7,0,0,1,791.843,265.014Z" transform="translate(-780.899 -219.943)"/><path class="m" d="M811.473,265.014l2.249-16.644a2.353,2.353,0,0,1,2.264-1.992h16.639a1.7,1.7,0,0,1,1.725,1.992L832.1,265.014a2.358,2.358,0,0,1-2.264,1.992H813.2A1.7,1.7,0,0,1,811.473,265.014Z" transform="translate(-776.828 -219.943)"/><path class="m" d="M789.19,284.64,791.439,268a2.354,2.354,0,0,1,2.264-1.992h16.639A1.7,1.7,0,0,1,812.067,268l-2.249,16.64a2.357,2.357,0,0,1-2.264,1.995h-16.64A1.7,1.7,0,0,1,789.19,284.64Z" transform="translate(-781.449 -215.872)"/><path class="m" d="M808.818,284.64,811.069,268a2.356,2.356,0,0,1,2.264-1.992h16.64A1.7,1.7,0,0,1,831.7,268l-2.25,16.64a2.354,2.354,0,0,1-2.264,1.995H810.545A1.7,1.7,0,0,1,808.818,284.64Z" transform="translate(-777.379 -215.872)"/><g transform="translate(9.819 26.435)"><path class="h" d="M790.926,265.014l2.249-16.644a2.354,2.354,0,0,1,2.264-1.992h16.639a1.7,1.7,0,0,1,1.727,1.992l-2.251,16.644a2.356,2.356,0,0,1-2.264,1.992H792.652A1.7,1.7,0,0,1,790.926,265.014Z" transform="translate(-790.908 -246.378)"/><path class="n" d="M790.926,265.014l2.249-16.644a2.354,2.354,0,0,1,2.264-1.992h16.639a1.7,1.7,0,0,1,1.727,1.992l-2.251,16.644a2.356,2.356,0,0,1-2.264,1.992H792.652A1.7,1.7,0,0,1,790.926,265.014Z" transform="translate(-790.908 -246.378)"/></g><g transform="translate(33.518 26.435)"><path class="h" d="M810.555,265.014,812.8,248.37a2.356,2.356,0,0,1,2.264-1.992h16.641a1.7,1.7,0,0,1,1.723,1.992l-2.248,16.644a2.358,2.358,0,0,1-2.265,1.992h-16.64A1.7,1.7,0,0,1,810.555,265.014Z" transform="translate(-810.537 -246.378)"/><path class="n" d="M810.555,265.014,812.8,248.37a2.356,2.356,0,0,1,2.264-1.992h16.641a1.7,1.7,0,0,1,1.723,1.992l-2.248,16.644a2.358,2.358,0,0,1-2.265,1.992h-16.64A1.7,1.7,0,0,1,810.555,265.014Z" transform="translate(-810.537 -246.378)"/></g><g transform="translate(6.616 50.136)"><path class="h" d="M788.273,284.64,790.521,268a2.357,2.357,0,0,1,2.264-1.992h16.64A1.7,1.7,0,0,1,811.149,268L808.9,284.64a2.357,2.357,0,0,1-2.265,1.995H790A1.7,1.7,0,0,1,788.273,284.64Z" transform="translate(-788.255 -266.008)"/><path class="n" d="M788.273,284.64,790.521,268a2.357,2.357,0,0,1,2.264-1.992h16.64A1.7,1.7,0,0,1,811.149,268L808.9,284.64a2.357,2.357,0,0,1-2.265,1.995H790A1.7,1.7,0,0,1,788.273,284.64Z" transform="translate(-788.255 -266.008)"/></g><g transform="translate(30.315 50.136)"><path class="h" d="M807.9,284.64,810.15,268a2.358,2.358,0,0,1,2.265-1.992h16.64A1.7,1.7,0,0,1,830.779,268l-2.249,16.64a2.356,2.356,0,0,1-2.264,1.995h-16.64A1.7,1.7,0,0,1,807.9,284.64Z" transform="translate(-807.884 -266.008)"/><path class="n" d="M807.9,284.64,810.15,268a2.358,2.358,0,0,1,2.265-1.992h16.64A1.7,1.7,0,0,1,830.779,268l-2.249,16.64a2.356,2.356,0,0,1-2.264,1.995h-16.64A1.7,1.7,0,0,1,807.9,284.64Z" transform="translate(-807.884 -266.008)"/></g><g transform="translate(12.105 29.824)"><path class="o" d="M799.922,263.032h0a1.711,1.711,0,0,1-1.728-2l1.332-9.852a2.37,2.37,0,0,1,2.267-2h0a1.711,1.711,0,0,1,1.728,2l-1.333,9.852A2.365,2.365,0,0,1,799.922,263.032Z" transform="translate(-791.686 -249.185)"/><path class="o" d="M794.666,255.263h0a2.368,2.368,0,0,1,2.267-2h9.852a1.71,1.71,0,0,1,1.727,2h0a2.368,2.368,0,0,1-2.267,2h-9.852A1.71,1.71,0,0,1,794.666,255.263Z" transform="translate(-792.418 -248.339)"/><path class="o" d="M793.211,280.385h0a2.043,2.043,0,0,1,.382-2.824l7.908-6.967a2,2,0,0,1,2.825,0h0a2.044,2.044,0,0,1-.383,2.824l-7.91,6.967A2,2,0,0,1,793.211,280.385Z" transform="translate(-792.801 -244.866)"/><path class="o" d="M794.372,270.595h0a2,2,0,0,1,2.827,0l6.023,6.967a2.044,2.044,0,0,1-.38,2.824h0a2,2,0,0,1-2.825,0l-6.026-6.967A2.045,2.045,0,0,1,794.372,270.595Z" transform="translate(-792.639 -244.866)"/><path class="o" d="M814.3,255.263h0a2.368,2.368,0,0,1,2.267-2h9.852a1.71,1.71,0,0,1,1.728,2h0a2.368,2.368,0,0,1-2.267,2h-9.852A1.711,1.711,0,0,1,814.3,255.263Z" transform="translate(-788.348 -248.339)"/><path class="o" d="M811.989,272.321h0a2.368,2.368,0,0,1,2.267-2h9.852a1.71,1.71,0,0,1,1.728,2h0a2.369,2.369,0,0,1-2.267,2h-9.852A1.711,1.711,0,0,1,811.989,272.321Z" transform="translate(-788.826 -244.801)"/><path class="o" d="M811.3,277.464h0a2.366,2.366,0,0,1,2.266-2h9.852a1.711,1.711,0,0,1,1.728,2h0a2.37,2.37,0,0,1-2.267,2h-9.853A1.708,1.708,0,0,1,811.3,277.464Z" transform="translate(-788.97 -243.735)"/></g></g><g transform="translate(757.381 228.705)"><path class="p" d="M770.652,244.371c-.646,1.2-1.311,2.492-1.918,3.759s-1.193,2.557-1.7,3.849c-.13.322-.239.646-.361.971a1.714,1.714,0,0,0-.123.523,3.654,3.654,0,0,0,.275,1.491,13.881,13.881,0,0,0,2.032,3.355l-1.226,1.452a10.444,10.444,0,0,1-.985-.711,11.2,11.2,0,0,1-.9-.793,9.951,9.951,0,0,1-1.578-1.95,6.339,6.339,0,0,1-.941-2.7,4.835,4.835,0,0,1,.13-1.652c.1-.372.2-.756.309-1.125a37.667,37.667,0,0,1,1.6-4.305c.309-.694.624-1.384.972-2.057s.686-1.333,1.1-2.024Z" transform="translate(-756.174 -224.979)"/><path class="p" d="M767.68,255.247l1.807.472-1.335,2.6a2.943,2.943,0,0,1-1.671-1.685Z" transform="translate(-755.494 -222.326)"/><path class="p" d="M771.679,256.46l-1.609,2.04-2.2-.262,1.335-2.6Z" transform="translate(-755.208 -222.245)"/><path class="q" d="M776.4,232.754c.041.2.18.339.31.311s.2-.209.163-.409-.179-.34-.309-.313S776.357,232.554,776.4,232.754Z" transform="translate(-753.44 -227.076)"/><path class="r" d="M776.53,232.967a7.339,7.339,0,0,0,1.3,1.516,1.173,1.173,0,0,1-.918.373Z" transform="translate(-753.411 -226.946)"/><path class="q" d="M776.995,234.695c-.584,0-1.168-.639-1.346-1.516a2.308,2.308,0,0,1,.083-1.289.927.927,0,0,1,1.638-.333,2.477,2.477,0,0,1,.5,2.443,1.023,1.023,0,0,1-.716.681A.759.759,0,0,1,776.995,234.695Zm-.388-3.414a.707.707,0,0,0-.142.014.935.935,0,0,0-.65.628,2.222,2.222,0,0,0-.078,1.236c.185.908.808,1.554,1.4,1.432a.931.931,0,0,0,.648-.627,2.377,2.377,0,0,0-.477-2.346A1,1,0,0,0,776.607,231.28Z" transform="translate(-753.605 -227.314)"/><path class="p" d="M792.149,249.93l2.306-.489.3,3.13a2.943,2.943,0,0,1-2.945-1.194Z" transform="translate(-750.242 -223.529)"/><path class="p" d="M796.181,250.143l-.148,2.281-1.734.146-.3-3.129Z" transform="translate(-749.788 -223.529)"/><path class="q" d="M775.624,231.989a.121.121,0,0,1-.082-.031.12.12,0,0,1-.006-.169,1.19,1.19,0,0,1,1.019-.4.12.12,0,1,1-.039.237h0a.946.946,0,0,0-.8.322A.119.119,0,0,1,775.624,231.989Z" transform="translate(-753.624 -227.274)"/><path class="p" d="M771.92,235.7c.363,1.85.582,4.413-.712,5.648,0,0,.506,1.879,3.943,1.879,3.78,0,1.818-1.648,1.818-1.648-1.571-.49-1.558-2.28-1.2-3.716Z" transform="translate(-754.514 -226.38)"/><path class="s" d="M775.014,240.154c.849-.609,2.106-1.328,2.368-.578.156.453.221,2.648-.652,2.484C775.439,241.818,775.014,240.154,775.014,240.154Z" transform="translate(-753.725 -225.642)"/><path class="s" d="M770.664,241.841a2.532,2.532,0,0,1,.035-2.249c.581-.426,3.063-.525,6.406.241a2.362,2.362,0,0,0,.41,2.225Z" transform="translate(-754.678 -225.64)"/><path class="t" d="M761.428,312.194a.821.821,0,0,0,.629-.035.245.245,0,0,0,.058-.279.281.281,0,0,0-.154-.177c-.342-.162-1.125.157-1.159.171a.061.061,0,0,0,0,.11A3.289,3.289,0,0,0,761.428,312.194Zm.412-.4a.239.239,0,0,1,.069.022.163.163,0,0,1,.092.1c.033.109-.008.141-.021.152-.136.117-.641.01-1-.133A1.95,1.95,0,0,1,761.84,311.79Z" transform="translate(-756.68 -210.628)"/><path class="t" d="M760.811,312.106a.043.043,0,0,0,.03,0c.286-.085.9-.519.9-.8a.2.2,0,0,0-.153-.194.326.326,0,0,0-.266.021c-.338.174-.551.873-.559.9a.063.063,0,0,0,.014.06A.051.051,0,0,0,760.811,312.106Zm.716-.895a.168.168,0,0,1,.027.007c.074.028.074.063.072.08,0,.168-.408.511-.7.647a1.445,1.445,0,0,1,.459-.711A.225.225,0,0,1,761.527,311.211Z" transform="translate(-756.68 -210.746)"/><path class="t" d="M776.92,312.557c.325,0,.639-.043.744-.19a.23.23,0,0,0,0-.262.3.3,0,0,0-.191-.14c-.42-.115-1.3.39-1.341.412a.056.056,0,0,0-.029.06.061.061,0,0,0,.047.049A4.408,4.408,0,0,0,776.92,312.557Zm.4-.49a.5.5,0,0,1,.117.013.188.188,0,0,1,.117.084c.042.076.027.111.011.132-.117.164-.757.169-1.227.1A2.744,2.744,0,0,1,777.321,312.066Z" transform="translate(-753.501 -210.567)"/><path class="t" d="M776.156,312.591a.049.049,0,0,0,.025-.006c.3-.136.909-.685.863-.971-.011-.066-.058-.148-.223-.165a.437.437,0,0,0-.331.1,1.7,1.7,0,0,0-.393.974.059.059,0,0,0,.025.053A.058.058,0,0,0,776.156,312.591Zm.617-1.026a.2.2,0,0,1,.037,0c.106.011.114.052.116.066.028.17-.383.6-.694.787a1.407,1.407,0,0,1,.333-.779A.317.317,0,0,1,776.773,311.565Z" transform="translate(-753.5 -210.671)"/><path class="p" d="M773.843,313.351h2.529l.252-5.856h-2.529Z" transform="translate(-753.968 -211.491)"/><path class="p" d="M758.468,312.311l2.472.536,2.483-5.456-2.473-.534Z" transform="translate(-757.156 -211.623)"/><path class="q" d="M761.4,311.716l-2.777-.6a.22.22,0,0,0-.246.123l-.965,2.091a.373.373,0,0,0,.267.519c.973.193,1.456.237,2.678.5.751.163,2.447.576,3.484.8,1.014.221,1.4-.772.991-.956a7,7,0,0,1-3.063-2.24A.628.628,0,0,0,761.4,311.716Z" transform="translate(-757.381 -210.741)"/><path class="q" d="M776.523,312.1H773.76a.221.221,0,0,0-.215.171l-.5,2.248a.367.367,0,0,0,.365.449c1-.016,2.435-.074,3.687-.074,1.465,0,2.73.079,4.447.079,1.038,0,1.326-1.049.891-1.142-1.978-.435-3.593-.479-5.3-1.535A1.163,1.163,0,0,0,776.523,312.1Z" transform="translate(-754.135 -210.535)"/><g transform="translate(7.84 15.468)"><path class="s" d="M768.2,240.859c-2.372.545-4.326,6.6-4.326,6.6l4.76,3.628a10.39,10.39,0,0,0,2.526-4.676C771.974,243.236,770.624,240.3,768.2,240.859Z" transform="translate(-763.875 -240.791)"/><path class="u" d="M768.2,240.859c-2.372.545-4.326,6.6-4.326,6.6l4.76,3.628a10.39,10.39,0,0,0,2.526-4.676C771.974,243.236,770.624,240.3,768.2,240.859Z" transform="translate(-763.875 -240.791)"/></g><path class="p" d="M779.682,243.238l3.994,3.675q1,.92,2,1.813c.663.6,1.34,1.2,1.981,1.714l-.557-.3c.31.111.634.225.974.314s.7.167,1.058.239c.726.13,1.485.227,2.258.289s1.562.109,2.36.132,1.618.039,2.4.045l.378,1.861a19.036,19.036,0,0,1-2.517.734,21.861,21.861,0,0,1-2.593.4,18.189,18.189,0,0,1-2.695.037,12.622,12.622,0,0,1-2.813-.483l-.273-.081-.284-.217c-.789-.609-1.49-1.2-2.2-1.806s-1.388-1.217-2.072-1.83c-1.356-1.238-2.706-2.467-4.027-3.745Z" transform="translate(-753.302 -224.816)"/><path class="i" d="M769.451,244.533c-1.288,1.274-1.707,3.594-1.807,5.612l.21.162a10.407,10.407,0,0,0,2.527-4.676c.047-.19.088-.377.123-.563Z" transform="translate(-755.254 -224.547)"/><g transform="translate(12.166 14.88)"><path class="s" d="M782.435,243.5c.518,2.733.841,8.344-.66,19.456H768.249c-.094-2.077,1.211-12.206-.791-21.991a35.25,35.25,0,0,1,4.528-.571,49.6,49.6,0,0,1,5.749,0c.635.057,1.257.15,1.812.247A3.576,3.576,0,0,1,782.435,243.5Z" transform="translate(-767.458 -240.304)"/><path class="u" d="M782.435,243.5c.518,2.733.841,8.344-.66,19.456H768.249c-.094-2.077,1.211-12.206-.791-21.991a35.25,35.25,0,0,1,4.528-.571,49.6,49.6,0,0,1,5.749,0c.635.057,1.257.15,1.812.247A3.576,3.576,0,0,1,782.435,243.5Z" transform="translate(-767.458 -240.304)"/></g><path class="i" d="M778.151,246.392l2.444-.584c.076,1.48.083,3.315-.028,5.584C779.441,250.111,778.006,248.114,778.151,246.392Z" transform="translate(-753.077 -224.283)"/><g transform="translate(2.511 95.236)"><path class="i" d="M776.6,307.5l-.129,3.02h-2.53l.129-3.02Z" transform="translate(-756.458 -306.726)"/><path class="i" d="M760.743,306.858l2.473.534-1.28,2.812-2.474-.535Z" transform="translate(-759.461 -306.858)"/></g><path class="p" d="M770.824,234.2c.65,2.424.907,3.877,2.4,4.885a3.335,3.335,0,0,0,5.141-2.794c.078-2.312-1-5.89-3.6-6.379A3.423,3.423,0,0,0,770.824,234.2Z" transform="translate(-754.619 -227.592)"/><path class="q" d="M776.941,234.771c1.135-.158.811-1.473.385-2.114,0,0,2.534-3.038-.385-4.267s-2.2.689-2.2.689-2.276-1.708-4.255-.331-.269,1.978-.269,1.978-3.6,1.059-2.161,2.883a3.5,3.5,0,0,0,2.923,1.635s-2.98,1.176-.7,2.5a9.289,9.289,0,0,0,3.113,1.379h0a2.583,2.583,0,0,0,2.79-1.819Z" transform="translate(-755.238 -227.98)"/><path class="p" d="M774.549,233.794a2.826,2.826,0,0,0,.711,1.678c.551.606,1.125.228,1.223-.511.089-.666-.093-1.783-.766-2.121S774.5,233.043,774.549,233.794Z" transform="translate(-753.822 -226.993)"/><path class="q" d="M778.769,259.061s-2.871,19.328-4.446,26.569c-1.727,7.93-10.979,34.164-10.979,34.164l-4.526-.979s6.469-21.38,7.917-32.465c1.113-8.517,3.306-27.289,3.306-27.289Z" transform="translate(-757.084 -221.535)"/><path class="v" d="M764.485,308.282c.019,0-.843,1.637-.843,1.637l-5.1-1.1.43-1.531Z" transform="translate(-757.14 -211.534)"/><path class="w" d="M774.323,264.771c-3.319.65-2.966,13.026-2.568,19.392.958-4.5,2.359-13.159,3.315-19.3A1.118,1.118,0,0,0,774.323,264.771Z" transform="translate(-754.453 -220.356)"/><path class="q" d="M780.843,259.061s.349,18.91.074,26.622c-.285,8.023-3.089,34.289-3.089,34.289h-4.284s-.157-25.8-.348-33.677c-.209-8.588-1.246-27.235-1.246-27.235Z" transform="translate(-754.36 -221.535)"/><path class="v" d="M778.463,308.1c.021,0-.241,1.779-.241,1.779h-5.212l-.14-1.585Z" transform="translate(-754.17 -211.366)"/><g transform="translate(21.704 15.23)"><path class="s" d="M775.5,244.266c-1.213,3.268,5.911,7.117,5.911,7.117l3.085-3.965s-2.059-4.1-4.583-5.941C776.79,239.195,776.419,241.777,775.5,244.266Z" transform="translate(-775.358 -240.594)"/><path class="u" d="M775.5,244.266c-1.213,3.268,5.911,7.117,5.911,7.117l3.085-3.965s-2.059-4.1-4.583-5.941C776.79,239.195,776.419,241.777,775.5,244.266Z" transform="translate(-775.358 -240.594)"/></g><path class="q" d="M793.463,250.228c0,.367-.4.664-.885.664s-.884-.3-.884-.664.4-.663.884-.663S793.463,249.861,793.463,250.228Z" transform="translate(-750.266 -223.504)"/><path class="q" d="M792.173,252.2a.175.175,0,0,1-.139-.065.179.179,0,0,1,.021-.251,1.462,1.462,0,0,0,.286-1.416.18.18,0,1,1,.353-.071,1.791,1.791,0,0,1-.406,1.76A.17.17,0,0,1,792.173,252.2Z" transform="translate(-750.204 -223.362)"/><path class="u" d="M793.269,250.158c0,.273-.322.493-.72.493s-.717-.22-.717-.493.321-.491.717-.491S793.269,249.888,793.269,250.158Z" transform="translate(-750.237 -223.483)"/><path class="s" d="M777.992,240.4c-1.657,1.184-4.523,5.754-5.05,8.453a.091.091,0,0,1-.165.031,18.455,18.455,0,0,1-2.7-8.367.086.086,0,0,0-.1-.082,11.909,11.909,0,0,0-1.2.149.089.089,0,0,0-.066.091,18.251,18.251,0,0,0,3.783,10.2.1.1,0,0,1,.018.06c-.221,4.045.072,11.276.108,12.137a.089.089,0,0,0,.089.085h1.072a.087.087,0,0,0,.089-.093,106.98,106.98,0,0,1,.006-12.262v-.011c.606-3.833,4.241-9.013,5.518-10.04a.087.087,0,0,0-.036-.153c-.54-.12-1.161-.193-1.308-.209A.08.08,0,0,0,777.992,240.4Z" transform="translate(-755.032 -225.408)"/></g></g></g></svg>