<svg xmlns="http://www.w3.org/2000/svg" width="72.5" height="94" viewBox="0 0 72.5 94"><defs><style>.a{fill:none;opacity:0.5;}.b{fill:#ececec;}.c{fill:#fff;}.d{fill:#82d9d0;}</style></defs><g transform="translate(-20 -462)"><rect class="a" width="72.5" height="94" transform="translate(20 462)"/><path class="b" d="M-20.037-1.958h4.565V-.176h-4.565ZM-21.148.726h6.787V-2.86h-6.787Zm6.534-5.709a12.507,12.507,0,0,0,.253-2.849V-8.6H-21.1v.924h5.632a11.3,11.3,0,0,1-.275,2.695h-6.49v.924h9v-.924Zm1.738,6.963H-12L-8.937-8.778h-.88ZM-4-7.865c1.452,0,2.365.407,2.365,1.1S-2.547-5.654-4-5.654s-2.376-.407-2.376-1.111S-5.462-7.865-4-7.865Zm0,3.124c2.145,0,3.542-.759,3.542-2.024S-1.854-8.778-4-8.778s-3.542.759-3.542,2.013S-6.144-4.741-4-4.741ZM-6.221-2.233H-7.365V.66H-.512V-.264H-6.221ZM-8.5-3.938v.924H.49v-.924ZM7.112-8.261H5.979v1.628A5,5,0,0,1,3.361-2.1l.671.946a5.163,5.163,0,0,0,2.53-3.2A4.959,4.959,0,0,0,9.026-1.375l.66-.9A4.812,4.812,0,0,1,7.112-6.633ZM10.478-9.1V.869h1.144V-9.1Zm5.808.924h-1.1V-6.38A4.969,4.969,0,0,1,13.1-2.068l.693.858a4.787,4.787,0,0,0,1.958-2.849A4.531,4.531,0,0,0,17.584-1.43l.638-.88a4.8,4.8,0,0,1-1.936-4.125ZM18.618-5.61H17.155v.924h1.463V.385h1.067V-8.9H18.618Zm2.024-3.476V.847H21.72V-9.086Z" transform="translate(56 546)"/><g transform="translate(746.971 237.876)"><circle class="c" cx="32" cy="32" r="32" transform="translate(-722.971 224.124)"/><path class="d" d="M-690.238,243.041l-3.415,9.077h9.447l-3.415-9.077Z"/><path class="d" d="M-697.216,252.118l-3.415,9.077h9.446l-3.414-9.077Z"/><path class="d" d="M-683.126,252.118l-3.415,9.077h9.313l-3.414-9.077Z"/><path class="d" d="M-690.1,261.2l-3.416,9.078h9.314l-3.415-9.078Z"/><path class="d" d="M-704.2,261.2l-3.414,9.078h9.446l-3.415-9.078Z"/><path class="d" d="M-676.025,261.2l-3.415,9.078h9.191l-3.415-9.078Z"/><path d="M-675.335,269.422h-.023a.851.851,0,0,0-.851.851.851.851,0,0,0,.851.851h.023a.851.851,0,0,0,.851-.851A.851.851,0,0,0-675.335,269.422Z"/><path d="M-669.453,269.974l-3.415-9.077a.851.851,0,0,0-.8-.552h-2.975l-3.207-8.526a.852.852,0,0,0-.8-.552h-2.975l-3.208-8.526a.848.848,0,0,0-.8-.551h-7.127a.85.85,0,0,0-.8.551l-.419,1.113a.853.853,0,0,0,.5,1.1.851.851,0,0,0,1.1-.5l.211-.561h5.949l2.775,7.375h-11.5l.5-1.321a.851.851,0,0,0-.5-1.1.852.852,0,0,0-1.1.5l-.722,1.92h-2.974a.851.851,0,0,0-.8.552l-3.207,8.526H-708.7a.851.851,0,0,0-.8.552l-3.415,9.077a.847.847,0,0,0,.1.783.852.852,0,0,0,.7.367h33.36a.85.85,0,0,0,.851-.851.85.85,0,0,0-.851-.851h-4.217l2.775-7.375h5.949l2.774,7.375h-1.412a.851.851,0,0,0-.85.851.851.851,0,0,0,.85.851h2.642a.852.852,0,0,0,.7-.367A.847.847,0,0,0-669.453,269.974ZM-689,252.969l-2.186,5.808-2.185-5.808Zm-12.139,0h5.949l2.775,7.376h-11.5Zm2.975,14.887-2.186-5.809h4.372Zm-12.727,1.566,2.775-7.375h5.948l2.775,7.375Zm13.956,0,2.775-7.375h5.949l2.775,7.375Zm12.728-1.566-2.185-5.809h4.371Zm-5.749-7.511,2.774-7.376h5.95l2.773,7.376Z"/><path d="M-696.671,248.155a.875.875,0,0,0,.3.054.852.852,0,0,0,.8-.553l.008-.021a.85.85,0,0,0-.5-1.1.85.85,0,0,0-1.095.5l-.008.022A.851.851,0,0,0-696.671,248.155Z"/><path d="M-691.185,236.514a.851.851,0,0,0,.852-.851v-3.687a.851.851,0,0,0-.852-.852.851.851,0,0,0-.85.852v3.687A.851.851,0,0,0-691.185,236.514Z"/><path d="M-680.976,239.707a.853.853,0,0,0,.425.114.851.851,0,0,0,.738-.425l1.844-3.194a.851.851,0,0,0-.312-1.163.85.85,0,0,0-1.162.311l-1.845,3.195A.852.852,0,0,0-680.976,239.707Z"/><path d="M-702.556,239.4a.851.851,0,0,0,.739.425.849.849,0,0,0,.424-.114.851.851,0,0,0,.311-1.162l-1.844-3.195a.851.851,0,0,0-1.163-.311.852.852,0,0,0-.311,1.163Z"/></g></g></svg>