<svg xmlns="http://www.w3.org/2000/svg" xmlns:xlink="http://www.w3.org/1999/xlink" width="88" height="105" viewBox="0 0 88 105"><defs><style>.a,.d{fill:none;}.a{opacity:0.5;}.b{fill:#fff;}.c{fill:#36bebf;}.e{stroke:#000;stroke-miterlimit:10;stroke-width:0.1px;}.f{fill:#ececec;}.g{filter:url(#a);}</style><filter id="a" x="0" y="0" width="88" height="88" filterUnits="userSpaceOnUse"><feOffset dy="3" input="SourceAlpha"/><feGaussianBlur stdDeviation="4" result="b"/><feFlood flood-color="#0a0a0d" flood-opacity="0.902"/><feComposite operator="in" in2="b"/><feComposite in="SourceGraphic"/></filter></defs><g transform="translate(-12 -451)"><rect class="a" width="72.5" height="94" transform="translate(20 462)"/><g transform="translate(746.971 235.876)"><g class="g" transform="matrix(1, 0, 0, 1, -734.97, 215.12)"><circle class="b" cx="32" cy="32" r="32" transform="translate(12 9)"/></g><g transform="translate(-401.059 -78.958)"><path class="c" d="M-286.59,323.213h-2.438l-3.183,8.459h8.8Z"/><path class="c" d="M-293.094,331.673h-2.439l-3.182,8.461h8.8Z"/><path class="c" d="M-276.9,340.134l-3.182-8.461H-282.4l-3.183,8.461Z"/><path class="c" d="M-288.9,340.134l-3.183,8.459h8.68l-3.183-8.459Z"/><path class="c" d="M-302.036,340.134l-3.183,8.459h8.8l-3.183-8.459Z"/><path class="c" d="M-273.583,340.134h-2.2l-2.77,7.362h7.739Z"/><path class="d" d="M-285.969,332.77l-2.356,6.267h9.836l-2.357-6.267Z"/><path class="d" d="M-283.408,345.477l1.6-4.245H-285Z"/><path class="d" d="M-293.854,332.77h-5.122l-2.357,6.267h9.836Z"/><path class="d" d="M-292.473,341.231l-2.356,6.264h9.835l-2.356-6.264Z"/><path class="d" d="M-298.012,341.231l1.6,4.245,1.6-4.245Z"/><path class="d" d="M-305.479,341.231l-2.357,6.264H-298l-2.357-6.264Z"/><path class="d" d="M-288.314,332.77h-3.194l1.6,4.246Z"/><path class="b" d="M-274.481,348.593a1.1,1.1,0,0,0-1.118-1.1,1.1,1.1,0,0,0-1.1,1.1m.3,0a.794.794,0,0,1,.794-.793h.021a.793.793,0,0,1,.793.793"/><path class="b" d="M-274.785,348.593a.793.793,0,0,0-.793-.793h-.021a.794.794,0,0,0-.794.793m.3,0a.5.5,0,0,1,.511-.489.49.49,0,0,1,.489.489"/><path class="b" d="M-305.69,340.927l-2.586,6.873h10.715l-2.586-6.873Zm-2.146,6.569,2.356-6.265h5.122L-298,347.5Z"/><path class="b" d="M-293.643,332.466h-5.544l-2.586,6.875h10.716Zm-5.333.3h5.122l2.357,6.267h-9.836Z"/><path class="b" d="M-287.874,332.466h-4.074l2.037,5.415Zm-.44.3-1.6,4.246-1.6-4.246Z"/><path class="b" d="M-292.684,340.927l-2.585,6.873h10.716l-2.586-6.873Zm-2.145,6.569,2.356-6.265h5.123l2.356,6.265Z"/><path class="b" d="M-283.408,346.342l2.038-5.415h-4.075Zm0-.866-1.6-4.245h3.194Z"/><path class="b" d="M-286.18,332.466l-2.585,6.875h10.715l-2.585-6.875Zm-2.145,6.571,2.356-6.267h5.123l2.357,6.267Z"/><path class="b" d="M-298.452,340.927l2.037,5.415,2.037-5.415Zm.44.3h3.194l-1.6,4.245Z"/><path class="b" d="M-283.408,347.206l2.478-6.584h-4.955Zm0-.864-2.037-5.415h4.075Z"/><path class="b" d="M-286.391,332.162l-2.814,7.483h11.6l-2.815-7.483Zm-2.374,7.179,2.585-6.875h5.545l2.585,6.875Z"/><path class="b" d="M-292.684,324.005l-2.586,6.875h10.716l-2.586-6.875Zm-2.146,6.572,2.356-6.267h5.123l2.357,6.267Z"/><path class="b" d="M-292.895,323.7l-2.814,7.483h11.6l-2.815-7.483Zm-2.375,7.178,2.586-6.875h5.544l2.586,6.875Z"/><path class="b" d="M-305.9,340.622l-2.815,7.482h11.6l-2.816-7.482Zm-2.375,7.178,2.586-6.873h5.543l2.586,6.873Z"/><path class="b" d="M-293.432,332.162H-299.4l-2.816,7.483h11.6Zm-5.755.3h5.544l2.586,6.875h-10.716Z"/><path class="b" d="M-298.892,340.622l2.477,6.584,2.477-6.584Zm.44.3h4.074l-2.037,5.415Z"/><path class="b" d="M-292.895,340.622l-2.814,7.482h11.6l-2.815-7.482Zm-2.374,7.178,2.585-6.873h5.545l2.586,6.873Z"/><path class="b" d="M-279.677,340.927l-2.585,6.873h10.716l-2.586-6.873Zm-2.145,6.569,2.356-6.265h5.123l2.356,6.265Z"/><path class="b" d="M-279.888,340.622-282.7,348.1h11.6l-2.814-7.482Zm-2.374,7.178,2.585-6.873h5.545l2.586,6.873Z"/><path class="b" d="M-287.434,332.162h-4.954l2.477,6.584Zm-.44.3-2.037,5.415-2.037-5.415Z"/><path class="e" d="M-289.911,317.5a.489.489,0,0,0,.488-.489V313.57a.489.489,0,0,0-.488-.488.49.49,0,0,0-.489.488v3.437A.49.49,0,0,0-289.911,317.5Z"/><path class="e" d="M-278.655,320.512a.5.5,0,0,0,.667-.179l1.719-2.977a.488.488,0,0,0,.049-.37.49.49,0,0,0-.228-.3.487.487,0,0,0-.244-.065.49.49,0,0,0-.423.244l-1.719,2.977a.479.479,0,0,0-.048.37A.479.479,0,0,0-278.655,320.512Z"/><path class="e" d="M-301.834,320.333a.5.5,0,0,0,.665.18.484.484,0,0,0,.229-.3.485.485,0,0,0-.048-.371l-1.719-2.977a.493.493,0,0,0-.424-.244.49.49,0,0,0-.244.065.489.489,0,0,0-.178.667Z"/><path class="e" d="M-287.434,332.162l-2.477,6.584-2.477-6.584Zm-11.963,0h5.965l2.814,7.483h-11.6Zm-9.319,15.942,2.815-7.482h5.964l2.816,7.482Zm9.824-7.482h4.954l-2.477,6.584Zm3.183,7.482,2.814-7.482h5.967l2.815,7.482Zm12.3-.9-2.477-6.584h4.955Zm-5.8-7.561,2.814-7.483h5.966l2.815,7.483Zm16.079.316a.49.49,0,0,0-.457-.316h-2.983l-3.063-8.144a.487.487,0,0,0-.458-.317h-2.982l-3.064-8.143a.487.487,0,0,0-.457-.316h-6.643a.49.49,0,0,0-.457.317l-.39,1.036a.489.489,0,0,0,.286.629.5.5,0,0,0,.629-.285l.27-.72h5.967l2.814,7.483h-11.6l.618-1.643a.492.492,0,0,0-.012-.375.483.483,0,0,0-.273-.254.5.5,0,0,0-.629.285l-.749,1.987h-2.982a.486.486,0,0,0-.458.316l-3.063,8.144h-2.982a.491.491,0,0,0-.457.316l-3.184,8.461a.483.483,0,0,0,.056.449.488.488,0,0,0,.4.211h31.09a.49.49,0,0,0,.489-.489.49.49,0,0,0-.489-.489h-4.37l2.815-7.482h5.966l2.815,7.482h-1.755a.49.49,0,0,0-.489.489.49.49,0,0,0,.489.489h2.461a.489.489,0,0,0,.4-.211.485.485,0,0,0,.055-.449Z"/><path class="e" d="M-294.918,327.324a.5.5,0,0,0,.63-.286.5.5,0,0,0-.006-.394.483.483,0,0,0-.272-.255.49.49,0,0,0-.172-.032.489.489,0,0,0-.457.318.5.5,0,0,0,0,.394A.488.488,0,0,0-294.918,327.324Z"/><path class="e" d="M-275.578,348.1a.5.5,0,0,0-.511.489.491.491,0,0,0,.49.489h.021a.49.49,0,0,0,.489-.489A.49.49,0,0,0-275.578,348.1Z"/></g></g><path class="f" d="M-20.037-1.958h4.565V-.176h-4.565ZM-21.148.726h6.787V-2.86h-6.787Zm6.534-5.709a12.507,12.507,0,0,0,.253-2.849V-8.6H-21.1v.924h5.632a11.3,11.3,0,0,1-.275,2.695h-6.49v.924h9v-.924Zm1.738,6.963H-12L-8.937-8.778h-.88ZM-4-7.865c1.452,0,2.365.407,2.365,1.1S-2.547-5.654-4-5.654s-2.376-.407-2.376-1.111S-5.462-7.865-4-7.865Zm0,3.124c2.145,0,3.542-.759,3.542-2.024S-1.854-8.778-4-8.778s-3.542.759-3.542,2.013S-6.144-4.741-4-4.741ZM-6.221-2.233H-7.365V.66H-.512V-.264H-6.221ZM-8.5-3.938v.924H.49v-.924ZM7.112-8.261H5.979v1.628A5,5,0,0,1,3.361-2.1l.671.946a5.163,5.163,0,0,0,2.53-3.2A4.959,4.959,0,0,0,9.026-1.375l.66-.9A4.812,4.812,0,0,1,7.112-6.633ZM10.478-9.1V.869h1.144V-9.1Zm5.808.924h-1.1V-6.38A4.969,4.969,0,0,1,13.1-2.068l.693.858a4.787,4.787,0,0,0,1.958-2.849A4.531,4.531,0,0,0,17.584-1.43l.638-.88a4.8,4.8,0,0,1-1.936-4.125ZM18.618-5.61H17.155v.924h1.463V.385h1.067V-8.9H18.618Zm2.024-3.476V.847H21.72V-9.086Z" transform="translate(56 545)"/></g></svg>