<svg xmlns="http://www.w3.org/2000/svg" width="72.5" height="94" viewBox="0 0 72.5 94"><defs><style>.a{fill:none;opacity:0.5;}.b{fill:#ececec;}.c{fill:#fff;}.d{fill:#82d9d0;}</style></defs><g transform="translate(-186 -463)"><rect class="a" width="72.5" height="94" transform="translate(186 463)"/><path class="b" d="M-25.8-4.114a3.222,3.222,0,0,1-1.936-3v-1.21h-1.144v1.21a3.443,3.443,0,0,1-1.386,2.794,3.51,3.51,0,0,1-1.408-2.794v-1.21H-32.8v1.21a3.329,3.329,0,0,1-1.936,3l.594.847a3.68,3.68,0,0,0,1.9-2.1,3.812,3.812,0,0,0,1.969,2.233,3.726,3.726,0,0,0,1.98-2.211,3.508,3.508,0,0,0,1.9,2.079Zm-8.976,2.75v.935h9.031v-.935Zm9.757.033V-.4h9v-.935ZM-24-8.4v5.236h6.952V-8.4h-1.122v1.738H-22.88V-8.4Zm1.122,2.64h4.708v1.683H-22.88Zm11.22-1.463h3.487v-.924h-4.62v6.567h.814a24.516,24.516,0,0,0,4.642-.33l-.121-.935a23.982,23.982,0,0,1-4.2.319Zm7.711,1.958H-5.5V-9.1H-6.633V.858H-5.5V-4.334h1.551ZM3.575-9.1V.869H4.719V-9.1ZM-.572-8.36c-1.474,0-2.552,1.364-2.552,3.5,0,2.156,1.078,3.509,2.552,3.509S1.991-2.706,1.991-4.862C1.991-7,.913-8.36-.572-8.36Zm0,1.023C.3-7.337.9-6.4.9-4.862.9-3.3.3-2.365-.572-2.365s-1.463-.935-1.463-2.5C-2.035-6.4-1.43-7.337-.572-7.337ZM8.921-2.365c-.869,0-1.463-.935-1.463-2.486s.594-2.486,1.463-2.486,1.463.935,1.463,2.486S9.779-2.365,8.921-2.365Zm0-6C7.436-8.36,6.369-7,6.369-4.851s1.067,3.5,2.552,3.5,2.552-1.353,2.552-3.5S10.406-8.36,8.921-8.36Zm6.6,3.157H13.97V-9.086H12.837V.858H13.97V-4.268h1.551Zm2.761,2.992H17.138V.66h6.853V-.264H18.282ZM18.26-7.722h4.477v1.771H18.26Zm2.805,3.839V-5.038h2.783V-8.624h-6.7v3.586h2.772v1.155H16v.913h9v-.913ZM33.737-4.4H27.984V-7.293H33.66v-.924H26.851v4.73h6.886ZM25.751-1.364v.935H34.76v-.935ZM-5.7,3.739H-6.836V5.367A5,5,0,0,1-9.455,9.9l.671.946a5.163,5.163,0,0,0,2.53-3.2,4.959,4.959,0,0,0,2.464,2.981l.66-.9A4.812,4.812,0,0,1-5.7,5.367ZM-2.337,2.9v9.966h1.144V2.9Zm5.753.924h-1.1V5.62A4.969,4.969,0,0,1,.225,9.932l.693.858A4.787,4.787,0,0,0,2.877,7.941,4.531,4.531,0,0,0,4.714,10.57l.638-.88A4.8,4.8,0,0,1,3.415,5.565ZM5.747,6.39H4.285v.924H5.747v5.071H6.815V3.1H5.747ZM7.772,2.914v9.933H8.849V2.914Z" transform="translate(222 541)"/><g transform="translate(1066.506 242.876)"><circle class="c" cx="32" cy="32" r="32" transform="translate(-875.506 220.124)"/><path class="d" d="M-855.433,258.057h0l-3.178,3.178.638.154,2.613.631.043,2.293,1.234-1.234.412-.412,4.494-4.494-4.38-.081Z"/><path class="d" d="M-857.831,263.707l.181,2.937,2.331-2.33Z"/><path class="d" d="M-855.318,264.314l-2.64,2.64,9.232.55-6.592-3.189Z"/><path class="d" d="M-844.415,253.409l-4.763,4.764-4.494,4.493,8.707,4.212.423.874.987.059Z"/><path class="d" d="M-853.593,256.218l3.962.071.453,1.883,4.764-4.763-6-.37Z"/><path d="M-844.694,253l-6-.37a.734.734,0,0,0-.562.213l-10.036,10.037a.729.729,0,0,0-.213.562l.37,6a.73.73,0,0,0,.47.636.7.7,0,0,0,.291.048l16.585.993a.733.733,0,0,0,.561-.213.729.729,0,0,0,.212-.56l-.992-16.586a.753.753,0,0,0-.047-.29A.735.735,0,0,0-844.694,253Zm-1.708,1.359-2.708,2.708-.684-2.917Zm-.481,7.956a.732.732,0,0,0-.97-.357.742.742,0,0,0-.211.147.732.732,0,0,0-.146.823l2.606,5.6-8.785-4.11,9.014-9.015.7,11.652Zm-7.18-4.6,2.92-2.92.686,2.931Zm-.886,5.189-.01-3.731,3.73.012Zm-.538,2.607,8.434,3.947-11.683-.7Zm-3.851-2.521,2.92-2.919.01,3.606Zm2.271,2.034-2.709,2.708-.209-3.393Z"/><path d="M-849.095,260.109a.735.735,0,0,0,0,1.035.732.732,0,0,0,1.034,0,.733.733,0,0,0,0-1.035A.732.732,0,0,0-849.095,260.109Z"/><path class="d" d="M-826.931,249.637h0l-3.178-3.179-.154.639-.631,2.613-2.293.042,1.234,1.234.412.411,4.494,4.494.081-4.38Z"/><path class="d" d="M-832.581,247.24l-2.937.182,2.33,2.33Z"/><path class="d" d="M-833.188,249.752l-2.64-2.64-.55,9.232,3.189-6.592Z"/><path class="d" d="M-822.283,260.656l-4.764-4.763-4.493-4.494-4.212,8.708-.874.423-.059.986Z"/><path class="d" d="M-825.092,251.478l-.071,3.962-1.883.452,4.763,4.764.37-6Z"/><path d="M-821.877,260.377l.369-6a.733.733,0,0,0-.213-.563l-10.036-10.036a.728.728,0,0,0-.563-.212l-6,.369a.731.731,0,0,0-.636.471.7.7,0,0,0-.047.29L-840,261.282a.74.74,0,0,0,.213.561.74.74,0,0,0,.561.213l16.586-.993a.75.75,0,0,0,.289-.047A.736.736,0,0,0-821.877,260.377Zm-1.36-1.708-2.708-2.709,2.918-.683Zm-7.956-.481a.734.734,0,0,0,.358-.97.731.731,0,0,0-.148-.211.731.731,0,0,0-.822-.147l-5.6,2.607,4.11-8.785,9.015,9.014-11.651.7Zm4.6-7.181,2.92,2.92-2.932.687Zm-5.19-.885,3.732-.011-.013,3.731Zm-2.606-.538-3.947,8.435.7-11.684Zm2.52-3.852,2.919,2.92-3.605.011ZM-833.9,248l-2.708-2.709,3.394-.209Z"/><path d="M-828.984,255.976a.734.734,0,0,0-1.034,0,.732.732,0,0,0,0,1.034.732.732,0,0,0,1.034,0A.732.732,0,0,0-828.984,255.976Z"/><path class="d" d="M-846.819,231.855h-4.495l.342.561,1.4,2.294-1.591,1.651h8.683l-3.04-3.154Z"/><path class="d" d="M-852.51,234.155l-1.948,2.206h3.3Z"/><path class="d" d="M-851.162,236.36H-854.9l6.139,6.917-2.406-6.917Z"/><path class="d" d="M-835.741,236.36h-13.092l3.179,9.135-.319.917.656.739Z"/><path class="d" d="M-844.217,231.856l2.751,2.852-1.012,1.651h6.737l-3.982-4.506Z"/><path d="M-835.651,235.876l-3.982-4.505a.737.737,0,0,0-.549-.247h-14.193a.732.732,0,0,0-.548.248l-3.982,4.5a.727.727,0,0,0-.116.783.71.71,0,0,0,.17.239l11.027,12.43a.733.733,0,0,0,.547.246.737.737,0,0,0,.547-.246l11.025-12.43a.725.725,0,0,0,.172-.238A.735.735,0,0,0-835.651,235.876Zm-2.17-.247h-3.829l1.579-2.546Zm-5.966,5.285a.731.731,0,0,0-.433-.938.711.711,0,0,0-.253-.045.732.732,0,0,0-.685.478l-2.115,5.8-3.3-9.118h12.748l-7.745,8.732Zm-1.825-8.329h4.129l-1.587,2.559Zm-4.3,3.043,2.631-2.646,2.629,2.648Zm-2.223,1.463,3.173,8.756-7.768-8.756Zm-.942-4.506h4.129l-2.542,2.558Zm.168,3.045h-3.83l2.252-2.548Z"/><path d="M-843.789,237.788a.735.735,0,0,0-.731.733.732.732,0,0,0,.731.73.732.732,0,0,0,.731-.731A.732.732,0,0,0-843.789,237.788Z"/></g></g></svg>