<svg xmlns="http://www.w3.org/2000/svg" width="72.5" height="94" viewBox="0 0 72.5 94"><defs><style>.a{fill:none;opacity:0.5;}.b{fill:#ececec;}.c{fill:#fff;}.d{fill:#82d9d0;}</style></defs><g transform="translate(-269 -462)"><rect class="a" width="72.5" height="94" transform="translate(269 462)"/><path class="b" d="M-12.073-9.075h-1.133v7.227h1.133ZM-14.13-4.07a3.239,3.239,0,0,1-2.431-2.97V-7.4h2.123v-.913h-5.434V-7.4h2.156v.363A3.388,3.388,0,0,1-20.18-3.883l.594.88a4,4,0,0,0,2.464-2.3A3.928,3.928,0,0,0-14.7-3.179ZM-17.419-.264V-2.508h-1.144V.66h6.776V-.264Zm7.854-3.96A4.814,4.814,0,0,0-5.979-6.38a4.836,4.836,0,0,0,3.6,2.156l.407-.891c-1.892-.253-3.289-1.342-3.355-2.5h3v-.913H-9.642v.913h3.025c-.066,1.155-1.463,2.244-3.355,2.5ZM-1.48-3.5h-8.987v.913h3.894V.858H-5.44V-2.585h3.949ZM5.131-8.261H4v1.628A5,5,0,0,1,1.38-2.1l.671.946a5.163,5.163,0,0,0,2.53-3.2A4.959,4.959,0,0,0,7.045-1.375l.66-.9A4.812,4.812,0,0,1,5.131-6.633ZM8.5-9.1V.869H9.641V-9.1Zm5.808.924h-1.1V-6.38a4.969,4.969,0,0,1-2.09,4.312l.693.858a4.787,4.787,0,0,0,1.958-2.849A4.531,4.531,0,0,0,15.6-1.43l.638-.88a4.8,4.8,0,0,1-1.936-4.125ZM16.637-5.61H15.174v.924h1.463V.385H17.7V-8.9H16.637Zm2.024-3.476V.847h1.078V-9.086Z" transform="translate(305 546)"/><g transform="translate(924.115 242.876)"><circle class="c" cx="32" cy="32" r="32" transform="translate(-651.115 219.124)"/><path class="d" d="M-615.943,240.815h12.875l-.814-4.547a2.11,2.11,0,0,0-2.077-1.738h-22.8a2.11,2.11,0,0,0-2.077,1.738l-.814,4.547v.7h29.127v-.7Zm-3.175,0h0Z"/><path d="M-619.115,242.221a.708.708,0,0,0,.5-.206.712.712,0,0,0,.206-.5.712.712,0,0,0-.206-.5.708.708,0,0,0-.5-.206.706.706,0,0,0-.5.206.708.708,0,0,0-.206.5.708.708,0,0,0,.206.5A.706.706,0,0,0-619.115,242.221Z"/><path d="M-619.047,243.429a.7.7,0,0,0-.7.7v3.615a.7.7,0,0,0,.7.7.7.7,0,0,0,.7-.7v-3.615A.7.7,0,0,0-619.047,243.429Z"/><path d="M-615.708,249.957a.7.7,0,0,0,.495-.206l2.557-2.556a.7.7,0,0,0,0-.992.7.7,0,0,0-.993,0l-2.555,2.556a.7.7,0,0,0,0,.992A.7.7,0,0,0-615.708,249.957Z"/><path d="M-623.018,249.751a.7.7,0,0,0,.5.206.7.7,0,0,0,.5-.206.7.7,0,0,0,0-.992l-2.556-2.556a.7.7,0,0,0-.992,0,.7.7,0,0,0,0,.992Z"/><path d="M-603.225,259.28h-1.759l3.765-14.6a3.069,3.069,0,0,0-.019-1.62l-1.26-7.04a3.513,3.513,0,0,0-3.461-2.9h-26.314a3.511,3.511,0,0,0-3.46,2.9L-637,243.077a3.081,3.081,0,0,0-.015,1.6l3.766,14.6h-1.76a2.113,2.113,0,0,0-2.109,2.11v2.531a5.208,5.208,0,0,0,5.2,5.2h25.594a5.209,5.209,0,0,0,5.2-5.2V261.39A2.113,2.113,0,0,0-603.225,259.28Zm-32.425-14.95a1.675,1.675,0,0,1,.3-1.454,1.677,1.677,0,0,1,1.334-.655h11.745a.7.7,0,0,0,.7-.7.7.7,0,0,0-.7-.7h-11.745a3.1,3.1,0,0,0-1.19.236l.856-4.783a2.11,2.11,0,0,1,2.077-1.738h26.314a2.11,2.11,0,0,1,2.077,1.738l.856,4.782a3.116,3.116,0,0,0-1.189-.235h-11.727a.7.7,0,0,0-.7.7.7.7,0,0,0,.7.7h11.727a1.681,1.681,0,0,1,1.335.654,1.677,1.677,0,0,1,.3,1.455l-3.855,14.95h-7.77a6.029,6.029,0,0,0,1.167-3.588,6.084,6.084,0,0,0-6.076-6.076,6.083,6.083,0,0,0-6.076,6.076,6.028,6.028,0,0,0,1.167,3.588h-7.769Zm21.205,11.362a4.628,4.628,0,0,1-1.679,3.588H-622.1a4.626,4.626,0,0,1-1.681-3.588h0a4.676,4.676,0,0,1,4.671-4.669A4.675,4.675,0,0,1-614.445,255.692Zm11.924,8.229a3.8,3.8,0,0,1-3.8,3.8h-25.594a3.8,3.8,0,0,1-3.8-3.8V261.39a.7.7,0,0,1,.7-.7h31.781a.7.7,0,0,1,.7.7Z"/><path class="d" d="M-602.521,263.921V261.39a.7.7,0,0,0-.7-.7h-28.264a.7.7,0,0,0-.7.7v2.531a3.8,3.8,0,0,0,3.8,3.8h22.078A3.8,3.8,0,0,0-602.521,263.921Z"/></g></g></svg>