<svg xmlns="http://www.w3.org/2000/svg" width="65" height="80" viewBox="0 0 65 80">
  <g id="진주시세" transform="translate(-260 -454)">
    <rect id="진주시세_영역" width="65" height="80" rx="20" transform="translate(260 454)" fill="#fff" opacity="0"/>
    <path id="패스_643" data-name="패스 643" d="M-12.073-9.075h-1.133v7.227h1.133ZM-14.13-4.07a3.239,3.239,0,0,1-2.431-2.97V-7.4h2.123v-.913h-5.434V-7.4h2.156v.363A3.388,3.388,0,0,1-20.18-3.883l.594.88a4,4,0,0,0,2.464-2.3A3.928,3.928,0,0,0-14.7-3.179ZM-17.419-.264V-2.508h-1.144V.66h6.776V-.264Zm7.854-3.96A4.814,4.814,0,0,0-5.979-6.38a4.836,4.836,0,0,0,3.6,2.156l.407-.891c-1.892-.253-3.289-1.342-3.355-2.5h3v-.913H-9.642v.913h3.025c-.066,1.155-1.463,2.244-3.355,2.5ZM-1.48-3.5h-8.987v.913h3.894V.858H-5.44V-2.585h3.949ZM5.131-8.261H4v1.628A5,5,0,0,1,1.38-2.1l.671.946a5.163,5.163,0,0,0,2.53-3.2A4.959,4.959,0,0,0,7.045-1.375l.66-.9A4.812,4.812,0,0,1,5.131-6.633ZM8.5-9.1V.869H9.641V-9.1Zm5.808.924h-1.1V-6.38a4.969,4.969,0,0,1-2.09,4.312l.693.858a4.787,4.787,0,0,0,1.958-2.849A4.531,4.531,0,0,0,15.6-1.43l.638-.88a4.8,4.8,0,0,1-1.936-4.125ZM16.637-5.61H15.174v.924h1.463V.385H17.7V-8.9H16.637Zm2.024-3.476V.847h1.078V-9.086Z" transform="translate(293 515)" fill="#3b3b3b"/>
    <g id="진주아이콘" transform="translate(-102.578 263.881)">
      <g id="그룹_121" data-name="그룹 121">
        <path id="패스_326" data-name="패스 326" d="M404.426,200.119H386.54a4.472,4.472,0,0,0-4.472,4.472v18.354H408.9V204.591A4.472,4.472,0,0,0,404.426,200.119Z" fill="#6b6a83"/>
      </g>
      <g id="그룹_122" data-name="그룹 122">
        <path id="패스_327" data-name="패스 327" d="M390.267,203.1a1.491,1.491,0,1,1,0-2.981H386.54a4.472,4.472,0,0,0-4.472,4.472v18.354h8.2Z" fill="#5f5c77"/>
      </g>
      <g id="그룹_123" data-name="그룹 123">
        <path id="패스_328" data-name="패스 328" d="M385.049,222.945V204.591a1.493,1.493,0,0,1,1.491-1.491h17.886a1.493,1.493,0,0,1,1.49,1.491v18.354Z" fill="#5f5c77"/>
      </g>
      <g id="그룹_124" data-name="그룹 124">
        <path id="패스_329" data-name="패스 329" d="M390.267,203.1H386.54a1.492,1.492,0,0,0-1.491,1.491v18.354h3.726V204.591A1.493,1.493,0,0,1,390.267,203.1Z" fill="#52506a"/>
      </g>
      <g id="그룹_125" data-name="그룹 125">
        <path id="패스_330" data-name="패스 330" d="M395.482,206.55a6.707,6.707,0,1,1-6.707,6.707A6.707,6.707,0,0,1,395.482,206.55Z" fill="#fefefe"/>
      </g>
      <g id="그룹_126" data-name="그룹 126">
        <path id="패스_331" data-name="패스 331" d="M392.129,213.257a6.711,6.711,0,0,1,5.031-6.5,6.708,6.708,0,1,0,0,12.992,6.71,6.71,0,0,1-5.031-6.5Z" fill="#dfdfdf"/>
      </g>
      <g id="그룹_127" data-name="그룹 127">
        <path id="패스_332" data-name="패스 332" d="M404.426,218.474H386.54a4.472,4.472,0,0,0-4.472,4.471v1.722H408.9v-1.722A4.471,4.471,0,0,0,404.426,218.474Z" fill="#f266a5"/>
      </g>
      <g id="그룹_128" data-name="그룹 128">
        <path id="패스_333" data-name="패스 333" d="M390.267,218.474H386.54a4.472,4.472,0,0,0-4.472,4.471v1.722H385.8v-1.722A4.471,4.471,0,0,1,390.267,218.474Z" fill="#e04565"/>
      </g>
      <g id="그룹_129" data-name="그룹 129">
        <path id="패스_334" data-name="패스 334" d="M405.916,232.119H385.049a4.471,4.471,0,0,1-4.471-4.471v-2.981a1.491,1.491,0,0,1,1.49-1.491H408.9a1.492,1.492,0,0,1,1.491,1.491v2.981a4.472,4.472,0,0,1-4.472,4.471Z" fill="#6b6a83"/>
      </g>
      <g id="그룹_130" data-name="그룹 130">
        <path id="패스_335" data-name="패스 335" d="M384.3,227.648v-2.981a1.492,1.492,0,0,1,1.491-1.491h-3.727a1.491,1.491,0,0,0-1.49,1.491v2.981a4.471,4.471,0,0,0,4.471,4.471h3.726A4.472,4.472,0,0,1,384.3,227.648Z" fill="#5f5c77"/>
      </g>
      <g id="그룹_131" data-name="그룹 131">
        <path id="패스_336" data-name="패스 336" d="M399.954,227.648h-8.943a1.491,1.491,0,0,1-1.491-1.491v-2.981h11.925v2.981A1.491,1.491,0,0,1,399.954,227.648Z" fill="#5f5c77"/>
      </g>
      <g id="그룹_132" data-name="그룹 132">
        <path id="패스_337" data-name="패스 337" d="M393.247,226.157v-2.98H389.52v2.98a1.491,1.491,0,0,0,1.492,1.491h3.726A1.491,1.491,0,0,1,393.247,226.157Z" fill="#52506a"/>
      </g>
    </g>
  </g>
</svg>
