<svg xmlns="http://www.w3.org/2000/svg" xmlns:xlink="http://www.w3.org/1999/xlink" width="89" height="109" viewBox="0 0 89 109"><defs><style>.a{fill:#fff;}.b{fill:#f5f5f5;}.c{fill:#3b3b3b;font-size:14px;font-family:NotoSansCJKkr-Medium, Noto Sans CJK KR;font-weight:500;letter-spacing:-0.05em;}.d{fill:#2dcb9b;}.e{fill:#26c5df;}.f{fill:#e0eef1;}.g{fill:#fb7686;}.h{fill:#d15241;}.i{filter:url(#c);}.j{filter:url(#a);}</style><filter id="a" x="3" y="11" width="83" height="98" filterUnits="userSpaceOnUse"><feOffset dy="4" input="SourceAlpha"/><feGaussianBlur stdDeviation="3" result="b"/><feFlood flood-opacity="0.161"/><feComposite operator="in" in2="b"/><feComposite in="SourceGraphic"/></filter><filter id="c" x="0" y="0" width="89" height="104" filterUnits="userSpaceOnUse"><feOffset dy="-4" input="SourceAlpha"/><feGaussianBlur stdDeviation="4" result="d"/><feFlood flood-color="#fff"/><feComposite operator="in" in2="d"/><feComposite in="SourceGraphic"/></filter></defs><g transform="translate(-263 -531)"><g class="j" transform="matrix(1, 0, 0, 1, 263, 531)"><rect class="a" width="65" height="80" rx="10" transform="translate(12 16)"/></g><g class="i" transform="matrix(1, 0, 0, 1, 263, 531)"><rect class="b" width="65" height="80" rx="10" transform="translate(12 16)"/></g><text class="c" transform="translate(308 610)"><tspan x="-25.935" y="0">종로 지도</tspan></text><g transform="translate(10.36 154.055)"><path class="d" d="M310.615,431.44l-2.406-8.212h-2.167l-6.779,3.144Z"/><path class="d" d="M287.073,423.228l-2.16,7.375,16.792-7.375Z"/><path class="e" d="M284.091,433.406l-.451,1.539h28l-.173-.589-14.584-6.881Z"/><path class="f" d="M299.262,426.372l6.779-3.144H301.7L284.913,430.6l-.821,2.8,12.792-5.931,14.584,6.881-.853-2.916Z"/><path class="g" d="M290.057,414.528c0,4.189,7.583,12.808,7.583,12.808V406.945A7.583,7.583,0,0,0,290.057,414.528Z"/><path class="h" d="M297.64,406.945v20.391s7.584-8.619,7.584-12.808A7.583,7.583,0,0,0,297.64,406.945Z"/><path class="b" d="M296.4,409.5a3.791,3.791,0,1,1-3.79,3.791A3.792,3.792,0,0,1,296.4,409.5Z" transform="translate(1.241 1.241)"/></g></g></svg>