<svg xmlns="http://www.w3.org/2000/svg" xmlns:xlink="http://www.w3.org/1999/xlink" width="88" height="105" viewBox="0 0 88 105"><defs><style>.a,.d{fill:none;}.a{opacity:0.5;}.b{fill:#fff;}.c{fill:#43c2c3;}.e{stroke:#000;stroke-miterlimit:10;stroke-width:0.1px;}.f{fill:#ececec;}.g{filter:url(#a);}</style><filter id="a" x="0" y="0" width="88" height="88" filterUnits="userSpaceOnUse"><feOffset dy="3" input="SourceAlpha"/><feGaussianBlur stdDeviation="4" result="b"/><feFlood flood-color="#0a0a0d" flood-opacity="0.902"/><feComposite operator="in" in2="b"/><feComposite in="SourceGraphic"/></filter></defs><g transform="translate(-261 -451)"><rect class="a" width="72.5" height="94" transform="translate(269 462)"/><g transform="translate(924.115 240.876)"><g class="g" transform="matrix(1, 0, 0, 1, -663.11, 210.12)"><circle class="b" cx="32" cy="32" r="32" transform="translate(12 9)"/></g><g transform="translate(-242.114 -79.958)"><path class="c" d="M-375.066,320.628a.713.713,0,0,1,.713.713h5.561a.714.714,0,0,1,.714-.713h6.188a3.135,3.135,0,0,1,1.205.238l-.869-4.85a2.137,2.137,0,0,0-2.105-1.762h-22.692a2.137,2.137,0,0,0-2.1,1.763l-.869,4.85a3.15,3.15,0,0,1,1.207-.239Zm3.266.208a.722.722,0,0,1,.5-.208.718.718,0,0,1,.5.208.723.723,0,0,1,.209.505h-1.426A.719.719,0,0,1-371.8,320.836Z"/><path class="c" d="M-360.886,340.779h-28.236a.713.713,0,0,0-.712.713v2.567a3.854,3.854,0,0,0,3.85,3.851h21.96a3.855,3.855,0,0,0,3.851-3.851v-2.567A.714.714,0,0,0-360.886,340.779Z"/><path class="d" d="M-360.886,341.033h-32.229a.459.459,0,0,0-.459.459v2.567a3.6,3.6,0,0,0,3.6,3.6h25.954a3.6,3.6,0,0,0,3.6-3.6v-2.567A.459.459,0,0,0-360.886,341.033Z"/><path class="d" d="M-377,331.232a4.489,4.489,0,0,0-4.482,4.484,4.47,4.47,0,0,0,1.542,3.384h5.881a4.468,4.468,0,0,0,1.543-3.384A4.49,4.49,0,0,0-377,331.232Z"/><path class="d" d="M-382.457,339.1a6.365,6.365,0,0,1-.96-3.384A6.425,6.425,0,0,1-377,329.3a6.424,6.424,0,0,1,6.416,6.417,6.365,6.365,0,0,1-.96,3.384h7.205l3.861-14.971a1.45,1.45,0,0,0-.259-1.257,1.451,1.451,0,0,0-1.153-.565h-6.188a.968.968,0,0,1-.967-.966.968.968,0,0,1,.967-.967h6.188a3.41,3.41,0,0,1,.88.115l-.793-4.428a1.884,1.884,0,0,0-1.856-1.553h-26.685a1.884,1.884,0,0,0-1.856,1.553l-.793,4.428a3.425,3.425,0,0,1,.882-.115H-374.5a.968.968,0,0,1,.967.967.968.968,0,0,1-.967.966h-17.615a1.446,1.446,0,0,0-1.152.565,1.447,1.447,0,0,0-.26,1.257l3.862,14.971Z"/><path class="b" d="M-377,330.979a4.742,4.742,0,0,0-4.736,4.737,4.7,4.7,0,0,0,1.7,3.637h6.067a4.7,4.7,0,0,0,1.7-3.637A4.742,4.742,0,0,0-377,330.979Zm2.941,8.121h-5.881a4.47,4.47,0,0,1-1.542-3.384A4.489,4.489,0,0,1-377,331.232a4.49,4.49,0,0,1,4.484,4.484A4.468,4.468,0,0,1-374.06,339.1Z"/><path class="b" d="M-381.979,339.353a6.118,6.118,0,0,1-1.184-3.637A6.169,6.169,0,0,1-377,329.553a6.169,6.169,0,0,1,6.162,6.163,6.111,6.111,0,0,1-1.184,3.637h7.879l3.91-15.161a1.7,1.7,0,0,0-.3-1.475,1.7,1.7,0,0,0-1.353-.663h-6.188a.714.714,0,0,1-.714-.713.714.714,0,0,1,.714-.713h6.188a3.135,3.135,0,0,1,1.205.238l-.869-4.85a2.137,2.137,0,0,0-2.105-1.762h-26.685a2.137,2.137,0,0,0-2.105,1.763l-.869,4.85a3.15,3.15,0,0,1,1.207-.239H-374.5a.713.713,0,0,1,.713.713.713.713,0,0,1-.713.713h-17.615a1.7,1.7,0,0,0-1.352.663,1.7,1.7,0,0,0-.3,1.475l3.91,15.161Zm-11.284-16.481a1.446,1.446,0,0,1,1.152-.565H-374.5a.968.968,0,0,0,.967-.966.968.968,0,0,0-.967-.967h-17.615a3.425,3.425,0,0,0-.882.115l.793-4.428a1.884,1.884,0,0,1,1.856-1.553h26.685a1.884,1.884,0,0,1,1.856,1.553l.793,4.428a3.41,3.41,0,0,0-.88-.115h-6.188a.968.968,0,0,0-.967.967.968.968,0,0,0,.967.966h6.188a1.451,1.451,0,0,1,1.153.565,1.45,1.45,0,0,1,.259,1.257l-3.861,14.971h-7.205a6.365,6.365,0,0,0,.96-3.384A6.424,6.424,0,0,0-377,329.3a6.425,6.425,0,0,0-6.417,6.417,6.365,6.365,0,0,0,.96,3.384h-7.2l-3.862-14.971A1.447,1.447,0,0,1-393.263,322.872Z"/><path class="b" d="M-360.886,340.779h-32.229a.714.714,0,0,0-.713.713v2.567a3.856,3.856,0,0,0,3.85,3.851h25.954a3.855,3.855,0,0,0,3.851-3.851v-2.567A.714.714,0,0,0-360.886,340.779Zm.459,3.28a3.6,3.6,0,0,1-3.6,3.6h-25.954a3.6,3.6,0,0,1-3.6-3.6v-2.567a.459.459,0,0,1,.459-.459h32.229a.459.459,0,0,1,.459.459Z"/><path class="b" d="M-360.886,340.526h-32.229a.968.968,0,0,0-.967.966v2.567a4.109,4.109,0,0,0,4.1,4.1h25.954a4.108,4.108,0,0,0,4.1-4.1v-2.567A.967.967,0,0,0-360.886,340.526Zm.713,3.533a3.855,3.855,0,0,1-3.851,3.851h-25.954a3.856,3.856,0,0,1-3.85-3.851v-2.567a.714.714,0,0,1,.713-.713h32.229a.714.714,0,0,1,.713.713Z"/><path class="b" d="M-381.478,339.606l-.3-.4a5.851,5.851,0,0,1-1.134-3.487A5.915,5.915,0,0,1-377,329.807a5.915,5.915,0,0,1,5.909,5.909,5.843,5.843,0,0,1-1.135,3.487l-.3.4h8.577l3.959-15.351a1.952,1.952,0,0,0-.35-1.694,1.954,1.954,0,0,0-1.553-.761h-6.188a.46.46,0,0,1-.46-.459.46.46,0,0,1,.46-.46h6.188a2.866,2.866,0,0,1,1.108.22l.428.177-.95-5.306A2.39,2.39,0,0,0-363.659,314h-26.685a2.39,2.39,0,0,0-2.355,1.971l-.951,5.307.429-.178a2.88,2.88,0,0,1,1.11-.22H-374.5a.46.46,0,0,1,.46.46.46.46,0,0,1-.46.459h-17.615a1.954,1.954,0,0,0-1.553.761,1.953,1.953,0,0,0-.35,1.7l3.96,15.35Zm-11.985-16.889a1.7,1.7,0,0,1,1.352-.663H-374.5a.713.713,0,0,0,.713-.713.713.713,0,0,0-.713-.713h-17.615a3.15,3.15,0,0,0-1.207.239l.869-4.85a2.137,2.137,0,0,1,2.105-1.763h26.685a2.137,2.137,0,0,1,2.105,1.762l.869,4.85a3.135,3.135,0,0,0-1.205-.238h-6.188a.714.714,0,0,0-.714.713.714.714,0,0,0,.714.713h6.188a1.7,1.7,0,0,1,1.353.663,1.7,1.7,0,0,1,.3,1.475l-3.91,15.161h-7.879a6.111,6.111,0,0,0,1.184-3.637A6.169,6.169,0,0,0-377,329.553a6.169,6.169,0,0,0-6.163,6.163,6.118,6.118,0,0,0,1.184,3.637h-7.879l-3.91-15.161A1.7,1.7,0,0,1-393.463,322.717Z"/><path class="b" d="M-377,330.726a5,5,0,0,0-4.989,4.99,4.972,4.972,0,0,0,1.794,3.832l.07.058h6.25l.071-.058a4.973,4.973,0,0,0,1.795-3.832A5,5,0,0,0-377,330.726Zm3.034,8.627h-6.067a4.7,4.7,0,0,1-1.7-3.637A4.742,4.742,0,0,1-377,330.979a4.742,4.742,0,0,1,4.737,4.737A4.7,4.7,0,0,1-373.967,339.353Z"/><path class="b" d="M-371.3,320.3a1.046,1.046,0,0,0-1.045,1.046,1.047,1.047,0,0,0,1.045,1.046,1.048,1.048,0,0,0,1.046-1.046A1.047,1.047,0,0,0-371.3,320.3Zm0,1.584a.538.538,0,0,1-.538-.538.538.538,0,0,1,.538-.539.539.539,0,0,1,.539.539A.539.539,0,0,1-371.3,321.879Z"/><path class="e" d="M-376.931,323.92a.46.46,0,0,0-.46.459v3.674a.46.46,0,0,0,.46.459.46.46,0,0,0,.459-.459v-3.674A.46.46,0,0,0-376.931,323.92Z"/><path class="e" d="M-369.8,326.53a.461.461,0,0,0-.326.133l-2.6,2.6a.456.456,0,0,0-.135.325.456.456,0,0,0,.135.325.471.471,0,0,0,.649,0l2.6-2.6a.452.452,0,0,0,.135-.325.456.456,0,0,0-.135-.326A.456.456,0,0,0-369.8,326.53Z"/><path class="e" d="M-383.875,326.663a.458.458,0,0,0-.325-.133.46.46,0,0,0-.325.133.459.459,0,0,0-.134.326.455.455,0,0,0,.134.325l2.6,2.6a.472.472,0,0,0,.65,0,.455.455,0,0,0,.134-.325.455.455,0,0,0-.134-.325Z"/><path class="e" d="M-360.886,339.606H-363l3.9-15.121a2.875,2.875,0,0,0-.017-1.51l-1.284-7.165a3.308,3.308,0,0,0-3.26-2.728h-26.685a3.31,3.31,0,0,0-3.26,2.728l-1.281,7.156a2.912,2.912,0,0,0-.018,1.519l3.9,15.121h-2.111A1.889,1.889,0,0,0-395,341.492v2.567a5.029,5.029,0,0,0,5.023,5.023h25.954A5.028,5.028,0,0,0-359,344.059v-2.567A1.888,1.888,0,0,0-360.886,339.606Zm-33.128-15.35a1.953,1.953,0,0,1,.35-1.7,1.954,1.954,0,0,1,1.553-.761H-374.5a.46.46,0,0,0,.46-.459.46.46,0,0,0-.46-.46h-17.615a2.88,2.88,0,0,0-1.11.22l-.429.178.951-5.307A2.39,2.39,0,0,1-390.344,314h26.685a2.39,2.39,0,0,1,2.355,1.971l.95,5.306-.428-.177a2.866,2.866,0,0,0-1.108-.22h-6.188a.46.46,0,0,0-.46.46.46.46,0,0,0,.46.459h6.188a1.954,1.954,0,0,1,1.553.761,1.952,1.952,0,0,1,.35,1.694l-3.959,15.351h-8.577l.3-.4a5.843,5.843,0,0,0,1.135-3.487A5.915,5.915,0,0,0-377,329.807a5.915,5.915,0,0,0-5.909,5.909,5.851,5.851,0,0,0,1.134,3.487l.3.4h-8.576Zm20.209,15.292-.071.058h-6.25l-.07-.058a4.972,4.972,0,0,1-1.794-3.832,5,5,0,0,1,4.989-4.99,5,5,0,0,1,4.991,4.99A4.973,4.973,0,0,1-373.8,339.548Zm13.885,4.511a4.108,4.108,0,0,1-4.1,4.1h-25.954a4.109,4.109,0,0,1-4.1-4.1v-2.567a.968.968,0,0,1,.967-.966h32.229a.967.967,0,0,1,.966.966Z"/><path class="e" d="M-371.3,320.8a.538.538,0,0,0-.538.539.538.538,0,0,0,.538.538.539.539,0,0,0,.539-.538A.539.539,0,0,0-371.3,320.8Z"/></g></g><path class="f" d="M-12.073-9.075h-1.133v7.227h1.133ZM-14.13-4.07a3.239,3.239,0,0,1-2.431-2.97V-7.4h2.123v-.913h-5.434V-7.4h2.156v.363A3.388,3.388,0,0,1-20.18-3.883l.594.88a4,4,0,0,0,2.464-2.3A3.928,3.928,0,0,0-14.7-3.179ZM-17.419-.264V-2.508h-1.144V.66h6.776V-.264Zm7.854-3.96A4.814,4.814,0,0,0-5.979-6.38a4.836,4.836,0,0,0,3.6,2.156l.407-.891c-1.892-.253-3.289-1.342-3.355-2.5h3v-.913H-9.642v.913h3.025c-.066,1.155-1.463,2.244-3.355,2.5ZM-1.48-3.5h-8.987v.913h3.894V.858H-5.44V-2.585h3.949ZM5.131-8.261H4v1.628A5,5,0,0,1,1.38-2.1l.671.946a5.163,5.163,0,0,0,2.53-3.2A4.959,4.959,0,0,0,7.045-1.375l.66-.9A4.812,4.812,0,0,1,5.131-6.633ZM8.5-9.1V.869H9.641V-9.1Zm5.808.924h-1.1V-6.38a4.969,4.969,0,0,1-2.09,4.312l.693.858a4.787,4.787,0,0,0,1.958-2.849A4.531,4.531,0,0,0,15.6-1.43l.638-.88a4.8,4.8,0,0,1-1.936-4.125ZM16.637-5.61H15.174v.924h1.463V.385H17.7V-8.9H16.637Zm2.024-3.476V.847h1.078V-9.086Z" transform="translate(305 545)"/></g></svg>