<svg xmlns="http://www.w3.org/2000/svg" xmlns:xlink="http://www.w3.org/1999/xlink" width="88" height="105" viewBox="0 0 88 105"><defs><style>.a,.d{fill:none;}.a{opacity:0.5;}.b{fill:#fff;}.c{fill:#36bebf;}.e{stroke:#000;stroke-miterlimit:10;stroke-width:0.15px;}.f{fill:#ececec;}.g{filter:url(#a);}</style><filter id="a" x="0" y="0" width="88" height="88" filterUnits="userSpaceOnUse"><feOffset dy="3" input="SourceAlpha"/><feGaussianBlur stdDeviation="4" result="b"/><feFlood flood-color="#0a0a0d" flood-opacity="0.902"/><feComposite operator="in" in2="b"/><feComposite in="SourceGraphic"/></filter></defs><g transform="translate(-179 -452)"><rect class="a" width="72.5" height="94" transform="translate(186 463)"/><g transform="translate(1066.506 240.876)"><g class="g" transform="matrix(1, 0, 0, 1, -887.51, 211.12)"><circle class="b" cx="32" cy="32" r="32" transform="translate(12 9)"/></g><g transform="translate(-456.302 44.9)"><path class="c" d="M-398.588,191.257h-.449l6.32,7.122-2.477-7.122-1.388-2.269Z"/><path class="c" d="M-383.417,186.619h-4.628l2.831,2.937-1.04,1.7-3.131-3.248-1.339-1.39h-3.766l-.509.576,1.444,2.361-1.64,1.7h2.4l3.272,9.406-.329.943.676.761,9.859-11.11Z"/><path class="b" d="M-396.01,191.437h-5.077a.65.65,0,0,1-.592-.383.649.649,0,0,1,.1-.7l2.983-3.376a.641.641,0,0,1,.542-.217.651.651,0,0,1,.5.3l2.093,3.376a.648.648,0,0,1,.016.659A.651.651,0,0,1-396.01,191.437Zm-3.635-1.3h2.467l-1.017-1.64Z"/><path class="b" d="M-389.744,202.946a.654.654,0,0,1-.334-.093.645.645,0,0,1-.185-.167.648.648,0,0,1-.457.188h0a.65.65,0,0,1-.609-.428l-3.8-10.5a.65.65,0,0,1,.079-.6.648.648,0,0,1,.532-.277h14.156a.65.65,0,0,1,.593.383.649.649,0,0,1-.107.7l-9.375,10.569A.648.648,0,0,1-389.744,202.946Zm-3.853-10.569,2.883,7.956,2.16-5.844a1.125,1.125,0,0,1,.759-.694,1.116,1.116,0,0,1-.221-.668,1.118,1.118,0,0,1,.288-.75Zm6.991,1.831a1.118,1.118,0,0,1,.153,1.057l-1.483,4.013,6.122-6.9h-4.251a1.114,1.114,0,0,1,.289.75A1.122,1.122,0,0,1-386.606,194.208Zm-.29-1.261a.179.179,0,0,0-.18.18c0,.2.359.2.36,0A.18.18,0,0,0-386.9,192.947Z"/><path class="b" d="M-387.337,191.437h-6.774a.651.651,0,0,1-.6-.4.65.65,0,0,1,.14-.708l3.387-3.408a.652.652,0,0,1,.461-.191h0a.648.648,0,0,1,.461.192l3.387,3.407a.65.65,0,0,1,.139.708A.649.649,0,0,1-387.337,191.437Zm-5.211-1.3h3.648l-1.824-1.835Z"/><path class="b" d="M-391.686,202.965a.65.65,0,0,1-.487-.218l-9.393-10.589a.651.651,0,0,1-.106-.7.65.65,0,0,1,.593-.383h5.555a.65.65,0,0,1,.611.428l3.838,10.589a.651.651,0,0,1-.279.78A.654.654,0,0,1-391.686,202.965Zm-7.948-10.588,6.178,6.964-2.524-6.964Z"/><path class="b" d="M-386.339,191.106a.65.65,0,0,1-.461-.191l-3.349-3.368a.65.65,0,0,1-.139-.708.651.651,0,0,1,.6-.4h5.438a.651.651,0,0,1,.568.334.648.648,0,0,1-.016.659l-2.089,3.367a.648.648,0,0,1-.479.3A.608.608,0,0,1-386.339,191.106Zm-1.786-3.367,1.667,1.676,1.04-1.676Z"/><path class="b" d="M-380.361,191.437h-5.077a.651.651,0,0,1-.568-.334.648.648,0,0,1,.016-.659l2.094-3.376a.649.649,0,0,1,.5-.3.634.634,0,0,1,.542.217l2.983,3.376a.65.65,0,0,1,.106.7A.652.652,0,0,1-380.361,191.437Zm-3.909-1.3h2.467l-1.449-1.64Z"/><path class="b" d="M-395.108,191.106a.625.625,0,0,1-.074,0,.646.646,0,0,1-.478-.3l-2.09-3.367a.651.651,0,0,1-.015-.659.651.651,0,0,1,.568-.334h5.437a.649.649,0,0,1,.6.4.65.65,0,0,1-.139.708l-3.348,3.368A.652.652,0,0,1-395.108,191.106Zm-.921-3.367,1.04,1.676,1.666-1.676Z"/><path class="d" d="M-380.527,190.712l-2.806-3.176-1.97,3.176Z"/><path class="d" d="M-391.94,187.164h-5.122l1.968,3.172Z"/><path class="d" d="M-390.719,202.006l2.7-7.318a.556.556,0,0,1,.7-.323.547.547,0,0,1,.323.7l-2.543,6.883,9-10.146h-13.882Z"/><path class="d" d="M-387.517,190.712l-3.207-3.226-3.208,3.226Z"/><path class="d" d="M-398.114,187.537l-2.806,3.175h4.775Z"/><path class="d" d="M-400.912,191.8l9.021,10.17-3.686-10.17Z"/><path class="d" d="M-389.507,187.164l3.154,3.172,1.968-3.172Z"/><path class="b" d="M-391.76,187.089H-397.2l2.089,3.367Zm-.18.075-3.154,3.172-1.969-3.172Z"/><path class="b" d="M-398.1,187.411l-2.983,3.376h5.077Zm-.01.126,1.969,3.175h-4.775Z"/><path class="b" d="M-389.688,187.089l3.349,3.367,2.089-3.367Zm3.335,3.247-3.154-3.172h5.122Z"/><path class="b" d="M-387.337,190.787l-3.387-3.407-3.387,3.407Zm-.18-.075h-6.414l3.207-3.226Z"/><path class="b" d="M-390.72,202.224l2.776-7.51a.471.471,0,0,1,.6-.279.471.471,0,0,1,.277.6l-2.681,7.257,9.376-10.569h-14.156Zm1.185-.276,2.543-6.883a.547.547,0,0,0-.323-.7.556.556,0,0,0-.7.323l-2.7,7.318-3.7-10.2h13.882Z"/><path class="b" d="M-385.438,190.787h5.077l-2.983-3.376Zm4.911-.075H-385.3l1.97-3.176Z"/><path class="b" d="M-401.079,191.727l9.392,10.588-3.837-10.588Zm.167.075h5.335l3.686,10.17Z"/><path class="b" d="M-383.355,187.286l-2.147,3.461-.071.115h5.379l-3.094-3.5Zm-2.083,3.5,2.094-3.376,2.983,3.376Z"/><path class="b" d="M-384.186,187.128l.071-.114h-5.753l3.542,3.563Zm-5.5-.039h5.438l-2.089,3.367Z"/><path class="b" d="M-398.093,187.286l-3.16,3.576h5.378Zm-.011.125,2.094,3.376h-5.077Z"/><path class="b" d="M-395.122,190.577l3.542-3.563h-5.752l2.16,3.482Zm3.362-3.488-3.348,3.367-2.089-3.367Z"/><path class="b" d="M-395.471,191.652h-5.775l9.763,11.007-3.971-10.957Zm-5.608.075h5.555l3.837,10.588Z"/><path class="b" d="M-390.72,202.442l2.846-7.7a.4.4,0,0,1,.508-.234.4.4,0,0,1,.233.508l-2.819,7.63,9.751-10.992h-14.43Zm.976-.146,2.681-7.257a.471.471,0,0,0-.277-.6.471.471,0,0,0-.6.279l-2.776,7.51-3.8-10.5h14.156Z"/><path class="b" d="M-387.157,190.862l-3.567-3.589-3.568,3.589Zm-.18-.075h-6.774l3.387-3.407Z"/><path class="e" d="M-386.9,193.6a.471.471,0,0,0,.47-.47.471.471,0,0,0-.47-.471.47.47,0,0,0-.47.471A.47.47,0,0,0-386.9,193.6Z"/><path class="e" d="M-383.121,186.357a.394.394,0,0,0-.3-.133H-398.03a.4.4,0,0,0-.3.133l-4.1,4.638a.4.4,0,0,0-.064.424.384.384,0,0,0,.1.136l.013.015,11.355,12.8a.409.409,0,0,0,.592,0l11.375-12.821a.4.4,0,0,0,.1-.131.4.4,0,0,0-.065-.424Zm-.994.657-.071.114-2.14,3.449-3.542-3.563Zm-3.042,3.848h-7.135l3.568-3.589Zm-4.423-3.848-3.542,3.563-.05-.081-2.16-3.482Zm-6.513.272,2.218,3.576h-5.378Zm-3.153,4.366h5.775l.017.05,3.971,10.957Zm11.294,10.992,2.819-7.63a.4.4,0,0,0-.233-.508.4.4,0,0,0-.508.234l-2.846,7.7-3.911-10.79h14.43Zm4.379-11.782.071-.115,2.147-3.461.067.075,3.094,3.5Z"/><path class="c" d="M-380.159,202.011l-.317-.317-.567,9.5,3.285-6.788.623-2.586Z"/><path class="c" d="M-366.152,209.459l-3.272-3.272-.075,4.079-1.938.467.083-4.511.036-1.93-2.663-2.663-.768.047-.648,2.69-2.362.043,1.7,1.7-4.337,8.964-.9.435-.061,1.016,14.828-.884Z"/><path class="b" d="M-378.463,203.962l-3.59-3.59a.653.653,0,0,1-.148-.69.65.65,0,0,1,.568-.418l4.5-.278a.646.646,0,0,1,.537.229.652.652,0,0,1,.136.568l-.907,3.867a.648.648,0,0,1-.454.477A.651.651,0,0,1-378.463,203.962Zm-1.651-3.489,1.744,1.744.441-1.88Z"/><path class="b" d="M-382.17,216.53a.65.65,0,0,1-.171-.3.638.638,0,0,1-.013-.249.649.649,0,0,1-.456-.191h0a.651.651,0,0,1-.128-.733l4.732-10.113a.654.654,0,0,1,.477-.365.649.649,0,0,1,.572.181l10.01,10.01a.649.649,0,0,1,.148.69.649.649,0,0,1-.569.418l-14.1.844A.65.65,0,0,1-382.17,216.53Zm4.749-10.2L-381.009,214l5.66-2.6a1.126,1.126,0,0,1,1.028.046,1.105,1.105,0,0,1,.316-.629,1.118,1.118,0,0,1,.733-.327Zm3.648,6.239a1.116,1.116,0,0,1-.639.855l-3.886,1.79,9.209-.552-3.006-3.005a1.118,1.118,0,0,1-.327.734A1.12,1.12,0,0,1-373.773,212.571Zm.687-1.1a.179.179,0,0,0-.255,0c-.139.138.115.393.254.254A.179.179,0,0,0-373.086,211.474Z"/><path class="b" d="M-372.33,210.094l-4.791-4.79a.651.651,0,0,1-.141-.707.651.651,0,0,1,.6-.4l4.8-.013a.652.652,0,0,1,.461.19h0a.647.647,0,0,1,.19.462l-.014,4.8a.65.65,0,0,1-.4.6A.649.649,0,0,1-372.33,210.094Zm-2.766-4.6,2.58,2.58.008-2.587Z"/><path class="b" d="M-383.557,215.171a.645.645,0,0,1-.19-.5l.846-14.129a.647.647,0,0,1,.418-.568.649.649,0,0,1,.69.148l3.928,3.928a.651.651,0,0,1,.13.735l-4.774,10.2a.65.65,0,0,1-.749.355A.65.65,0,0,1-383.557,215.171Zm1.867-13.107-.556,9.293,3.14-6.709Z"/><path class="b" d="M-371.391,210.566a.652.652,0,0,1-.191-.461l.014-4.749a.651.651,0,0,1,.4-.6.649.649,0,0,1,.708.141l3.845,3.845a.651.651,0,0,1,.165.638.65.65,0,0,1-.477.454l-3.859.9a.648.648,0,0,1-.553-.124A.63.63,0,0,1-371.391,210.566Zm1.119-3.644-.007,2.364,1.921-.45Z"/><path class="b" d="M-367.4,215.027l-3.589-3.59a.652.652,0,0,1-.166-.638.649.649,0,0,1,.477-.454l3.868-.907a.651.651,0,0,1,.567.137.636.636,0,0,1,.23.537l-.278,4.5a.652.652,0,0,1-.419.568A.651.651,0,0,1-367.4,215.027Zm-1.845-3.683,1.745,1.745.136-2.185Z"/><path class="b" d="M-377.591,204.366a.65.65,0,0,1-.05-.055.651.651,0,0,1-.124-.553l.9-3.859a.648.648,0,0,1,.455-.476.647.647,0,0,1,.637.165l3.846,3.845a.651.651,0,0,1,.141.707.65.65,0,0,1-.6.4l-4.749.015A.653.653,0,0,1-377.591,204.366Zm1.729-3.033-.45,1.921,2.364-.007Z"/><path class="d" d="M-367,214.4l.262-4.229-3.639.852Z"/><path class="d" d="M-372.564,203.818l-3.623-3.623-.851,3.635Z"/><path class="d" d="M-382.2,215.176l7.087-3.262a.556.556,0,0,1,.723.267.547.547,0,0,1-.267.723l-6.665,3.068,13.538-.81-9.816-9.816Z"/><path class="d" d="M-371.945,209.454l.013-4.548-4.549.013Z"/><path class="d" d="M-377.193,199.716l-4.229.261,3.377,3.377Z"/><path class="d" d="M-382.187,200.753-383,214.324l4.584-9.8Z"/><path class="d" d="M-370.844,205.538l-.013,4.474,3.635-.851Z"/><path class="b" d="M-372.383,203.893l-3.845-3.846-.9,3.859Zm-.181-.075-4.473.013.851-3.635Z"/><path class="b" d="M-377.1,199.635l-4.5.278L-378,203.5Zm-.1.081-.852,3.638-3.377-3.377Z"/><path class="b" d="M-370.918,205.358l-.014,4.748,3.859-.9Zm.061,4.654.013-4.474,3.623,3.623Z"/><path class="b" d="M-371.871,209.635l.014-4.8-4.8.014Zm-.074-.181-4.536-4.535,4.549-.013Z"/><path class="b" d="M-382.35,215.33l7.273-3.348a.47.47,0,0,1,.624.23.471.471,0,0,1-.231.624l-7.027,3.235,14.1-.844-10.009-10.009Zm1.033.642,6.665-3.068a.547.547,0,0,0,.267-.723.556.556,0,0,0-.723-.267l-7.087,3.262,4.6-9.83,9.816,9.816Z"/><path class="b" d="M-370.528,210.977l3.59,3.591.278-4.5ZM-367,214.4l-3.376-3.378,3.638-.852Z"/><path class="b" d="M-382.253,200.582l-.845,14.129,4.774-10.2Zm.065.171,3.773,3.773-4.585,9.8Z"/><path class="b" d="M-366.579,209.976l-3.966.928-.131.031,3.8,3.8.289-4.663Zm-3.949,1,3.868-.906-.278,4.5Z"/><path class="b" d="M-367.056,209.276l.132-.031-4.068-4.068-.015,5.024Zm-3.862-3.918,3.845,3.845-3.859.9Z"/><path class="b" d="M-377,199.554l-4.763.294,3.8,3.8Zm-.1.081L-378,203.5l-3.589-3.589Z"/><path class="b" d="M-377.227,203.981l5.024-.014-4.067-4.068-.935,3.99Zm4.844-.088-4.749.013.9-3.859Z"/><path class="b" d="M-378.234,204.495l-4.083-4.084L-383.2,215.1l4.939-10.556Zm-4.019-3.913,3.929,3.928-4.774,10.2Z"/><path class="b" d="M-382.5,215.484l7.459-3.434a.4.4,0,0,1,.524.194.4.4,0,0,1-.194.524l-7.389,3.4,14.667-.878-10.2-10.2Zm.793.587,7.027-3.235a.471.471,0,0,0,.231-.624.47.47,0,0,0-.624-.23l-7.273,3.348,4.733-10.112,10.009,10.009Z"/><path class="b" d="M-371.8,209.815l.015-5.059-5.06.014Zm-.075-.18-4.79-4.79,4.8-.014Z"/><path class="e" d="M-365.757,209.483a.4.4,0,0,0-.116-.3l-10.333-10.333a.4.4,0,0,0-.3-.116l-6.178.381a.4.4,0,0,0-.346.255.4.4,0,0,0-.024.168v.021l-1.022,17.08a.408.408,0,0,0,.418.418l17.109-1.022a.4.4,0,0,0,.16-.025.4.4,0,0,0,.254-.346Zm-1.167-.238-.132.031-3.951.925.015-5.024Zm-4.872.57-5.045-5.045,5.06-.014Zm-.407-5.848-5.024.014.022-.092.935-3.99Zm-4.8-4.413-.961,4.1-3.8-3.8Zm-5.316.857,4.083,4.084-.023.047L-383.2,215.1Zm.213,15.759,7.389-3.4a.4.4,0,0,0,.194-.524.4.4,0,0,0-.524-.194l-7.459,3.434,4.864-10.395,10.2,10.2Zm11.428-5.235.131-.031,3.966-.928-.006.1-.289,4.663Z"/><path class="e" d="M-373.545,211.934a.47.47,0,0,0,.664,0,.472.472,0,0,0,0-.666.471.471,0,0,0-.665,0A.47.47,0,0,0-373.545,211.934Z"/><path class="c" d="M-401.924,222.3l-.317.317,9.5.568-6.788-3.285-2.586-.623Z"/><path class="c" d="M-394.475,208.3l-3.272,3.271,4.079.075.467,1.938-4.51-.082-1.93-.036-2.663,2.663.047.768,2.69.648.043,2.362,1.7-1.7,8.964,4.337.435.9,1.016.061-.884-14.828Z"/><path class="b" d="M-399.973,220.606l-3.59,3.59a.651.651,0,0,1-.69.149.65.65,0,0,1-.418-.568l-.278-4.5a.641.641,0,0,1,.229-.537.65.65,0,0,1,.568-.137l3.868.908a.648.648,0,0,1,.476.454A.649.649,0,0,1-399.973,220.606Zm-3.489,1.651,1.744-1.743-1.879-.441Z"/><path class="b" d="M-387.4,224.314a.649.649,0,0,1-.3.171.678.678,0,0,1-.249.013.647.647,0,0,1-.191.455v0a.652.652,0,0,1-.733.128l-10.113-4.733a.654.654,0,0,1-.365-.477.65.65,0,0,1,.181-.571l10.01-10.011a.653.653,0,0,1,.69-.148.651.651,0,0,1,.418.57l.844,14.1A.652.652,0,0,1-387.4,224.314Zm-10.2-4.749,7.665,3.588-2.605-5.66a1.126,1.126,0,0,1,.046-1.028,1.118,1.118,0,0,1-.629-.316,1.12,1.12,0,0,1-.327-.734Zm6.239-3.649a1.119,1.119,0,0,1,.855.639l1.79,3.887-.552-9.209-3.005,3.006a1.118,1.118,0,0,1,.734.327A1.119,1.119,0,0,1-391.364,215.916Zm-1.1-.686a.18.18,0,0,0,0,.254c.139.14.394-.114.255-.254A.181.181,0,0,0-392.462,215.23Z"/><path class="b" d="M-393.841,214.474l-4.79,4.79a.647.647,0,0,1-.707.141.649.649,0,0,1-.4-.6l-.013-4.805a.656.656,0,0,1,.19-.462h0a.642.642,0,0,1,.462-.189l4.8.014a.649.649,0,0,1,.6.4A.649.649,0,0,1-393.841,214.474Zm-4.6,2.766,2.58-2.58-2.587-.009Z"/><path class="b" d="M-388.764,225.7a.644.644,0,0,1-.5.19l-14.129-.846a.648.648,0,0,1-.568-.418.651.651,0,0,1,.148-.691l3.928-3.927a.649.649,0,0,1,.735-.13l10.2,4.774a.649.649,0,0,1,.355.748A.653.653,0,0,1-388.764,225.7Zm-13.107-1.868,9.293.557-6.709-3.141Z"/><path class="b" d="M-393.369,213.535a.652.652,0,0,1-.461.19l-4.749-.013a.652.652,0,0,1-.6-.4.649.649,0,0,1,.141-.708l3.845-3.844a.652.652,0,0,1,.638-.166.651.651,0,0,1,.454.477l.9,3.859a.647.647,0,0,1-.124.553C-393.336,213.5-393.352,213.518-393.369,213.535Zm-3.644-1.119,2.364.006-.45-1.92Z"/><path class="b" d="M-388.908,209.541l-3.59,3.59a.652.652,0,0,1-.638.166.649.649,0,0,1-.454-.477l-.907-3.868a.647.647,0,0,1,.137-.567.633.633,0,0,1,.537-.23l4.5.278a.652.652,0,0,1,.567.418A.653.653,0,0,1-388.908,209.541Zm-3.683,1.845,1.745-1.744-2.185-.136Z"/><path class="b" d="M-399.569,219.735c-.018.018-.036.033-.055.049a.644.644,0,0,1-.553.124l-3.859-.9a.648.648,0,0,1-.476-.454.649.649,0,0,1,.165-.638l3.844-3.845a.651.651,0,0,1,.708-.141.649.649,0,0,1,.4.6l.014,4.749A.652.652,0,0,1-399.569,219.735Zm-3.033-1.729,1.921.449-.008-2.363Z"/><path class="d" d="M-389.538,209.146l-4.229-.261.852,3.639Z"/><path class="d" d="M-400.117,214.707l-3.623,3.623,3.635.851Z"/><path class="d" d="M-388.759,224.339l-3.262-7.087a.555.555,0,0,1,.267-.723.546.546,0,0,1,.723.267l3.068,6.664-.81-13.537-9.816,9.816Z"/><path class="d" d="M-394.481,214.089l-4.548-.013.013,4.549Z"/><path class="d" d="M-404.219,219.336l.262,4.23,3.377-3.377Z"/><path class="d" d="M-403.182,224.331l13.571.811-9.8-4.584Z"/><path class="d" d="M-398.4,212.987l4.474.013-.851-3.635Z"/><path class="b" d="M-400.043,214.527l-3.845,3.845,3.859.9Zm-.074.18.013,4.474-3.635-.851Z"/><path class="b" d="M-404.3,219.24l.277,4.5,3.59-3.59Zm.081.1,3.638.853-3.377,3.377Z"/><path class="b" d="M-398.577,213.062l4.748.013-.9-3.859Zm4.654-.062-4.474-.013,3.622-3.622Z"/><path class="b" d="M-394.3,214.015l-4.8-.015.014,4.8Zm-.181.074-4.535,4.535-.013-4.548Z"/><path class="b" d="M-388.605,224.494l-3.348-7.273a.47.47,0,0,1,.23-.624.471.471,0,0,1,.624.23l3.236,7.027-.845-14.1-10.009,10.01Zm.642-1.034-3.068-6.664a.546.546,0,0,0-.723-.267.555.555,0,0,0-.267.723l3.262,7.087-9.83-4.6,9.816-9.816Z"/><path class="b" d="M-392.958,212.672l3.591-3.59-4.5-.278Zm3.42-3.526-3.378,3.377-.851-3.638Z"/><path class="b" d="M-403.353,224.4l14.129.846-10.2-4.774Zm.171-.065,3.774-3.772,9.8,4.584Z"/><path class="b" d="M-393.959,208.723l.928,3.966.031.131,3.8-3.8-4.663-.289Zm1,3.949-.9-3.868,4.5.278Z"/><path class="b" d="M-394.659,209.2l-.032-.132-4.067,4.068,5.024.014Zm-3.918,3.862,3.845-3.846.9,3.859Z"/><path class="b" d="M-404.381,219.144l.294,4.764,3.8-3.8Zm.081.1,3.867.907-3.59,3.59Z"/><path class="b" d="M-399.954,219.37l-.014-5.023-4.068,4.067,3.991.935Zm-.089-4.843.014,4.748-3.859-.9Z"/><path class="b" d="M-399.441,220.378l-4.083,4.083,14.687.879-10.556-4.94Zm-3.912,4.018,3.928-3.928,10.2,4.774Z"/><path class="b" d="M-388.451,224.648l-3.434-7.459a.4.4,0,0,1,.194-.525.4.4,0,0,1,.523.195l3.4,7.388-.878-14.667-10.2,10.2Zm.588-.794-3.236-7.027a.471.471,0,0,0-.624-.23.47.47,0,0,0-.23.624l3.348,7.273-10.112-4.733,10.009-10.01Z"/><path class="b" d="M-394.12,213.94l-5.059-.015.014,5.06Zm-.18.075-4.79,4.79-.014-4.8Z"/><path class="e" d="M-392,215.689a.468.468,0,0,0,0-.664.47.47,0,0,0-.665,0,.47.47,0,0,0,0,.664A.47.47,0,0,0-392,215.689Z"/><path class="e" d="M-394.452,207.9a.389.389,0,0,0-.3.116l-10.334,10.333a.4.4,0,0,0-.116.3l.381,6.178a.4.4,0,0,0,.255.345.374.374,0,0,0,.168.024h.021l17.08,1.023a.408.408,0,0,0,.418-.418L-387.9,208.7a.4.4,0,0,0-.025-.16.4.4,0,0,0-.346-.255Zm-.239,1.167.032.132.925,3.95-5.024-.014Zm.571,4.872-5.045,5.045-.014-5.06Zm-5.848.407.014,5.023-.091-.021-3.991-.935Zm-4.413,4.8,4.1.961-3.8,3.8Zm.857,5.317,4.083-4.083.048.022,10.556,4.94Zm15.759-.214-3.4-7.388a.4.4,0,0,0-.523-.195.4.4,0,0,0-.194.525l3.434,7.459-10.4-4.865,10.2-10.2ZM-393,212.82l-.031-.131-.928-3.966.1.006,4.663.289Z"/></g></g><path class="f" d="M-25.8-4.114a3.222,3.222,0,0,1-1.936-3v-1.21h-1.144v1.21a3.443,3.443,0,0,1-1.386,2.794,3.51,3.51,0,0,1-1.408-2.794v-1.21H-32.8v1.21a3.329,3.329,0,0,1-1.936,3l.594.847a3.68,3.68,0,0,0,1.9-2.1,3.812,3.812,0,0,0,1.969,2.233,3.726,3.726,0,0,0,1.98-2.211,3.508,3.508,0,0,0,1.9,2.079Zm-8.976,2.75v.935h9.031v-.935Zm9.757.033V-.4h9v-.935ZM-24-8.4v5.236h6.952V-8.4h-1.122v1.738H-22.88V-8.4Zm1.122,2.64h4.708v1.683H-22.88Zm11.22-1.463h3.487v-.924h-4.62v6.567h.814a24.516,24.516,0,0,0,4.642-.33l-.121-.935a23.982,23.982,0,0,1-4.2.319Zm7.711,1.958H-5.5V-9.1H-6.633V.858H-5.5V-4.334h1.551ZM3.575-9.1V.869H4.719V-9.1ZM-.572-8.36c-1.474,0-2.552,1.364-2.552,3.5,0,2.156,1.078,3.509,2.552,3.509S1.991-2.706,1.991-4.862C1.991-7,.913-8.36-.572-8.36Zm0,1.023C.3-7.337.9-6.4.9-4.862.9-3.3.3-2.365-.572-2.365s-1.463-.935-1.463-2.5C-2.035-6.4-1.43-7.337-.572-7.337ZM8.921-2.365c-.869,0-1.463-.935-1.463-2.486s.594-2.486,1.463-2.486,1.463.935,1.463,2.486S9.779-2.365,8.921-2.365Zm0-6C7.436-8.36,6.369-7,6.369-4.851s1.067,3.5,2.552,3.5,2.552-1.353,2.552-3.5S10.406-8.36,8.921-8.36Zm6.6,3.157H13.97V-9.086H12.837V.858H13.97V-4.268h1.551Zm2.761,2.992H17.138V.66h6.853V-.264H18.282ZM18.26-7.722h4.477v1.771H18.26Zm2.805,3.839V-5.038h2.783V-8.624h-6.7v3.586h2.772v1.155H16v.913h9v-.913ZM33.737-4.4H27.984V-7.293H33.66v-.924H26.851v4.73h6.886ZM25.751-1.364v.935H34.76v-.935ZM-5.7,3.739H-6.836V5.367A5,5,0,0,1-9.455,9.9l.671.946a5.163,5.163,0,0,0,2.53-3.2,4.959,4.959,0,0,0,2.464,2.981l.66-.9A4.812,4.812,0,0,1-5.7,5.367ZM-2.337,2.9v9.966h1.144V2.9Zm5.753.924h-1.1V5.62A4.969,4.969,0,0,1,.225,9.932l.693.858A4.787,4.787,0,0,0,2.877,7.941,4.531,4.531,0,0,0,4.714,10.57l.638-.88A4.8,4.8,0,0,1,3.415,5.565ZM5.747,6.39H4.285v.924H5.747v5.071H6.815V3.1H5.747ZM7.772,2.914v9.933H8.849V2.914Z" transform="translate(222 540)"/></g></svg>