<svg xmlns="http://www.w3.org/2000/svg" xmlns:xlink="http://www.w3.org/1999/xlink" width="88" height="105" viewBox="0 0 88 105"><defs><style>.a,.d{fill:none;}.a{opacity:0.5;}.b{fill:#fff;}.c{fill:#36bebf;}.e{stroke:#000;stroke-miterlimit:10;stroke-width:0.1px;}.f{fill:#ececec;}.g{filter:url(#a);}</style><filter id="a" x="0" y="0" width="88" height="88" filterUnits="userSpaceOnUse"><feOffset dy="3" input="SourceAlpha"/><feGaussianBlur stdDeviation="4" result="b"/><feFlood flood-color="#0a0a0d" flood-opacity="0.902"/><feComposite operator="in" in2="b"/><feComposite in="SourceGraphic"/></filter></defs><g transform="translate(-95 -451)"><rect class="a" width="72.5" height="94" transform="translate(103 462)"/><g transform="translate(899.829 240.876)"><g class="g" transform="matrix(1, 0, 0, 1, -804.83, 210.12)"><circle class="b" cx="32" cy="32" r="32" transform="translate(12 9)"/></g><g transform="translate(-429.624 -77.958)"><path class="c" d="M-344.761,326.922h-.758l10.673,12.026-4.183-12.026-2.344-3.833Z"/><path class="c" d="M-319.142,319.09h-7.814l4.781,4.96-1.757,2.872-5.287-5.485-2.262-2.347h-6.359l-.86.973,2.438,3.987-2.768,2.872h4.048l5.525,15.884-.554,1.592,1.14,1.285,16.65-18.761Z"/><path class="d" d="M-348.233,328.047l14.228,16.039-5.812-16.039Z"/><path class="d" d="M-343.989,320.979l-4.258,4.819H-341Z"/><path class="d" d="M-331.471,344.481l4.375-11.836a1.149,1.149,0,0,1,1.443-.665,1.127,1.127,0,0,1,.665,1.444l-3.919,10.607,14.179-15.984h-22.7Z"/><path class="d" d="M-326.555,325.8l-4.925-4.956-4.926,4.956Z"/><path class="d" d="M-328.937,320.214l4.8,4.828,2.995-4.828Z"/><path class="d" d="M-334.025,320.214h-7.794l2.995,4.828Z"/><path class="d" d="M-314.713,325.8l-4.258-4.819-2.99,4.819Z"/><path class="b" d="M-325.761,326.129l-5.72-5.755-5.719,5.755Zm-.794-.331h-9.851l4.925-4.955Z"/><path class="b" d="M-329.73,319.884l5.653,5.687,3.528-5.687Zm5.593,5.158-4.8-4.828h7.794Z"/><path class="b" d="M-343.942,320.428l-5.038,5.7h8.573Zm-.047.551L-341,325.8h-7.248Z"/><path class="b" d="M-331.474,345.442l4.687-12.682a.8.8,0,0,1,1.02-.47.8.8,0,0,1,.469,1.02l-4.527,12.254,15.831-17.848h-23.9Zm2.567-1.411,3.919-10.607a1.127,1.127,0,0,0-.665-1.444,1.149,1.149,0,0,0-1.443.665l-4.375,11.836-5.955-16.434h22.7Z"/><path class="b" d="M-348.967,327.716l15.86,17.881-6.479-17.881Zm.734.331h8.415l5.813,16.039Z"/><path class="b" d="M-313.981,326.129l-5.037-5.7-3.536,5.7Zm-4.99-5.15,4.258,4.819h-7.248Z"/><path class="b" d="M-333.231,319.884h-9.181l3.528,5.687Zm-.794.33-4.8,4.828-2.994-4.828Z"/><path class="b" d="M-323.148,326.459h9.9l-5.816-6.582Zm9.167-.33h-8.573l3.536-5.7Z"/><path class="b" d="M-343.9,319.877l-5.816,6.582h9.9Zm-.046.551,3.535,5.7h-8.573Z"/><path class="b" d="M-319.956,319.554h-10.568l6.507,6.547Zm-9.774.33h9.181l-3.528,5.687Z"/><path class="b" d="M-324.967,326.459l-6.514-6.553-6.513,6.553Zm-.794-.33H-337.2l5.719-5.755Z"/><path class="b" d="M-331.477,346.4l5-13.529a.471.471,0,0,1,.6-.274.463.463,0,0,1,.274.6l-5.136,13.9,17.484-19.711h-25.108Zm1.652-.839,4.527-12.254a.8.8,0,0,0-.469-1.02.8.8,0,0,0-1.02.47l-4.687,12.682-6.424-17.726h23.9Z"/><path class="b" d="M-332.437,319.554h-10.568l4.061,6.547Zm-.794.33-5.653,5.687-3.528-5.687Z"/><path class="b" d="M-349.7,327.386l17.493,19.721-7.147-19.721Zm.734.33h9.381l6.479,17.881Z"/><path class="b" d="M-325.017,328.981a1.1,1.1,0,0,0-1.1,1.1,1.1,1.1,0,0,0,1.1,1.1,1.1,1.1,0,0,0,1.1-1.1A1.1,1.1,0,0,0-325.017,328.981Zm0,1.588a.49.49,0,0,1-.489-.489.49.49,0,0,1,.489-.49.491.491,0,0,1,.489.49A.49.49,0,0,1-325.017,330.569Z"/><path class="e" d="M-331.481,309.082a.49.49,0,0,0-.489.489v4.089a.49.49,0,0,0,.489.489.49.49,0,0,0,.49-.489v-4.089A.491.491,0,0,0-331.481,309.082Z"/><path class="e" d="M-324.468,312.13a.486.486,0,0,0-.346-.143.49.49,0,0,0-.346.143l-2.89,2.891a.487.487,0,0,0-.144.347.483.483,0,0,0,.144.345.5.5,0,0,0,.691,0l2.892-2.891A.49.49,0,0,0-324.468,312.13Z"/><path class="e" d="M-337.956,312.13a.488.488,0,0,0-.346-.143.49.49,0,0,0-.347.143.491.491,0,0,0,0,.692l2.893,2.891a.5.5,0,0,0,.691,0,.491.491,0,0,0,0-.692Z"/><path class="e" d="M-318.8,318.784a.46.46,0,0,0-.347-.157h-24.677a.466.466,0,0,0-.348.156l-6.921,7.832a.466.466,0,0,0-.076.5.469.469,0,0,0,.12.16l19.217,21.66a.477.477,0,0,0,.693,0l19.182-21.624a.6.6,0,0,0,.155-.2.467.467,0,0,0-.076-.5Zm-1.161.77-4.061,6.547-6.507-6.547Zm-5.011,6.905h-13.027l6.513-6.553Zm-7.47-6.905-6.507,6.547-4.061-6.547Zm-11.459.323,4.083,6.582h-9.9Zm-5.8,7.509h10.346l7.147,19.721Zm18.957,19.711,5.136-13.9a.463.463,0,0,0-.274-.6.471.471,0,0,0-.6.274l-5,13.529-6.891-19.017h25.108Zm7.6-20.638,4.083-6.582,5.816,6.582Z"/><path class="e" d="M-325.017,329.59a.49.49,0,0,0-.489.49.49.49,0,0,0,.489.489.49.49,0,0,0,.489-.489A.491.491,0,0,0-325.017,329.59Z"/></g></g><path class="f" d="M-22.55-7.227h3.487v-.924h-4.62v6.567h.814a24.516,24.516,0,0,0,4.642-.33l-.121-.935a23.982,23.982,0,0,1-4.2.319Zm7.711,1.958H-16.39V-9.1h-1.133V.858h1.133V-4.334h1.551ZM-7.26-9.1V.869h1.144V-9.1Zm-4.147.737c-1.474,0-2.552,1.364-2.552,3.5,0,2.156,1.078,3.509,2.552,3.509s2.563-1.353,2.563-3.509C-8.844-7-9.922-8.36-11.407-8.36Zm0,1.023c.869,0,1.474.935,1.474,2.475,0,1.562-.605,2.5-1.474,2.5s-1.463-.935-1.463-2.5C-12.87-6.4-12.265-7.337-11.407-7.337Zm9.548,4.972c-.869,0-1.463-.935-1.463-2.486s.594-2.486,1.463-2.486S-.4-6.4-.4-4.851-1-2.365-1.859-2.365Zm0-6C-3.344-8.36-4.411-7-4.411-4.851s1.067,3.5,2.552,3.5S.693-2.706.693-4.851-.374-8.36-1.859-8.36ZM4.741-5.2H3.19V-9.086H2.057V.858H3.19V-4.268H4.741ZM7.557-2.211H6.413V.66h6.853V-.264H7.557ZM7.535-7.722h4.477v1.771H7.535ZM10.34-3.883V-5.038h2.783V-8.624h-6.7v3.586H9.2v1.155H5.28v.913h9v-.913ZM23.067-4.4H17.314V-7.293H22.99v-.924H16.181v4.73h6.886ZM15.081-1.364v.935H24.09v-.935Zm-20.812,5.1H-6.864V5.367A5,5,0,0,1-9.482,9.9l.671.946a5.163,5.163,0,0,0,2.53-3.2,4.959,4.959,0,0,0,2.464,2.981l.66-.9A4.812,4.812,0,0,1-5.731,5.367ZM-2.365,2.9v9.966h1.144V2.9Zm5.808.924h-1.1V5.62A4.969,4.969,0,0,1,.253,9.932l.693.858A4.787,4.787,0,0,0,2.9,7.941,4.531,4.531,0,0,0,4.741,10.57l.638-.88A4.8,4.8,0,0,1,3.443,5.565ZM5.775,6.39H4.312v.924H5.775v5.071H6.842V3.1H5.775ZM7.8,2.914v9.933H8.877V2.914Z" transform="translate(140 539)"/></g></svg>