<svg xmlns="http://www.w3.org/2000/svg" width="80" height="30" viewBox="0 0 80 30"><defs><style>.a,.e{fill:none;}.a{stroke:#7886c3;}.b,.c{fill:#7886c3;}.b{font-size:14px;font-family:NotoSansCJKkr-Medium, Noto Sans CJK KR;font-weight:500;letter-spacing:-0.05em;}.d{stroke:none;}</style></defs><g transform="translate(-268 -753)"><g class="a" transform="translate(268 753)"><rect class="d" width="80" height="30" rx="15"/><rect class="e" x="0.5" y="0.5" width="79" height="29" rx="14.5"/></g><g transform="translate(2.001)"><text class="b" transform="translate(315 773)"><tspan x="-18.62" y="0">초기화</tspan></text><g transform="translate(-171.097 312.118)"><path class="c" d="M461.484,451.707V453c-.091-.161-.192-.318-.3-.47a6.215,6.215,0,0,0-11.13,2.112.8.8,0,0,0,.594.971.774.774,0,0,0,.189.023.805.805,0,0,0,.783-.617,4.6,4.6,0,0,1,4.476-3.522,4.563,4.563,0,0,1,2.767.924,4.667,4.667,0,0,1,1.307,1.536h-.893a.806.806,0,0,0,0,1.612h3.011a.807.807,0,0,0,.807-.806v-3.053a.806.806,0,0,0-1.613,0Z"/><path class="c" d="M449.9,461.292a.8.8,0,0,0,.8-.806v-1.294a6.218,6.218,0,0,0,5.385,3.119h.009a6.217,6.217,0,0,0,6.036-4.755.806.806,0,0,0-1.567-.377A4.594,4.594,0,0,1,456.1,460.7a4.609,4.609,0,0,1-4.074-2.46h.891a.805.805,0,1,0,0-1.611H449.9a.806.806,0,0,0-.806.806v3.051A.806.806,0,0,0,449.9,461.292Z"/></g></g></g></svg>