<svg xmlns="http://www.w3.org/2000/svg" width="72.5" height="94" viewBox="0 0 72.5 94"><defs><style>.a{fill:none;opacity:0.5;}.b{fill:#ececec;}.c{fill:#fff;}.d{fill:#82d9d0;}</style></defs><g transform="translate(-103 -462)"><rect class="a" width="72.5" height="94" transform="translate(103 462)"/><path class="b" d="M-22.55-7.227h3.487v-.924h-4.62v6.567h.814a24.516,24.516,0,0,0,4.642-.33l-.121-.935a23.982,23.982,0,0,1-4.2.319Zm7.711,1.958H-16.39V-9.1h-1.133V.858h1.133V-4.334h1.551ZM-7.26-9.1V.869h1.144V-9.1Zm-4.147.737c-1.474,0-2.552,1.364-2.552,3.5,0,2.156,1.078,3.509,2.552,3.509s2.563-1.353,2.563-3.509C-8.844-7-9.922-8.36-11.407-8.36Zm0,1.023c.869,0,1.474.935,1.474,2.475,0,1.562-.605,2.5-1.474,2.5s-1.463-.935-1.463-2.5C-12.87-6.4-12.265-7.337-11.407-7.337Zm9.548,4.972c-.869,0-1.463-.935-1.463-2.486s.594-2.486,1.463-2.486S-.4-6.4-.4-4.851-1-2.365-1.859-2.365Zm0-6C-3.344-8.36-4.411-7-4.411-4.851s1.067,3.5,2.552,3.5S.693-2.706.693-4.851-.374-8.36-1.859-8.36ZM4.741-5.2H3.19V-9.086H2.057V.858H3.19V-4.268H4.741ZM7.557-2.211H6.413V.66h6.853V-.264H7.557ZM7.535-7.722h4.477v1.771H7.535ZM10.34-3.883V-5.038h2.783V-8.624h-6.7v3.586H9.2v1.155H5.28v.913h9v-.913ZM23.067-4.4H17.314V-7.293H22.99v-.924H16.181v4.73h6.886ZM15.081-1.364v.935H24.09v-.935Zm-20.812,5.1H-6.864V5.367A5,5,0,0,1-9.482,9.9l.671.946a5.163,5.163,0,0,0,2.53-3.2,4.959,4.959,0,0,0,2.464,2.981l.66-.9A4.812,4.812,0,0,1-5.731,5.367ZM-2.365,2.9v9.966h1.144V2.9Zm5.808.924h-1.1V5.62A4.969,4.969,0,0,1,.253,9.932l.693.858A4.787,4.787,0,0,0,2.9,7.941,4.531,4.531,0,0,0,4.741,10.57l.638-.88A4.8,4.8,0,0,1,3.443,5.565ZM5.775,6.39H4.312v.924H5.775v5.071H6.842V3.1H5.775ZM7.8,2.914v9.933H8.877V2.914Z" transform="translate(140 540)"/><g transform="translate(899.829 242.876)"><circle class="c" cx="32" cy="32" r="32" transform="translate(-792.829 219.124)"/><path class="d" d="M-748.524,240.877h-7.793l4.768,4.947-1.751,2.865-5.273-5.471-2.256-2.341h-7.794l.594.971,2.432,3.976-2.761,2.865h4.037l5.511,15.84-.553,1.588,1.137,1.281,16.605-18.709Zm-5.859,11.751a.777.777,0,0,1-.269-.054.786.786,0,0,1-.522-.738.791.791,0,0,1,.791-.791.754.754,0,0,1,.246.05.782.782,0,0,1,.545.741A.791.791,0,0,1-754.383,252.628Z"/><path class="d" d="M-774.073,248.689h-.757l10.645,11.994-4.172-11.994-2.337-3.823Z"/><path d="M-741.028,248.164l-6.9-7.811a.79.79,0,0,0-.593-.267h-24.611a.792.792,0,0,0-.593.267l-6.9,7.811a.794.794,0,0,0-.128.85.8.8,0,0,0,.2.273l.005.006,19.128,21.564a.792.792,0,0,0,.593.267.79.79,0,0,0,.592-.267l19.129-21.564,0-.006a.816.816,0,0,0,.2-.273A.792.792,0,0,0-741.028,248.164Zm-8.9-6.495-3.518,5.672-5.637-5.672Zm-5.2,6.228h-11.407l5.7-5.738Zm-7.449-6.228-5.638,5.672-3.518-5.672Zm-10.682.542,3.526,5.686h-8.55Zm-5.011,7.269h9.355l6.463,17.832Zm19.089,17.8,4.515-12.219a.791.791,0,0,0-.468-1.017.79.79,0,0,0-1.016.467l-4.674,12.649-6.407-17.678h23.838Zm7.252-19.381,3.526-5.686,5.024,5.686Z"/><path d="M-760.829,236.786a.792.792,0,0,0,.791-.792v-4.077a.792.792,0,0,0-.791-.793.793.793,0,0,0-.792.793v4.077A.793.793,0,0,0-760.829,236.786Z"/><path d="M-757.064,238.488a.788.788,0,0,0,.56-.232l2.884-2.882a.794.794,0,0,0,0-1.121.792.792,0,0,0-1.12,0l-2.883,2.884a.789.789,0,0,0,0,1.119A.784.784,0,0,0-757.064,238.488Z"/><path d="M-765.309,238.256a.79.79,0,0,0,.561.232.787.787,0,0,0,.559-.232.791.791,0,0,0,0-1.119l-2.884-2.884a.791.791,0,0,0-1.119,0,.794.794,0,0,0,0,1.121Z"/><path d="M-754.652,252.574a.777.777,0,0,0,.269.054.791.791,0,0,0,.791-.792.782.782,0,0,0-.545-.741.754.754,0,0,0-.246-.05.791.791,0,0,0-.791.791A.786.786,0,0,0-754.652,252.574Z"/></g></g></svg>