<svg xmlns="http://www.w3.org/2000/svg" width="65" height="80" viewBox="0 0 65 80">
  <g id="쓰브다이아몬드시세" transform="translate(-186 -454)">
    <rect id="쓰브다이아몬드시세_영역" width="65" height="80" rx="20" transform="translate(186 454)" fill="#fff" opacity="0"/>
    <path id="패스_640" data-name="패스 640" d="M-22.6-4.114a3.222,3.222,0,0,1-1.936-3v-1.21h-1.144v1.21a3.443,3.443,0,0,1-1.386,2.794,3.51,3.51,0,0,1-1.408-2.794v-1.21h-1.133v1.21a3.329,3.329,0,0,1-1.936,3l.594.847a3.68,3.68,0,0,0,1.9-2.1,3.812,3.812,0,0,0,1.969,2.233A3.726,3.726,0,0,0-25.1-5.346a3.508,3.508,0,0,0,1.9,2.079Zm-8.976,2.75v.935h9.031v-.935Zm9.042.033V-.4h9v-.935ZM-21.527-8.4v5.236h6.952V-8.4H-15.7v1.738H-20.4V-8.4Zm1.122,2.64H-15.7v1.683H-20.4Zm8.415-1.463H-8.5v-.924h-4.62v6.567h.814a24.516,24.516,0,0,0,4.642-.33l-.121-.935a23.982,23.982,0,0,1-4.2.319Zm7.711,1.958H-5.83V-9.1H-6.963V.858H-5.83V-4.334h1.551ZM2.53-9.1V.869H3.674V-9.1Zm-4.147.737c-1.474,0-2.552,1.364-2.552,3.5,0,2.156,1.078,3.509,2.552,3.509S.946-2.706.946-4.862C.946-7-.132-8.36-1.617-8.36Zm0,1.023c.869,0,1.474.935,1.474,2.475,0,1.562-.605,2.5-1.474,2.5S-3.08-3.3-3.08-4.862C-3.08-6.4-2.475-7.337-1.617-7.337ZM7.161-2.365C6.292-2.365,5.7-3.3,5.7-4.851s.594-2.486,1.463-2.486S8.624-6.4,8.624-4.851,8.019-2.365,7.161-2.365Zm0-6C5.676-8.36,4.609-7,4.609-4.851s1.067,3.5,2.552,3.5,2.552-1.353,2.552-3.5S8.646-8.36,7.161-8.36Zm6.6,3.157H12.21V-9.086H11.077V.858H12.21V-4.268h1.551Zm2.046,2.992H14.663V.66h6.853V-.264H15.807Zm-.022-5.511h4.477v1.771H15.785ZM18.59-3.883V-5.038h2.783V-8.624h-6.7v3.586h2.772v1.155H13.53v.913h9v-.913ZM30.547-4.4H24.794V-7.293H30.47v-.924H23.661v4.73h6.886ZM22.561-1.364v.935H31.57v-.935Zm-27.907,5.1H-6.479V5.367A5,5,0,0,1-9.1,9.9l.671.946a5.163,5.163,0,0,0,2.53-3.2,4.959,4.959,0,0,0,2.464,2.981l.66-.9A4.812,4.812,0,0,1-5.346,5.367ZM-1.98,2.9v9.966H-.836V2.9Zm5.038.924h-1.1V5.62A4.969,4.969,0,0,1-.132,9.932l.693.858A4.787,4.787,0,0,0,2.519,7.941,4.531,4.531,0,0,0,4.356,10.57l.638-.88A4.8,4.8,0,0,1,3.058,5.565ZM5.39,6.39H3.927v.924H5.39v5.071H6.457V3.1H5.39ZM7.414,2.914v9.933H8.492V2.914Z" transform="translate(218 509)" fill="#3b3b3b"/>
    <g id="쓰브아이콘" transform="translate(-218.887 285.409)">
      <g id="그룹_134" data-name="그룹 134">
        <path id="패스_338" data-name="패스 338" d="M425.844,200.613l-4.549,2.732,12.392.856.071-.62Z" fill="#0394dd"/>
        <path id="패스_339" data-name="패스 339" d="M437.129,200.806l-4.163,9.785,9.957-3.734Z" fill="#70bde6"/>
        <path id="패스_340" data-name="패스 340" d="M433.758,203.581l-.071.62-.721,6.39,4.163-9.785-2.531-4.663-.48,4.252Z" fill="#0394dd"/>
        <path id="패스_341" data-name="패스 341" d="M433.758,203.581l.36-3.186-2.481-5.834-5.793,6.052Z" fill="#70bde6"/>
        <path id="패스_342" data-name="패스 342" d="M432.966,210.591l14.506-1-4.549-2.732Z" fill="#0394dd"/>
        <path id="패스_343" data-name="패스 343" d="M444.633,203.932l3.246,2.045-1.9-3.332-4.506-4.706-3.247-2.046,1.9,3.333Z" fill="#a1dbf6"/>
        <path id="패스_344" data-name="패스 344" d="M428.64,192.981l1.9-3.333-3.246,2.045-4.507,4.707-1.9,3.333,3.246-2.046Z" fill="#a1dbf6"/>
        <path id="패스_345" data-name="패스 345" d="M444.633,203.932l-4.507-4.706-3,1.58,5.794,6.051Z" fill="#fff"/>
        <path id="패스_346" data-name="패스 346" d="M440.126,199.226l-1.9-3.333-3.626.25,2.531,4.663Z" fill="#70bde6"/>
        <path id="패스_347" data-name="패스 347" d="M442.923,206.857l4.549,2.732.407-3.612-3.246-2.045Z" fill="#70bde6"/>
        <path id="패스_348" data-name="패스 348" d="M424.133,197.687l1.711,2.926,5.793-6.052-3-1.58Z" fill="#fff"/>
        <path id="패스_349" data-name="패스 349" d="M431.637,194.561l2.606-4.688-3.7-.225-1.9,3.333Z" fill="#70bde6"/>
        <path id="패스_350" data-name="패스 350" d="M425.844,200.613l-1.711-2.926-3.246,2.046.408,3.612Z" fill="#70bde6"/>
        <path id="패스_351" data-name="패스 351" d="M434.243,189.873l-2.606,4.688,2.481,5.834.48-4.252.37-.025Z" fill="#0394dd"/>
      </g>
      <g id="그룹_135" data-name="그룹 135">
        <path id="패스_352" data-name="패스 352" d="M439.486,183.357l1.528,10.522,6.566-8.364Z" fill="#70bde6"/>
        <path id="패스_353" data-name="패스 353" d="M438.047,187.479l.263.566,2.7,5.834-1.528-10.522-4.587-2.668,1.8,3.881Z" fill="#0394dd"/>
        <path id="패스_354" data-name="패스 354" d="M441.014,193.879l11.873-8.394-5.307.03Z" fill="#0394dd"/>
        <path id="패스_355" data-name="패스 355" d="M447.52,182.127l3.836.061L448,180.329l-6.3-1.679-3.838-.059,3.359,1.858Z" fill="#a1dbf6"/>
        <path id="패스_356" data-name="패스 356" d="M447.52,182.127l-6.295-1.678-1.739,2.908,8.094,2.158Z" fill="#fff"/>
        <path id="패스_357" data-name="패스 357" d="M441.225,180.449l-3.359-1.858-2.967,2.1,4.587,2.668Z" fill="#70bde6"/>
        <path id="패스_358" data-name="패스 358" d="M447.58,185.515l5.307-.03-1.531-3.3-3.836-.061Z" fill="#70bde6"/>
      </g>
    </g>
  </g>
</svg>
