<svg xmlns="http://www.w3.org/2000/svg" width="24.222" height="18" viewBox="0 0 24.222 18"><defs><style>.a{fill:#7a7a7a;}</style></defs><g transform="translate(-371.279 -411.946)"><path class="a" d="M391.369,411.946h-10.52a4.82,4.82,0,0,0-3.551,1.563l-5.422,5.9a2.263,2.263,0,0,0,0,3.063l5.423,5.908a4.834,4.834,0,0,0,3.55,1.563h10.52a4.137,4.137,0,0,0,4.132-4.133v-9.734A4.137,4.137,0,0,0,391.369,411.946Zm0,16.321H380.849a3.148,3.148,0,0,1-2.318-1.018l-5.418-5.908a.581.581,0,0,1,0-.8l5.422-5.907a3.149,3.149,0,0,1,2.318-1.017h10.519a2.461,2.461,0,0,1,2.459,2.458v9.729A2.462,2.462,0,0,1,391.373,428.267Z"/><path class="a" d="M386.8,420.943l2.148-2.147a.838.838,0,0,0,0-1.182.855.855,0,0,0-1.183,0l-2.147,2.146-2.146-2.146a.854.854,0,0,0-1.183,0,.83.83,0,0,0,0,1.182l2.146,2.147-2.146,2.146a.843.843,0,0,0-.005,1.183.857.857,0,0,0,1.188,0l2.146-2.146,2.147,2.146a.831.831,0,0,0,.594.247.839.839,0,0,0,.594-1.43Z"/></g></svg>