<svg xmlns="http://www.w3.org/2000/svg" width="16" height="16.001" viewBox="0 0 16 16.001"><defs><style>.a{fill:#3b3b3b;}</style></defs><g transform="translate(-291.64 -414.946)"><path class="a" d="M305.42,417.408A8,8,0,1,0,294.1,428.7l.011.016c.047.045.1.081.143.125.129.115.257.232.393.343.072.056.148.113.221.167.129.1.256.191.389.279.092.057.185.115.279.171.123.076.245.151.373.217.108.057.219.107.328.16s.237.113.361.165.245.091.371.135.231.087.351.123.273.072.411.105c.113.029.224.06.343.084.157.031.317.051.477.072.1.015.2.035.295.043a7.612,7.612,0,0,0,1.584,0c.1-.008.2-.028.3-.043.16-.021.32-.041.477-.072.115-.024.228-.057.343-.084.136-.033.276-.065.409-.105s.235-.081.352-.123.249-.085.371-.135.241-.109.361-.165.22-.1.328-.16c.128-.067.249-.143.373-.217.093-.056.187-.108.277-.171.133-.088.263-.183.389-.279.075-.057.151-.109.223-.167.136-.109.263-.224.392-.343.047-.044.1-.08.144-.125l.009-.016A7.987,7.987,0,0,0,305.42,417.408Zm-1.284,10.7c-.1.091-.211.179-.319.263l-.195.144c-.1.075-.208.145-.315.215-.079.049-.157.1-.237.144l-.305.171c-.093.047-.185.091-.279.135s-.2.089-.3.129-.208.08-.313.115-.195.068-.292.1c-.113.035-.233.063-.352.092-.092.021-.183.047-.277.065-.135.025-.273.044-.412.063-.079.009-.157.024-.236.032-.22.021-.441.033-.667.033s-.447-.012-.665-.033c-.08-.008-.159-.023-.237-.032-.139-.019-.277-.037-.412-.063-.095-.019-.185-.044-.277-.065-.119-.029-.236-.057-.352-.092-.1-.028-.195-.063-.292-.1s-.211-.073-.313-.115-.2-.084-.3-.129-.187-.088-.277-.135-.205-.109-.307-.171c-.08-.047-.159-.095-.237-.144-.107-.069-.212-.14-.315-.215-.067-.047-.129-.1-.195-.144-.108-.084-.215-.172-.319-.263-.025-.019-.049-.043-.073-.064a4.584,4.584,0,0,1,3.115-4.283,3.384,3.384,0,0,0,2.911,0,4.584,4.584,0,0,1,3.115,4.283C304.184,428.062,304.161,428.083,304.136,428.1Zm-6.491-8.578a2.285,2.285,0,1,1,3.112,3.112l-.009,0a2.356,2.356,0,0,1-.477.2c-.029.008-.057.02-.089.028-.056.015-.117.025-.176.035a2.173,2.173,0,0,1-.335.033H299.6a2.173,2.173,0,0,1-.335-.033c-.057-.009-.119-.02-.176-.035-.031-.008-.057-.02-.089-.028a2.423,2.423,0,0,1-.477-.2l-.011,0A2.288,2.288,0,0,1,297.645,419.526Zm7.578,7.381h0a5.747,5.747,0,0,0-3.059-3.938,3.428,3.428,0,1,0-5.051,0,5.739,5.739,0,0,0-3.059,3.938,6.855,6.855,0,1,1,11.169,0Z" transform="translate(0 0)"/></g></svg>