<svg xmlns="http://www.w3.org/2000/svg" width="16" height="15.999" viewBox="0 0 16 15.999"><defs><style>.a{fill:#36bebf;}</style></defs><g transform="translate(-289.64 -412.946)"><g transform="translate(-920.886 87.479)"><path class="a" d="M1225.645,337.159h0L1223,335.424a1.726,1.726,0,0,0-2.029.089,1.29,1.29,0,0,1-1.715-.1l-2.682-2.682a1.287,1.287,0,0,1-.1-1.714,1.731,1.731,0,0,0,.089-2.031l-1.736-2.641a1.735,1.735,0,0,0-2.748-.2,5.8,5.8,0,0,0,.237,7.944l5.577,5.579a5.8,5.8,0,0,0,7.945.236,1.737,1.737,0,0,0-.2-2.749Zm-.48,1.986a4.779,4.779,0,0,1-6.544-.2l-5.578-5.578a4.776,4.776,0,0,1-.195-6.543.672.672,0,0,1,.525-.241l.06,0a.685.685,0,0,1,.546.32l1.736,2.641a.7.7,0,0,1-.035.834,2.308,2.308,0,0,0,.174,3.073l2.681,2.681a2.309,2.309,0,0,0,3.072.175.7.7,0,0,1,.834-.035l2.642,1.735a.716.716,0,0,1,.082,1.132Z"/><path class="a" d="M1213.372,325.565c.046,0,.09,0,.135.005a1.7,1.7,0,0,1,1.325.778l1.736,2.641a1.731,1.731,0,0,1-.089,2.031,1.287,1.287,0,0,0,.1,1.714l2.682,2.682a1.291,1.291,0,0,0,1.715.1,1.716,1.716,0,0,1,1.074-.376,1.737,1.737,0,0,1,.955.287l2.643,1.735h0a1.737,1.737,0,0,1,.2,2.749,5.8,5.8,0,0,1-7.945-.236l-5.577-5.579a5.8,5.8,0,0,1-.237-7.944,1.694,1.694,0,0,1,1.288-.584M1222,340.346a4.762,4.762,0,0,0,3.167-1.2.716.716,0,0,0-.082-1.132l-2.642-1.735a.714.714,0,0,0-.394-.121.7.7,0,0,0-.44.156,2.31,2.31,0,0,1-3.072-.175l-2.681-2.681a2.308,2.308,0,0,1-.174-3.073.7.7,0,0,0,.035-.834l-1.736-2.641a.685.685,0,0,0-.546-.32l-.06,0a.672.672,0,0,0-.525.241,4.776,4.776,0,0,0,.195,6.543l5.578,5.578a4.766,4.766,0,0,0,3.377,1.4m-8.626-14.879a1.8,1.8,0,0,0-1.362.616,5.9,5.9,0,0,0,.242,8.08l5.577,5.579a5.9,5.9,0,0,0,8.079.24,1.835,1.835,0,0,0,.025-2.724h.041l-.276-.181-.005,0-.019-.013h0l-2.617-1.719a1.835,1.835,0,0,0-2.147.094,1.2,1.2,0,0,1-.741.26,1.185,1.185,0,0,1-.842-.349l-2.681-2.681a1.192,1.192,0,0,1-.09-1.583,1.83,1.83,0,0,0,.095-2.147l-1.737-2.641a1.791,1.791,0,0,0-1.4-.822c-.047,0-.094,0-.142,0Zm8.626,14.78a4.647,4.647,0,0,1-3.308-1.368l-5.577-5.578a4.678,4.678,0,0,1-.191-6.408.573.573,0,0,1,.451-.208.476.476,0,0,1,.053,0,.585.585,0,0,1,.47.275l1.736,2.641a.609.609,0,0,1-.028.719,2.4,2.4,0,0,0,.18,3.2l2.682,2.682a2.388,2.388,0,0,0,1.7.706,2.423,2.423,0,0,0,1.5-.524.6.6,0,0,1,.377-.134.622.622,0,0,1,.34.1l2.641,1.736a.615.615,0,0,1,.072.975,4.667,4.667,0,0,1-3.1,1.176Z"/></g></g></svg>