<svg xmlns="http://www.w3.org/2000/svg" width="64" height="74" viewBox="0 0 64 74"><defs><style>.a,.b{fill:#00b5d3;}.a{opacity:0.2;}.b{opacity:0.3;}.c{fill:#dfdfdf;}.d{fill:#11ae99;}.e{fill:#6cd1cb;}.f{fill:#fff;}.g{fill:#384148;}</style></defs><g transform="translate(-175.598 -591.5)"><ellipse class="a" cx="12.5" cy="13" rx="12.5" ry="13" transform="translate(214.598 594.5)"/><ellipse class="a" cx="9.5" cy="9" rx="9.5" ry="9" transform="translate(175.598 644.5)"/><circle class="b" cx="8" cy="8" r="8" transform="translate(209.598 591.5)"/><g transform="translate(190.259 610.988)"><path class="c" d="M317.375,409.157v-14.3a3.906,3.906,0,0,0-3.906-3.908H277.395a3.906,3.906,0,0,0-3.906,3.908v14.3Z" transform="translate(-273.488 -390.944)"/><path class="d" d="M273.489,409.985v33.306a3.907,3.907,0,0,0,3.906,3.907h36.074a3.906,3.906,0,0,0,3.906-3.907V409.985Z" transform="translate(-273.488 -392.686)"/><g transform="translate(3.454 20.446)"><path class="e" d="M300.391,437.742h-6.5a1.709,1.709,0,0,0-1.708,1.709v3.812a1.709,1.709,0,0,0,1.708,1.71h6.5a1.709,1.709,0,0,0,1.708-1.71v-3.812A1.709,1.709,0,0,0,300.391,437.742Z" transform="translate(-278.652 -415.67)"/><path class="e" d="M285.5,437.742H279a1.709,1.709,0,0,0-1.709,1.709v3.812a1.71,1.71,0,0,0,1.709,1.71h6.5a1.71,1.71,0,0,0,1.709-1.71v-3.812A1.709,1.709,0,0,0,285.5,437.742Z" transform="translate(-277.29 -415.67)"/><path class="e" d="M300.391,425.6h-6.5a1.708,1.708,0,0,0-1.708,1.708v3.814a1.708,1.708,0,0,0,1.708,1.708h6.5a1.708,1.708,0,0,0,1.708-1.708V427.3A1.707,1.707,0,0,0,300.391,425.6Z" transform="translate(-278.652 -414.559)"/><path class="e" d="M285.5,425.6H279a1.708,1.708,0,0,0-1.709,1.708v3.814A1.709,1.709,0,0,0,279,432.826h6.5a1.709,1.709,0,0,0,1.709-1.708V427.3A1.708,1.708,0,0,0,285.5,425.6Z" transform="translate(-277.29 -414.559)"/><path class="e" d="M300.391,413.448h-6.5a1.709,1.709,0,0,0-1.708,1.71v3.812a1.709,1.709,0,0,0,1.708,1.709h6.5a1.709,1.709,0,0,0,1.708-1.709v-3.812A1.708,1.708,0,0,0,300.391,413.448Z" transform="translate(-278.652 -413.448)"/><path class="e" d="M285.5,413.448H279a1.709,1.709,0,0,0-1.709,1.71v3.812A1.709,1.709,0,0,0,279,420.679h6.5a1.709,1.709,0,0,0,1.709-1.709v-3.812A1.709,1.709,0,0,0,285.5,413.448Z" transform="translate(-277.29 -413.448)"/><path class="e" d="M308.786,413.448h6.5a1.71,1.71,0,0,1,1.709,1.71v3.812a1.709,1.709,0,0,1-1.709,1.709h-6.5a1.707,1.707,0,0,1-1.707-1.709v-3.812A1.707,1.707,0,0,1,308.786,413.448Z" transform="translate(-280.015 -413.448)"/></g><path class="e" d="M308.786,425.6h6.5a1.709,1.709,0,0,1,1.709,1.708v14.848a1.71,1.71,0,0,1-1.709,1.71h-6.5a1.708,1.708,0,0,1-1.707-1.71V427.3A1.706,1.706,0,0,1,308.786,425.6Z" transform="translate(-276.56 -394.113)"/><path class="f" d="M312.56,395.811H279a1.709,1.709,0,0,0-1.709,1.708v5.962A1.709,1.709,0,0,0,279,405.189H312.56a1.709,1.709,0,0,0,1.709-1.708v-5.962A1.709,1.709,0,0,0,312.56,395.811Z" transform="translate(-273.836 -391.389)"/><g transform="translate(28.11 6.148)"><path class="g" d="M313.323,403.636a.88.88,0,0,1-.88-.88v-4.165a.88.88,0,0,1,1.761,0v4.165A.88.88,0,0,1,313.323,403.636Z" transform="translate(-305.161 -397.711)"/><path class="g" d="M309.316,403.636a.881.881,0,0,1-.881-.88v-4.165a.881.881,0,0,1,1.762,0v4.165A.881.881,0,0,1,309.316,403.636Z" transform="translate(-304.794 -397.711)"/><path class="g" d="M305.308,403.636a.881.881,0,0,1-.88-.88v-4.165a.881.881,0,0,1,1.762,0v4.165A.881.881,0,0,1,305.308,403.636Z" transform="translate(-304.428 -397.711)"/></g></g></g></svg>