<svg xmlns="http://www.w3.org/2000/svg" width="16" height="16.001" viewBox="0 0 16 16.001"><defs><style>.a{fill:#36bebf;}</style></defs><g transform="translate(-289.638 -412.947)"><path class="a" d="M305.538,419.734a.687.687,0,0,0-.449-.543l-1.26-.448c-.075-.211-.16-.416-.253-.615l.574-1.207a.687.687,0,0,0-.068-.7,7.978,7.978,0,0,0-1.716-1.716.686.686,0,0,0-.7-.067l-1.206.573a6.3,6.3,0,0,0-.616-.252l-.448-1.261a.685.685,0,0,0-.542-.448,7.28,7.28,0,0,0-2.429,0,.686.686,0,0,0-.542.448l-.448,1.261a6.3,6.3,0,0,0-.616.252l-1.207-.573a.685.685,0,0,0-.7.067,8.006,8.006,0,0,0-1.717,1.716.687.687,0,0,0-.067.7l.574,1.207a6.556,6.556,0,0,0-.253.615l-1.261.449a.685.685,0,0,0-.448.542,7.345,7.345,0,0,0,0,2.428.686.686,0,0,0,.448.543l1.261.448a6.578,6.578,0,0,0,.253.616l-.574,1.206a.687.687,0,0,0,.067.7,8.01,8.01,0,0,0,1.717,1.717.683.683,0,0,0,.7.066l1.207-.573a6.313,6.313,0,0,0,.616.253l.448,1.261a.686.686,0,0,0,.542.448,7.351,7.351,0,0,0,2.429,0,.689.689,0,0,0,.542-.448l.448-1.261a6.3,6.3,0,0,0,.615-.253l1.207.573a.684.684,0,0,0,.7-.066,7.982,7.982,0,0,0,1.716-1.717.687.687,0,0,0,.068-.7l-.574-1.206c.093-.2.178-.4.253-.616l1.26-.448a.685.685,0,0,0,.449-.543,7.418,7.418,0,0,0,0-2.428Zm-1.3,1.819-1.183.421a.688.688,0,0,0-.428.451,5.013,5.013,0,0,1-.414,1.005.688.688,0,0,0-.016.623l.536,1.128a6.616,6.616,0,0,1-.858.857l-1.127-.536a.685.685,0,0,0-.623.017,5.187,5.187,0,0,1-1.005.414.687.687,0,0,0-.452.428l-.42,1.182a5.571,5.571,0,0,1-1.211,0l-.42-1.182a.687.687,0,0,0-.452-.428,5.171,5.171,0,0,1-1.006-.414.682.682,0,0,0-.622-.017l-1.128.536a6.608,6.608,0,0,1-.857-.857l.536-1.128a.688.688,0,0,0-.017-.623,5.108,5.108,0,0,1-.414-1.005.683.683,0,0,0-.428-.451l-1.182-.421a5.564,5.564,0,0,1,0-1.21l1.182-.421a.683.683,0,0,0,.428-.451,5.2,5.2,0,0,1,.414-1.006.686.686,0,0,0,.017-.622l-.536-1.128a6.681,6.681,0,0,1,.857-.858l1.129.536a.68.68,0,0,0,.622-.017,5.192,5.192,0,0,1,1.005-.413.688.688,0,0,0,.452-.427l.42-1.184a5.7,5.7,0,0,1,1.211,0l.42,1.184a.688.688,0,0,0,.452.427,5.218,5.218,0,0,1,1.005.413.679.679,0,0,0,.623.017l1.127-.536a6.625,6.625,0,0,1,.858.858l-.536,1.128a.686.686,0,0,0,.016.622,5.113,5.113,0,0,1,.414,1.005.687.687,0,0,0,.428.452l1.183.421a5.564,5.564,0,0,1,0,1.21Z"/><path class="a" d="M297.639,417.612a3.174,3.174,0,1,0,3.174,3.175A3.178,3.178,0,0,0,297.639,417.612Zm0,4.978a1.8,1.8,0,1,1,1.8-1.8A1.805,1.805,0,0,1,297.639,422.59Z"/></g></svg>