<svg xmlns="http://www.w3.org/2000/svg" xmlns:xlink="http://www.w3.org/1999/xlink" width="82" height="82" viewBox="0 0 82 82"><defs><style>.a{fill:#36bebf;}.b{fill:#fff;}.c{filter:url(#a);}</style><filter id="a" x="0" y="0" width="82" height="82" filterUnits="userSpaceOnUse"><feOffset dy="3" input="SourceAlpha"/><feGaussianBlur stdDeviation="3" result="b"/><feFlood flood-opacity="0.161"/><feComposite operator="in" in2="b"/><feComposite in="SourceGraphic"/></filter></defs><g transform="translate(-267 -794)"><g class="c" transform="matrix(1, 0, 0, 1, 267, 794)"><circle class="a" cx="32" cy="32" r="32" transform="translate(9 6)"/></g><g transform="translate(10.36 411.055)"><rect class="b" width="19.691" height="8.204" transform="matrix(0.707, -0.707, 0.707, 0.707, 287.506, 425.27)"/><path class="b" d="M311.4,411.818l-4.641-4.643a.846.846,0,0,0-1.16,0l-3.009,3.011,5.8,5.8,3.01-3.01a.821.821,0,0,0,0-1.16Z"/><path class="b" d="M285.768,427.013a.839.839,0,0,0-.208.353l-1.888,6.53a.82.82,0,0,0,.788,1.049.8.8,0,0,0,.228-.032l6.529-1.889a.816.816,0,0,0,.351-.208l.581-.581-5.8-5.8Z"/></g></g></svg>