<svg xmlns="http://www.w3.org/2000/svg" width="16" height="16" viewBox="0 0 16 16"><defs><style>.a{fill:#36bebf;}</style></defs><path class="a" d="M256,248a8,8,0,0,0-6.939,11.982l-1.031,3.2a.625.625,0,0,0,.786.786l3.2-1.03A8,8,0,1,0,256,248Zm0,14.75a6.729,6.729,0,0,1-3.573-1.022.627.627,0,0,0-.523-.066l-2.31.744.744-2.31a.627.627,0,0,0-.066-.523A6.751,6.751,0,1,1,256,262.75Zm.781-6.75a.781.781,0,1,1-.781-.781A.78.78,0,0,1,256.781,256Zm3.125,0a.781.781,0,1,1-.781-.781A.78.78,0,0,1,259.906,256Zm-6.25,0a.781.781,0,1,1-.781-.781A.78.78,0,0,1,253.656,256Z" transform="translate(-248 -248)"/></svg>