<svg xmlns="http://www.w3.org/2000/svg" xmlns:xlink="http://www.w3.org/1999/xlink" width="32" height="32" viewBox="0 0 32 32"><defs><style>.a{fill:#f3f3f1;}.b{fill:url(#a);}.c{fill:url(#b);}.d{fill:url(#c);}</style><linearGradient id="a" x1="-3.408" y1="-3.239" x2="4.329" y2="4.163" gradientUnits="objectBoundingBox"><stop offset="0.001" stop-color="#fbe18a"/><stop offset="0.209" stop-color="#fcbb45"/><stop offset="0.376" stop-color="#f75274"/><stop offset="0.524" stop-color="#d53692"/><stop offset="0.739" stop-color="#8f39ce"/><stop offset="1" stop-color="#5b4fe9"/></linearGradient><linearGradient id="b" x1="-0.42" y1="-0.381" x2="1.421" y2="1.381" xlink:href="#a"/><linearGradient id="c" x1="0.049" y1="0.068" x2="0.956" y2="0.936" xlink:href="#a"/></defs><g transform="translate(-644.612 -117.313)"><rect class="a" width="32" height="32" rx="7.111" transform="translate(644.612 117.313)"/><path class="b" d="M666.825,125.769a1.376,1.376,0,1,0,1.375,1.376A1.376,1.376,0,0,0,666.825,125.769Z"/><path class="c" d="M660.709,127.533a5.779,5.779,0,1,0,5.778,5.779A5.786,5.786,0,0,0,660.709,127.533Zm0,9.482a3.7,3.7,0,1,1,3.7-3.7A3.708,3.708,0,0,1,660.709,137.015Z"/><path class="d" d="M665.3,145.046h-9.37A7.056,7.056,0,0,1,648.879,138v-9.371a7.056,7.056,0,0,1,7.048-7.048h9.37a7.057,7.057,0,0,1,7.049,7.048V138A7.057,7.057,0,0,1,665.3,145.046Zm-9.37-21.259a4.845,4.845,0,0,0-4.841,4.84V138a4.846,4.846,0,0,0,4.841,4.84h9.37a4.848,4.848,0,0,0,4.842-4.84v-9.371a4.847,4.847,0,0,0-4.842-4.84Z"/></g></svg>