<svg xmlns="http://www.w3.org/2000/svg" width="32" height="32" viewBox="0 0 32 32"><defs><style>.a{fill:#f3f3f1;}.b{fill:#3c1e1e;}.c{fill:#f9e000;}</style></defs><g transform="translate(-685.557 -117.313)"><path class="a" d="M7.111,0H24.889A7.111,7.111,0,0,1,32,7.111V24.889A7.111,7.111,0,0,1,24.889,32H7.112A7.112,7.112,0,0,1,0,24.888V7.111A7.111,7.111,0,0,1,7.111,0Z" transform="translate(685.557 117.313)"/><path class="b" d="M701.557,122.65c-6.318,0-11.436,4.071-11.436,9.092,0,3.112,1.967,5.86,4.967,7.5l-.827,4.432a.254.254,0,0,0,.389.259l4.912-3.237s1.315.138,1.995.138c6.316,0,11.434-4.07,11.434-9.091s-5.118-9.092-11.434-9.092"/><path class="c" d="M696.925,129.208h-3.3a.565.565,0,0,0,0,1.129H694.7v3.98a.563.563,0,0,0,.162.389.54.54,0,0,0,.386.162h.118a.537.537,0,0,0,.386-.162.555.555,0,0,0,.16-.389v-3.98h1.013a.565.565,0,0,0,0-1.129"/><path class="c" d="M704.638,133.806h-1.532v-4.064a.608.608,0,1,0-1.216,0v4.577a.511.511,0,0,0,.51.512h2.238a.513.513,0,0,0,0-1.025"/><path class="c" d="M709.557,133.993l-1.709-2.262,1.544-1.556a.54.54,0,0,0,0-.762.531.531,0,0,0-.756,0l-1.911,1.925v-1.6a.609.609,0,1,0-1.217,0v4.514a.609.609,0,1,0,1.217,0v-1.392l.348-.35,1.614,2.136a.539.539,0,0,0,.761.11.55.55,0,0,0,.109-.767"/><path class="c" d="M701.525,134.139l-1.642-4.529-.006-.005a.806.806,0,0,0-.769-.477.979.979,0,0,0-.264.037.938.938,0,0,0-.228.1.764.764,0,0,0-.177.159.793.793,0,0,0-.085.133c-.019.042-.1.273-.125.345-.01.025-.019.05-.029.076s-.023.059-.033.09l-.038.1-.044.117-.048.128c-.017.046-.033.092-.05.138s-.037.1-.055.148-.038.1-.057.155-.04.108-.061.162-.042.112-.062.169l-.065.173c-.02.058-.042.117-.064.176s-.044.12-.066.179-.044.121-.068.181-.044.12-.066.18-.044.121-.067.181-.044.119-.064.178-.044.117-.067.176-.041.113-.063.171-.041.111-.062.166-.038.107-.058.159-.038.1-.057.153-.035.1-.051.144l-.051.135-.045.123q-.023.055-.042.111l-.038.1c-.01.028-.019.056-.031.084s-.017.047-.025.07a.546.546,0,0,0-.018.053.18.18,0,0,0-.015.036l-.007.019a.55.55,0,0,0,.334.7.543.543,0,0,0,.7-.336l.28-.8h2.248l.279.8a.541.541,0,0,0,.693.336.549.549,0,0,0,.334-.7m-3.2-1.467.756-2.172.023,0,.754,2.17Z"/></g></svg>