<svg xmlns="http://www.w3.org/2000/svg" width="16" height="16" viewBox="0 0 16 16"><g transform="translate(-289.64 -412.946)"><path d="M297.64,412.946a8,8,0,1,0,8,8A7.991,7.991,0,0,0,297.64,412.946Zm0,14.673a6.673,6.673,0,1,1,6.673-6.673A6.684,6.684,0,0,1,297.64,427.619Z"/><path d="M297.674,419.074a.682.682,0,0,0-.68.68v5.515a.681.681,0,0,0,1.361.034v-5.549A.682.682,0,0,0,297.674,419.074Z"/><path d="M297.606,415.908a.683.683,0,0,0-.681.68v.647a.683.683,0,0,0,.681.681.707.707,0,0,0,.682-.681v-.647A.683.683,0,0,0,297.606,415.908Z"/></g></svg>