<svg xmlns="http://www.w3.org/2000/svg" width="76" height="76" viewBox="0 0 76 76"><defs><style>.a{fill:#ececec;opacity:0.72;}.b{fill:#868686;}</style></defs><g transform="translate(-202 -62)"><circle class="a" cx="38" cy="38" r="38" transform="translate(202 62)"/><g transform="translate(-49.64 -315.792)"><g transform="translate(265.64 389.792)"><path class="b" d="M312.234,433.709h-1.52V410.794a1.4,1.4,0,0,0,.892-1.715l-2.812-9.817a1.406,1.406,0,0,0-1.351-1.019H296l2.426-3.025a1.407,1.407,0,0,0,.167-1.5l-1.529-3.14a1.409,1.409,0,0,0-1.265-.791H283.484a1.407,1.407,0,0,0-1.264.791l-1.529,3.14a1.405,1.405,0,0,0,.167,1.5l2.426,3.025H271.84a1.406,1.406,0,0,0-1.352,1.019l-2.812,9.817a1.4,1.4,0,0,0,.892,1.715v22.915h-1.521a1.406,1.406,0,0,0,0,2.813h45.188a1.406,1.406,0,0,0,0-2.812Zm-27.871-41.1h10.555l.754,1.549-6.031,7.519-6.032-7.519Zm13.026,41.1h-15.5v-1.225h15.5ZM284.83,419.89h3.4v9.782h-3.4V419.89Zm6.217,9.782V419.89h3.4v9.782Zm16.855,4.037h-7.7v-2.631a1.406,1.406,0,0,0-1.406-1.406h-1.532V419.71a1.406,1.406,0,0,0-.688-2.633H282.7a1.406,1.406,0,0,0-.688,2.633v9.961h-1.532a1.406,1.406,0,0,0-1.406,1.406v2.631h-7.7V410.872H307.9ZM270.892,408.06l2.007-7H285.54l3,3.743a1.406,1.406,0,0,0,2.194,0l3-3.743h12.641l2.007,7Z" transform="translate(-265.64 -389.792)"/></g></g></g></svg>