<svg xmlns="http://www.w3.org/2000/svg" width="16" height="16" viewBox="0 0 16 16"><g transform="translate(-289.638 -412.945)"><path d="M299.638,422.945a.667.667,0,0,0-.667.667v4h-8V414.278h8v4a.666.666,0,1,0,1.333,0v-4.666a.667.667,0,0,0-.666-.667H290.3a.667.667,0,0,0-.667.667v14.667a.666.666,0,0,0,.667.666h9.333a.666.666,0,0,0,.666-.666v-4.667A.667.667,0,0,0,299.638,422.945Z"/><path d="M305.487,421.368c.007-.008.011-.017.017-.024l.022-.029.017-.029.016-.027c.006-.01.01-.02.015-.03s.009-.019.013-.029l.011-.03c0-.01.008-.021.011-.031a.179.179,0,0,0,.008-.031l.008-.033.005-.035c0-.01,0-.02,0-.029a.582.582,0,0,0,0-.132c0-.009,0-.019,0-.029l-.005-.035-.008-.033a.178.178,0,0,0-.008-.031c0-.01-.007-.021-.011-.031l-.011-.03c0-.01-.008-.019-.013-.029s-.009-.02-.015-.03l-.016-.027-.017-.029-.022-.029c-.006-.008-.01-.016-.017-.024l-.043-.047h0l-2.667-2.667a.667.667,0,0,0-.943.943l1.529,1.528h-5.724a.667.667,0,0,0,0,1.334h5.724l-1.529,1.528a.667.667,0,0,0,.943.943l2.667-2.667h0Z"/></g></svg>