<svg xmlns="http://www.w3.org/2000/svg" width="32" height="32" viewBox="0 0 32 32"><defs><style>.a{fill:#f3f3f1;}.b{fill:#36bebf;}.c{fill:#82d9d0;}.d{fill:#d5dbe1;}</style></defs><g transform="translate(-808.388 -117.313)"><rect class="a" width="32" height="32" rx="7.111" transform="translate(808.388 117.313)"/><path class="a" d="M817.943,143.312a.891.891,0,0,1-.889-.888v-8.889h-2.222a.44.44,0,0,1-.444-.444.464.464,0,0,1,.132-.321l9.868-9.457,9.866,9.457a.461.461,0,0,1,.134.321.441.441,0,0,1-.445.444h-2.222v8.889a.891.891,0,0,1-.889.888Z"/><path class="b" d="M827.277,143.312v-5.777a.89.89,0,0,0-.889-.889h-4a.888.888,0,0,0-.889.889v5.777Z"/><path class="c" d="M824.388,136.646h-2a.888.888,0,0,0-.889.889v5.777h2v-5.777A.888.888,0,0,1,824.388,136.646Z"/><path class="d" d="M819.943,142.424v-8.889h-2.222a.44.44,0,0,1-.444-.444.456.456,0,0,1,.133-.321l8.422-8.073-1.444-1.384-9.868,9.457a.464.464,0,0,0-.132.321.44.44,0,0,0,.444.444h2.222v8.889a.891.891,0,0,0,.889.888h2.889A.891.891,0,0,1,819.943,142.424Z"/><path d="M830.832,143.979h-3.555a.666.666,0,0,1-.667-.667v-3.333h1.333v2.667h2.889a.224.224,0,0,0,.222-.222v-8.889a.667.667,0,0,1,.667-.667h1.672l-9.005-8.632-9.006,8.632h1.672a.667.667,0,0,1,.667.667v8.889a.224.224,0,0,0,.222.222h2.889v-5.111a1.557,1.557,0,0,1,1.556-1.556h4a1.557,1.557,0,0,1,1.555,1.556v1.111H826.61v-1.111a.222.222,0,0,0-.222-.222h-4a.223.223,0,0,0-.222.222v5.777a.667.667,0,0,1-.667.667h-3.556a1.556,1.556,0,0,1-1.555-1.555V134.2h-1.556a1.113,1.113,0,0,1-1.111-1.111,1.127,1.127,0,0,1,.329-.792l9.876-9.468a.667.667,0,0,1,.923,0l9.867,9.458a1.135,1.135,0,0,1,.338.8,1.112,1.112,0,0,1-1.111,1.111h-1.555v8.222A1.558,1.558,0,0,1,830.832,143.979Z"/><path d="M821.5,142.646h5.778v1.333H821.5Z"/></g></svg>