<svg xmlns="http://www.w3.org/2000/svg" width="20" height="15.384" viewBox="0 0 20 15.384"><defs><style>.a{fill:#868686;}</style></defs><g transform="translate(-287.64 -413.253)"><path class="a" d="M306.359,415.817h-3.635l-.773-2.065a.771.771,0,0,0-.721-.5h-7.179a.77.77,0,0,0-.721.5l-.774,2.065h-3.634a1.283,1.283,0,0,0-1.282,1.283v10.256a1.281,1.281,0,0,0,1.282,1.281h17.437a1.281,1.281,0,0,0,1.281-1.281V417.1A1.283,1.283,0,0,0,306.359,415.817Zm-8.719,1.539a4.872,4.872,0,1,1-4.871,4.872A4.877,4.877,0,0,1,297.64,417.356Z"/><path class="a" d="M294.307,422.228a3.333,3.333,0,1,0,3.333-3.334A3.337,3.337,0,0,0,294.307,422.228Z"/></g></svg>