<svg xmlns="http://www.w3.org/2000/svg" width="194" height="33.695" viewBox="0 0 194 33.695"><defs><style>.a{fill:#6cd1cb;}</style></defs><g transform="translate(-997.445 -207.919)"><path class="a" d="M1017.611,223.873a9.88,9.88,0,0,0-2.982-1.323,13.962,13.962,0,0,0-7,0,9.894,9.894,0,0,0-2.985,1.323,6.885,6.885,0,0,0-2.091,2.181,6.069,6.069,0,0,0,0,5.968,6.911,6.911,0,0,0,2.091,2.176,9.894,9.894,0,0,0,2.985,1.323,14,14,0,0,0,7,0,9.879,9.879,0,0,0,2.982-1.323,6.877,6.877,0,0,0,2.091-2.176,6.041,6.041,0,0,0,0-5.968A6.852,6.852,0,0,0,1017.611,223.873Zm-3.234,7.325a5.847,5.847,0,0,1-3.215.8,6.017,6.017,0,0,1-3.287-.8,2.5,2.5,0,0,1,0-4.325,6.016,6.016,0,0,1,3.287-.8,5.846,5.846,0,0,1,3.215.8,2.494,2.494,0,0,1,0,4.325Z" transform="translate(1.666 5.471)"/><path class="a" d="M999.8,217.478l.008.025a7.19,7.19,0,0,0,.554,1.566,4.176,4.176,0,0,0,.7,1.215c.176.165.5.193.945.073a21.059,21.059,0,0,0,2.931-.984,22.947,22.947,0,0,0,2.859-1.433,20.277,20.277,0,0,0,2.5-1.731,12.474,12.474,0,0,0,1.595-1.535,12.57,12.57,0,0,0,1.6,1.535,20.076,20.076,0,0,0,2.5,1.731,22.838,22.838,0,0,0,2.859,1.433,21,21,0,0,0,2.931.984c.449.119.769.091.945-.073a4.154,4.154,0,0,0,.7-1.215,7.257,7.257,0,0,0,.557-1.566l.007-.025c0-.006,0-.011,0-.017a1.053,1.053,0,0,0,.007-.108c0-.287-.212-.486-.644-.608a19.983,19.983,0,0,1-2.194-.786c-.072-.029-.144-.064-.216-.1a23.477,23.477,0,0,1-4.635-2.76,5.381,5.381,0,0,1-1.5-1.609h8.18v-3.574H1000.8v3.574h8.18a5.407,5.407,0,0,1-1.5,1.609,22.81,22.81,0,0,1-2.338,1.573,23.193,23.193,0,0,1-2.3,1.188c-.071.033-.143.068-.213.1a20.207,20.207,0,0,1-2.2.786c-.432.122-.644.321-.644.608a.789.789,0,0,0,.01.108Z" transform="translate(0.904)"/><path class="a" d="M1015.26,216.808a.8.8,0,0,0-.643-.806,6.372,6.372,0,0,0-1.786-.194,6.17,6.17,0,0,0-1.86.212.823.823,0,0,0-.643.823v2.365H997.445V223.1h30.7v-3.892H1015.26Z" transform="translate(0 3.043)"/><path class="a" d="M1039.048,225.713h8.363v-3.967h-16.332a.634.634,0,0,1-.428-.123.691.691,0,0,1-.141-.518v-2.286h16.9v-9.257a1.587,1.587,0,0,0-.448-1.232,1.749,1.749,0,0,0-1.233-.41h-19.975v3.966h16.9v2.965h-16.9v6.611a2.229,2.229,0,0,0,.5,1.267,10.03,10.03,0,0,0,1.039,1.235,12.583,12.583,0,0,0,1.376,1.182,2.467,2.467,0,0,0,1.445.568h4v3.507h-12.883v3.9h30.7v-3.9h-12.883Z" transform="translate(9.176)"/><path class="a" d="M1134.044,213.567a8.673,8.673,0,0,0-2.949-1.909,10.66,10.66,0,0,0-7.5,0,8.646,8.646,0,0,0-2.949,1.909,8.528,8.528,0,0,0-1.912,2.949,11.108,11.108,0,0,0,0,7.648,8.42,8.42,0,0,0,4.861,4.86,10.721,10.721,0,0,0,7.5,0,8.636,8.636,0,0,0,2.949-1.911,8.834,8.834,0,0,0,1.93-2.949,10.855,10.855,0,0,0,0-7.648A8.834,8.834,0,0,0,1134.044,213.567Zm-3.467,10.615a4.407,4.407,0,0,1-6.466,0,6.422,6.422,0,0,1,0-7.666,4.372,4.372,0,0,1,6.466,0,6.427,6.427,0,0,1,0,7.666Z" transform="translate(46.52 1.179)"/><path class="a" d="M1133.887,208.074v32.48a.8.8,0,0,0,.643.806,6.423,6.423,0,0,0,1.788.194,6.175,6.175,0,0,0,1.855-.213.824.824,0,0,0,.644-.823V208.074Z" transform="translate(52.628 0.06)"/><path class="a" d="M1069.908,225.365h12.883v9.843a.791.791,0,0,0,.643.805,6.359,6.359,0,0,0,1.786.2,6.193,6.193,0,0,0,1.858-.212.822.822,0,0,0,.643-.823v-9.808H1100.6v-3.892h-30.7Z" transform="translate(27.95 5.228)"/><path class="a" d="M1074.681,221.819a12.018,12.018,0,0,0,1.377,1.181,2.466,2.466,0,0,0,1.447.574h17.366v-3.966h-16.4a.635.635,0,0,1-.427-.126.689.689,0,0,1-.147-.52V217.71h16.975v-3.966H1077.9v-1.86h16.975v-3.966h-21.727v11.4a2.233,2.233,0,0,0,.5,1.268A9.9,9.9,0,0,0,1074.681,221.819Z" transform="translate(29.198)"/><path class="a" d="M1111.425,240.43a.76.76,0,0,0,.626.783,6.581,6.581,0,0,0,1.734.179,6.758,6.758,0,0,0,1.767-.179.76.76,0,0,0,.625-.783V208.074h-4.751Z" transform="translate(43.964 0.06)"/><path class="a" d="M1108.212,208.074v10.077h-5.575v4.182h5.575v18.1a.759.759,0,0,0,.625.783,6.576,6.576,0,0,0,1.732.179,6.775,6.775,0,0,0,1.77-.179.76.76,0,0,0,.625-.783V208.074h-4.752Z" transform="translate(40.574 0.06)"/><path class="a" d="M1101.263,226.32h-1.141c-.524,0-.784-.273-.784-.82V214.772h9.259v-4.249H1096.54v0h-2.135v15.688a2.478,2.478,0,0,0,.467,1.269,8.468,8.468,0,0,0,1.035,1.337,8,8,0,0,0,1.466,1.146,3.028,3.028,0,0,0,1.57.535h9.654V226.32h-7.334Z" transform="translate(37.399 1.004)"/><path class="a" d="M1072.36,210.938a1.277,1.277,0,0,0-1.038-.533h-20.444a1.275,1.275,0,0,0-1.036.533l-5.113,7.091a1.277,1.277,0,0,0-.1,1.33,1.235,1.235,0,0,0,.191.274h0l15.347,16.975.015.014a1.212,1.212,0,0,0,.177.162l.029.018a1.229,1.229,0,0,0,.18.1l.068.029a1.319,1.319,0,0,0,.168.053l.067.018a1.427,1.427,0,0,0,.245.025,1.4,1.4,0,0,0,.242-.025c.024,0,.043-.011.068-.018a1.234,1.234,0,0,0,.166-.053c.025-.01.046-.019.069-.03a1.157,1.157,0,0,0,.175-.1l.033-.022a1.473,1.473,0,0,0,.177-.158l.017-.017,15.359-16.986.013-.015-.025-.021a1.213,1.213,0,0,0,.16-.227,1.274,1.274,0,0,0-.1-1.33Zm-3.536,2.027-2.614,3.622-2.612-3.622Zm-5.112,4.531h-5.223l2.611-3.625Zm-5.109-4.531-2.613,3.622-2.612-3.622Zm-7.724.906,2.612,3.625h-5.224Zm-2.228,6.184h6.391l3.2,10.613Zm12.462,11.259-3.4-11.259h6.78Zm2.86-.63,3.19-10.628h6.42Zm4.738-13.188,2.612-3.625,2.611,3.625Z" transform="translate(18.145 0.959)"/></g></svg>