<svg xmlns="http://www.w3.org/2000/svg" width="72" height="56" viewBox="0 0 72 56">
  <g id="지도" transform="translate(-145 -704)">
    <path id="지도영역" d="M0,0H72V56H0Z" transform="translate(145 704)" fill="#fff"/>
    <text id="지도-2" data-name="지도" transform="translate(181 752)" fill="#868686" font-size="12" font-family="NotoSansCJKkr-Regular, Noto Sans CJK KR" letter-spacing="-0.03em"><tspan x="-10.86" y="0">지도</tspan></text>
    <path id="지도아이콘" d="M235.022,194.524a10.536,10.536,0,0,1,4.006,20.286l-3.352,3.438a.922.922,0,0,1-1.3.013l-.012-.013-.013-.021L231,214.81a10.54,10.54,0,0,1,4.02-20.286Zm0,5.218h0a5.307,5.307,0,1,1-3.745,1.551,5.269,5.269,0,0,1,3.745-1.551Zm2.945,2.337h0a4.139,4.139,0,0,0-5.9,0,4.171,4.171,0,0,0,0,5.917,4.169,4.169,0,0,0,5.9,0,4.171,4.171,0,0,0,0-5.917Zm3.2-3.156h0a8.7,8.7,0,1,0-9.341,14.245.9.9,0,0,1,.353.222l2.848,2.9,2.828-2.9a1.193,1.193,0,0,1,.327-.209,8.7,8.7,0,0,0,2.985-14.258Z" transform="translate(-54.488 518.476)" fill="#868686"/>
  </g>
</svg>
