<svg xmlns="http://www.w3.org/2000/svg" width="72" height="56" viewBox="0 0 72 56">
  <g id="계산기" transform="translate(-217 -704)">
    <path id="계산기영역" d="M0,0H72V56H0Z" transform="translate(217 704)" fill="#fff"/>
    <text id="계산기-2" data-name="계산기" transform="translate(253 752)" fill="#868686" font-size="12" font-family="NotoSansCJKkr-Regular, Noto Sans CJK KR" letter-spacing="-0.03em"><tspan x="-16.2" y="0">계산기</tspan></text>
    <path id="계산기아이콘" d="M293.1,194.524h22.153a.921.921,0,0,1,.917.923V217.6a.916.916,0,0,1-.917.922H293.1a.927.927,0,0,1-.93-.922V195.447a.932.932,0,0,1,.93-.923Zm11.627,1.847h0v9.6h9.6v-9.6Zm0,10.71h0v9.6h9.6v-9.6Zm-1.1,9.6h0v-9.6h-9.611v9.6Zm0-10.71h0v-9.6h-9.611v9.6Zm-3.686,4h0a.558.558,0,0,1,.786,0,.544.544,0,0,1,0,.773l-1.3,1.322,1.3,1.309a.551.551,0,0,1,0,.779.536.536,0,0,1-.786,0l-1.3-1.3-1.309,1.3a.553.553,0,0,1-.786-.779l1.31-1.309-1.31-1.322a.532.532,0,0,1,0-.773.558.558,0,0,1,.786,0l1.309,1.316,1.3-1.316Zm-1.866-11.385h0a.557.557,0,0,1,1.113,0v1.853h1.853a.547.547,0,0,1,.557.55.556.556,0,0,1-.557.556h-1.853V203.4a.557.557,0,1,1-1.113,0v-1.853h-1.846a.552.552,0,0,1-.557-.556.543.543,0,0,1,.557-.55h1.846v-1.853Zm14.049,14.03h0a.557.557,0,0,1,0,1.113H307.3a.557.557,0,0,1,0-1.113Zm0-2.206h0a.55.55,0,0,1,0,1.1H307.3a.55.55,0,0,1,0-1.1Zm0-9.971h0a.54.54,0,0,1,.544.55.55.55,0,0,1-.544.556H307.3a.545.545,0,0,1-.543-.556.535.535,0,0,1,.543-.55Z" transform="translate(-51.168 518.476)" fill="#868686"/>
  </g>
</svg>
