<svg xmlns="http://www.w3.org/2000/svg" width="72" height="56" viewBox="0 0 72 56">
  <g id="제품요청" transform="translate(-73 -704)">
    <path id="제품영역" d="M0,0H72V56H0Z" transform="translate(73 704)" fill="#fff"/>
    <text id="제품요청-2" data-name="제품요청" transform="translate(109 752)" fill="#6cd1cb" font-size="12" font-family="NotoSansCJKkr-Regular, Noto Sans CJK KR" letter-spacing="-0.03em"><tspan x="-21.54" y="0">제품요청</tspan></text>
    <g id="제품요청아이콘" transform="translate(-142.667 559.841)">
      <path id="패스_282" data-name="패스 282" d="M263.548,165.685l-3.155-5.282a.825.825,0,0,0-.759-.476H245.623a.867.867,0,0,0-.722.416l-3.157,5.288a.849.849,0,0,0,.1,1.091L252.019,176.9l.013.024a.868.868,0,0,0,1.2,0l10.2-10.2h-.012A.857.857,0,0,0,263.548,165.685Zm-5.023-4.059-2.18,3.572-2.5-3.572Zm-3.132,3.981h-5.529l2.77-3.945Zm-3.975-3.981-2.5,3.572-2.18-3.572Zm-5.59.464,2.157,3.517h-4.259Zm-1.681,4.53h4.38l2.548,6.926Zm8.487,8.221-3.017-8.221h6.029Zm1.554-1.295,2.537-6.926h4.39Zm3.09-7.939,2.151-3.517,2.108,3.517Z" fill="#6cd1cb"/>
      <path id="패스_283" data-name="패스 283" d="M240.947,171.856V157.079h1.108v.352a.381.381,0,0,0,.383.385H251.4a.388.388,0,0,0,.389-.385v-.352H252.9v1.848h1.271v-2.482a.639.639,0,0,0-.632-.641h-1.746v-.344a.388.388,0,0,0-.389-.384h-2.044a2.5,2.5,0,0,0-4.205-1.176,2.441,2.441,0,0,0-.669,1.176h-2.044a.381.381,0,0,0-.383.384v.344H240.3a.639.639,0,0,0-.633.641V172.49a.634.634,0,0,0,.633.642h5.948l-1.274-1.276Zm4.738-17.413a1.725,1.725,0,0,1,2.469,0,1.715,1.715,0,0,1,.406.633h-3.281A1.715,1.715,0,0,1,245.685,154.443Zm-2.867,2v-.6h8.2v1.211h-8.2Z" fill="#6cd1cb"/>
    </g>
  </g>
</svg>
