<svg xmlns="http://www.w3.org/2000/svg" width="72" height="56" viewBox="0 0 72 56">
  <g id="홈" transform="translate(-1 -704)">
    <path id="홈영역" d="M0,0H72V56H0Z" transform="translate(1 704)" fill="#fff"/>
    <text id="홈-2" data-name="홈" transform="translate(37 752)" fill="#868686" font-size="12" font-family="NotoSansCJKkr-Regular, Noto Sans CJK KR" letter-spacing="-0.03em"><tspan x="-5.52" y="0">홈</tspan></text>
    <g id="홈아이콘" transform="translate(-241.51 518.475)">
      <path id="패스_279" data-name="패스 279" d="M286.125,206.64a.917.917,0,0,0-.917.924v9.112H271.827v-9.112a.924.924,0,0,0-1.849,0v10.03a.925.925,0,0,0,.925.93h15.222a.919.919,0,0,0,.918-.93v-10.03A.922.922,0,0,0,286.125,206.64Z" fill="#868686"/>
      <path id="패스_280" data-name="패스 280" d="M281.637,215.523a.56.56,0,0,0,.557-.55v-8.218a.555.555,0,0,0-.557-.544h-6.245a.554.554,0,0,0-.557.544v8.218a.559.559,0,0,0,.557.55Zm-5.7-8.205h5.138v7.1h-5.138Z" fill="#868686"/>
      <path id="패스_281" data-name="패스 281" d="M290.236,205.881,279.161,194.8a.917.917,0,0,0-1.31,0l-11.075,11.081a.933.933,0,0,0,0,1.3.91.91,0,0,0,1.3,0l10.426-10.426,10.432,10.426a.92.92,0,1,0,1.3-1.3Z" fill="#868686"/>
    </g>
  </g>
</svg>
