<svg xmlns="http://www.w3.org/2000/svg" width="100" height="100" viewBox="0 0 100 100"><defs><style>.a{fill:#f5f5f5;stroke:#dad9d9;}.b{fill:#7a7a7a;}.c{stroke:none;}.d{fill:none;}</style></defs><g transform="translate(-20 -486)"><g class="a" transform="translate(20 486)"><rect class="c" width="100" height="100" rx="4"/><rect class="d" x="0.5" y="0.5" width="99" height="99" rx="3.5"/></g><g transform="translate(-186.188 280.288)"><path class="b" d="M251.588,253.253a4.853,4.853,0,1,0-4.852-4.852h0A4.857,4.857,0,0,0,251.588,253.253Zm0-7.907a3.055,3.055,0,1,1-3.054,3.055A3.055,3.055,0,0,1,251.588,245.346Z"/><path class="b" d="M278.415,265.377h-3.933v-3.934a.9.9,0,0,0-1.8,0v3.934h-3.821a.9.9,0,1,0,0,1.8h3.821v3.821a.9.9,0,1,0,1.8,0v-3.821h3.933a.9.9,0,1,0,0-1.8Z"/><path class="b" d="M280.437,258.087V241.075a5.4,5.4,0,0,0-5.422-5.363H233.554a5.349,5.349,0,0,0-5.366,5.333v27.121a5.392,5.392,0,0,0,5.366,5.413h32.685a10.517,10.517,0,0,0,17.948-7.435A10.658,10.658,0,0,0,280.437,258.087ZM233.554,237.51h41.461a3.6,3.6,0,0,1,3.625,3.565V256.87a10.455,10.455,0,0,0-4.957-1.237,10.737,10.737,0,0,0-1.176.065l-7.53-5.332a.9.9,0,0,0-1.153.092l-10.149,9.975-11.795-5.749a.874.874,0,0,0-.832.03l-11.062,6.425V241.075a3.549,3.549,0,0,1,3.534-3.565Zm-3.568,30.656v-4.949l11.55-6.707,10.785,5.269-10.174,10h-8.593A3.592,3.592,0,0,1,229.986,268.166Zm14.726,3.615,19.835-19.5,5.605,3.967a10.513,10.513,0,0,0-5.354,15.537Zm28.956,3.065a8.708,8.708,0,1,1,8.708-8.708h0A8.717,8.717,0,0,1,273.668,274.846Z"/></g></g></svg>