<svg xmlns="http://www.w3.org/2000/svg" width="65" height="80" viewBox="0 0 65 80">
  <g id="금은시세" transform="translate(-35 -454)">
    <rect id="금_은시세_영역" data-name="금/은시세_영역" width="65" height="80" rx="20" transform="translate(35 454)" fill="#fff" opacity="0"/>
    <path id="패스_641" data-name="패스 641" d="M-20.037-1.958h4.565V-.176h-4.565ZM-21.148.726h6.787V-2.86h-6.787Zm6.534-5.709a12.507,12.507,0,0,0,.253-2.849V-8.6H-21.1v.924h5.632a11.3,11.3,0,0,1-.275,2.695h-6.49v.924h9v-.924Zm1.738,6.963H-12L-8.937-8.778h-.88ZM-4-7.865c1.452,0,2.365.407,2.365,1.1S-2.547-5.654-4-5.654s-2.376-.407-2.376-1.111S-5.462-7.865-4-7.865Zm0,3.124c2.145,0,3.542-.759,3.542-2.024S-1.854-8.778-4-8.778s-3.542.759-3.542,2.013S-6.144-4.741-4-4.741ZM-6.221-2.233H-7.365V.66H-.512V-.264H-6.221ZM-8.5-3.938v.924H.49v-.924ZM7.112-8.261H5.979v1.628A5,5,0,0,1,3.361-2.1l.671.946a5.163,5.163,0,0,0,2.53-3.2A4.959,4.959,0,0,0,9.026-1.375l.66-.9A4.812,4.812,0,0,1,7.112-6.633ZM10.478-9.1V.869h1.144V-9.1Zm5.808.924h-1.1V-6.38A4.969,4.969,0,0,1,13.1-2.068l.693.858a4.787,4.787,0,0,0,1.958-2.849A4.531,4.531,0,0,0,17.584-1.43l.638-.88a4.8,4.8,0,0,1-1.936-4.125ZM18.618-5.61H17.155v.924h1.463V.385h1.067V-8.9H18.618Zm2.024-3.476V.847H21.72V-9.086Z" transform="translate(68 515)" fill="#3b3b3b"/>
    <g id="금_은_아이콘" data-name="금/은 아이콘" transform="translate(-400.512 261.668)">
      <g id="그룹_137" data-name="그룹 137">
        <path id="패스_359" data-name="패스 359" d="M460.989,215.157h-6.2a.267.267,0,0,0-.237.2l-2.015,5.743c-.078.222.048.473.237.473H463c.189,0,.315-.251.238-.473l-2.015-5.743A.267.267,0,0,0,460.989,215.157Z" fill="#d6e0e7"/>
        <path id="패스_360" data-name="패스 360" d="M471.619,215.157h-6.2a.266.266,0,0,0-.237.2l-2.015,5.743c-.079.222.048.473.236.473h10.234c.188,0,.315-.251.237-.473l-2.016-5.743A.266.266,0,0,0,471.619,215.157Z" fill="#d6e0e7"/>
        <path id="패스_361" data-name="패스 361" d="M482.235,215.157h-6.2a.266.266,0,0,0-.237.2L473.78,221.1c-.077.222.049.473.239.473h10.232c.189,0,.315-.251.237-.473l-2.015-5.743A.266.266,0,0,0,482.235,215.157Z" fill="#d6e0e7"/>
        <path id="패스_362" data-name="패스 362" d="M466.442,208.744h-6.2a.267.267,0,0,0-.237.2l-2.016,5.742c-.077.222.049.473.238.473h10.233c.188,0,.314-.251.236-.473l-2.014-5.742A.267.267,0,0,0,466.442,208.744Z" fill="#d6e0e7"/>
        <path id="패스_363" data-name="패스 363" d="M468.458,215.157h-1.77l-2.251-6.413h2a.268.268,0,0,1,.238.2l2.014,5.742C468.773,214.906,468.646,215.157,468.458,215.157Z" fill="#a6b9c6"/>
        <path id="패스_364" data-name="패스 364" d="M477.072,208.744h-6.2a.267.267,0,0,0-.237.2l-2.015,5.742c-.078.222.047.473.236.473h10.233c.189,0,.315-.251.238-.473l-2.015-5.742A.267.267,0,0,0,477.072,208.744Z" fill="#fab933"/>
        <path id="패스_365" data-name="패스 365" d="M479.087,215.157h-1.769l-2.251-6.413h2.005a.267.267,0,0,1,.238.2l2.015,5.742C479.4,214.906,479.276,215.157,479.087,215.157Z" fill="#f69733"/>
        <path id="패스_366" data-name="패스 366" d="M471.757,202.332h-6.2a.267.267,0,0,0-.239.2l-2.015,5.742c-.077.223.049.473.238.473h10.232c.19,0,.316-.25.237-.473l-2.015-5.742A.266.266,0,0,0,471.757,202.332Z" fill="#fab933"/>
        <path id="패스_367" data-name="패스 367" d="M473.772,208.744H472l-2.252-6.412h2a.266.266,0,0,1,.237.2l2.016,5.742C474.088,208.494,473.962,208.744,473.772,208.744Z" fill="#f69733"/>
        <path id="패스_368" data-name="패스 368" d="M463,221.57h-1.769l-2.251-6.413h2.005a.267.267,0,0,1,.238.2l2.015,5.743C463.319,221.319,463.194,221.57,463,221.57Z" fill="#a6b9c6"/>
        <path id="패스_369" data-name="패스 369" d="M473.635,221.57h-1.77l-2.25-6.413h2a.266.266,0,0,1,.237.2l2.016,5.743C473.95,221.319,473.823,221.57,473.635,221.57Z" fill="#a6b9c6"/>
        <path id="패스_370" data-name="패스 370" d="M484.251,221.57h-1.769l-2.252-6.413h2a.266.266,0,0,1,.238.2l2.015,5.743C484.566,221.319,484.44,221.57,484.251,221.57Z" fill="#a6b9c6"/>
      </g>
      <g id="그룹_145" data-name="그룹 145">
        <g id="그룹_138" data-name="그룹 138">
          <path id="패스_371" data-name="패스 371" d="M459.116,219.542c0,.006,0,.014,0,.018a3.861,3.861,0,0,0-.725.5.818.818,0,0,0,1.157,1.157,3.633,3.633,0,0,0,.5-.725.141.141,0,0,0,.02,0A1.721,1.721,0,0,1,459.116,219.542Z" fill="none"/>
          <path id="패스_372" data-name="패스 372" d="M461.63,220.335c-.036.023-.116.085-.116.085a1.66,1.66,0,0,1-.216.083.308.308,0,0,0,.063-.01,3.67,3.67,0,0,0,.5.725.818.818,0,1,0,1.156-1.157,3.8,3.8,0,0,0-.725-.5.466.466,0,0,0,.023-.191A1.582,1.582,0,0,1,461.63,220.335Z" fill="none"/>
          <path id="패스_373" data-name="패스 373" d="M459.354,217.872a1.562,1.562,0,0,1,.936-.577.594.594,0,0,0-.238.023,3.713,3.713,0,0,0-.5-.724.818.818,0,0,0-1.157,1.156,3.77,3.77,0,0,0,.725.5.558.558,0,0,0-.01.063,1.725,1.725,0,0,1,.147-.324S459.324,217.912,459.354,217.872Z" fill="none"/>
          <path id="패스_374" data-name="패스 374" d="M463.019,216.594a.816.816,0,0,0-1.156,0,3.752,3.752,0,0,0-.5.724.734.734,0,0,0-.29-.029,1.6,1.6,0,0,1,1.242,1.175.473.473,0,0,0-.019-.213,3.707,3.707,0,0,0,.725-.5A.816.816,0,0,0,463.019,216.594Z" fill="none"/>
          <path id="패스_375" data-name="패스 375" d="M464.15,218.906c-.016-.018,0-.026.015-.044a2.562,2.562,0,0,0-.049-3.4,2.38,2.38,0,0,0-3.377-.007.045.045,0,0,1-.064,0,2.44,2.44,0,0,0-3.6,3.266.565.565,0,0,1,.037.053c.031.036.062.07.094.1a.045.045,0,0,1,0,.064,2.454,2.454,0,0,0-.5,2.632h7.965A2.485,2.485,0,0,0,464.15,218.906Zm-1.837-.442a1.727,1.727,0,0,1,.063.442,1.887,1.887,0,0,1-.059.463.466.466,0,0,1-.023.191,3.8,3.8,0,0,1,.725.5.818.818,0,1,1-1.156,1.157,3.67,3.67,0,0,1-.5-.725.308.308,0,0,1-.063.01,1.691,1.691,0,0,1-.591.118,1.718,1.718,0,0,1-.635-.124.141.141,0,0,1-.02,0,3.633,3.633,0,0,1-.5.725.818.818,0,0,1-1.157-1.157,3.861,3.861,0,0,1,.725-.5s0-.012,0-.018a1.612,1.612,0,0,1-.007-1.228.558.558,0,0,1,.01-.063,3.77,3.77,0,0,1-.725-.5.818.818,0,0,1,1.157-1.156,3.713,3.713,0,0,1,.5.724.594.594,0,0,1,.238-.023,2.019,2.019,0,0,1,.417-.044,1.8,1.8,0,0,1,.364.038.734.734,0,0,1,.29.029,3.752,3.752,0,0,1,.5-.724.817.817,0,0,1,1.156,1.156,3.707,3.707,0,0,1-.725.5A.473.473,0,0,1,462.313,218.464Z" fill="#a6b9c6"/>
          <path id="패스_376" data-name="패스 376" d="M461.071,217.289a2.557,2.557,0,0,0-.418.061,2.18,2.18,0,0,0-.363-.055,1.562,1.562,0,0,0-.936.577c-.03.04-.1.118-.1.118a1.725,1.725,0,0,0-.147.324,1.607,1.607,0,0,0,.055.592,1.437,1.437,0,0,0-.048.636,1.721,1.721,0,0,0,.956.955,1.5,1.5,0,0,0,.635-.036.953.953,0,0,0,.807-.041s.08-.062.116-.085a1.582,1.582,0,0,0,.687-.966,2.124,2.124,0,0,0-.1-.507,1.621,1.621,0,0,0,.1-.4A1.6,1.6,0,0,0,461.071,217.289Z" fill="#a6b9c6"/>
          <path id="패스_377" data-name="패스 377" d="M461.071,217.289a1.8,1.8,0,0,0-.364-.038,2.019,2.019,0,0,0-.417.044,2.18,2.18,0,0,1,.363.055A2.557,2.557,0,0,1,461.071,217.289Z" fill="#a6b9c6"/>
          <path id="패스_378" data-name="패스 378" d="M460.707,220.461a1.5,1.5,0,0,1-.635.036,1.718,1.718,0,0,0,.635.124,1.691,1.691,0,0,0,.591-.118A1.656,1.656,0,0,1,460.707,220.461Z" fill="#a6b9c6"/>
          <path id="패스_379" data-name="패스 379" d="M462.317,219.369a1.887,1.887,0,0,0,.059-.463,1.727,1.727,0,0,0-.063-.442,1.621,1.621,0,0,1-.1.4A2.124,2.124,0,0,1,462.317,219.369Z" fill="#a6b9c6"/>
          <path id="패스_380" data-name="패스 380" d="M459.164,218.906a1.607,1.607,0,0,1-.055-.592,1.612,1.612,0,0,0,.007,1.228A1.437,1.437,0,0,1,459.164,218.906Z" fill="#a6b9c6"/>
        </g>
        <path id="패스_381" data-name="패스 381" d="M477.178,226.212,476,225.022a.139.139,0,0,0-.2,0l-.454.438-.981.982a.136.136,0,0,0,0,.195l.375.375a.139.139,0,0,1,0,.2l-.783.784a.141.141,0,0,1-.2,0l-.375-.376a.139.139,0,0,0-.2,0l-1.045,1.045,1.64,2.03,2.113,1.723,1.044-1.045a.137.137,0,0,0,0-.2l-.375-.375a.141.141,0,0,1,0-.2l.784-.783a.139.139,0,0,1,.2,0l.375.375a.138.138,0,0,0,.2,0l.982-.982.427-.454a.138.138,0,0,0,0-.195l-1.143-1.152a.138.138,0,0,0-.2,0l-.408.416c-.009.009-.052.009-.052.009a.14.14,0,0,1-.164-.024l-.783-.783a.14.14,0,0,1-.023-.165.107.107,0,0,1,.013-.041l.409-.414A.142.142,0,0,0,477.178,226.212Z" fill="#fab933"/>
        <path id="패스_382" data-name="패스 382" d="M476.754,226.869l-1.408-1.409.455-.455a.141.141,0,0,1,.2,0l1.207,1.207a.14.14,0,0,1,0,.2l-.425.424A.136.136,0,0,0,476.754,226.869Z" fill="#f69733"/>
        <path id="패스_383" data-name="패스 383" d="M479.1,229.213l-1.375-1.376a.114.114,0,0,0,.035-.025l.425-.424a.136.136,0,0,1,.2,0l1.175,1.175a.139.139,0,0,1,0,.195Z" fill="#f69733"/>
        <g id="그룹_139" data-name="그룹 139">
          <path id="패스_384" data-name="패스 384" d="M474.8,229.378a.345.345,0,0,1,.1-.244l1.011-1.011a.345.345,0,0,1,.489.488l-1.011,1.012a.345.345,0,0,1-.59-.245Z" fill="#f69733"/>
        </g>
        <path id="패스_385" data-name="패스 385" d="M476.439,234.091l0,0a.8.8,0,0,1-1.138,0l-11.9-11.9,1.1-1.1,11.9,11.9a.743.743,0,0,1,.082,1.032.155.155,0,0,0-.021.042l-.016.016Z" fill="#fab933"/>
        <path id="패스_386" data-name="패스 386" d="M476.455,234.075,463.99,221.61l.553-.553,11.9,11.9A.8.8,0,0,1,476.455,234.075Z" fill="#f69733"/>
        <path id="패스_387" data-name="패스 387" d="M460.927,215.064a.046.046,0,0,1-.065,0,2.439,2.439,0,0,0-3.6,3.266c.013.016.037.053.037.053.03.035.061.07.093.1a.044.044,0,0,1,0,.063,2.453,2.453,0,0,0,3.468,3.468.05.05,0,0,1,.065,0,2.451,2.451,0,0,0,2.883.385l.091-.06a2.421,2.421,0,0,0,.436-.38,2.461,2.461,0,0,0,0-3.444c-.017-.018,0-.026.014-.044a2.562,2.562,0,0,0-.048-3.4,2.379,2.379,0,0,0-3.377-.007Zm2.28,2.3a3.719,3.719,0,0,1-.726.5,1.074,1.074,0,0,1-.081.611,1.446,1.446,0,0,1,.081.7,3.763,3.763,0,0,1,.726.5.818.818,0,0,1-1.156,1.157,3.7,3.7,0,0,1-.5-.725,6.72,6.72,0,0,0-1.31,0,3.663,3.663,0,0,1-.5.725.818.818,0,0,1-1.156-1.157,3.782,3.782,0,0,1,.725-.5,4.784,4.784,0,0,0,0-1.309,3.738,3.738,0,0,1-.725-.5.817.817,0,0,1,1.156-1.156,3.681,3.681,0,0,1,.5.724,1.324,1.324,0,0,1,.6.031,1.543,1.543,0,0,1,.708-.031,3.719,3.719,0,0,1,.5-.724.817.817,0,0,1,1.156,1.156Z" fill="#fab933"/>
        <g id="그룹_140" data-name="그룹 140">
          <path id="패스_388" data-name="패스 388" d="M463.808,222.4l0,0a2.453,2.453,0,0,0,.217-3.22,1.867,1.867,0,0,1-.219,3.223Z" fill="#f69733"/>
          <path id="패스_389" data-name="패스 389" d="M457.3,218.385a2.455,2.455,0,0,1,.654-3.738c-.014.4-.026.877-.041.892s-.042.043-.063.064A2.547,2.547,0,0,0,457.3,218.385Z" fill="#f69733"/>
          <path id="패스_390" data-name="패스 390" d="M464.847,221.3a2.1,2.1,0,0,1-.087-1.192c0-.391-.5-.621-.733-.928a1.56,1.56,0,0,0-.131-.151.738.738,0,0,1,0-1.023,1.758,1.758,0,0,0-.022-2.468,1.769,1.769,0,0,0-2.468-.023.735.735,0,0,1-1.023,0,1.769,1.769,0,0,0-2.468.023c-.111.111-.372-.046-.67-.287a2.453,2.453,0,0,1,3.617-.233.045.045,0,0,0,.064,0,2.453,2.453,0,0,1,3.468,3.468.045.045,0,0,0,0,.063A2.456,2.456,0,0,1,464.847,221.3Z" fill="#f69733"/>
        </g>
        <path id="패스_391" data-name="패스 391" d="M460.894,220.234a1.7,1.7,0,0,0,.807-.2s.08-.062.116-.085a1.693,1.693,0,1,0-2.275-2.463c-.03.04-.1.118-.1.118a1.716,1.716,0,0,0,1.451,2.631Z" fill="#fab64b"/>
        <path id="패스_392" data-name="패스 392" d="M461.7,220.033a1.716,1.716,0,0,0-2.258-2.43,1.716,1.716,0,1,1,2.258,2.43Z" fill="#f69733"/>
        <g id="그룹_144" data-name="그룹 144">
          <g id="그룹_141" data-name="그룹 141">
            <path id="패스_393" data-name="패스 393" d="M468.834,225.312l-.553.589-.575.575a.689.689,0,0,1-.976,0l0,0-.027-.028a.312.312,0,0,0-.023-.073.664.664,0,0,1,.082-.875l1.107-1.087a.692.692,0,0,1,.962-.038A.65.65,0,0,1,468.834,225.312Z" fill="#fbbd4e"/>
            <path id="패스_394" data-name="패스 394" d="M467.86,225.48l.42.421.553-.553.033-.032a.67.67,0,0,0,0-.951.353.353,0,0,0-.043-.039h0a.694.694,0,0,0-.947.026l-.774.479-.372.668a.689.689,0,0,0-.027.946l.965-.964A.138.138,0,0,1,467.86,225.48Z" fill="#f69733"/>
          </g>
          <g id="그룹_142" data-name="그룹 142">
            <path id="패스_395" data-name="패스 395" d="M467.852,224.33l-.553.589-.575.576a.692.692,0,0,1-.975,0l0,0-.026-.029a.257.257,0,0,0-.025-.073.666.666,0,0,1,.082-.875l1.108-1.088a.694.694,0,0,1,.962-.037A.65.65,0,0,1,467.852,224.33Z" fill="#fbbd4e"/>
            <path id="패스_396" data-name="패스 396" d="M466.878,224.5l.421.421.553-.552.032-.034a.669.669,0,0,0,0-.95c-.029-.029-.006-.006-.042-.04h0a.7.7,0,0,0-.948.027l-.774.478-.372.667a.69.69,0,0,0-.026.947l.964-.964A.139.139,0,0,1,466.878,224.5Z" fill="#f69733"/>
          </g>
          <g id="그룹_143" data-name="그룹 143">
            <path id="패스_397" data-name="패스 397" d="M466.87,223.348l-.553.589-.575.575a.687.687,0,0,1-.974,0l-.005,0-.026-.027a.285.285,0,0,0-.024-.074.663.663,0,0,1,.082-.874l1.107-1.088a.692.692,0,0,1,.962-.037.647.647,0,0,1,.006.94Z" fill="#fbbd4e"/>
            <path id="패스_398" data-name="패스 398" d="M465.9,223.517l.421.42.553-.552.032-.033a.669.669,0,0,0,0-.95.334.334,0,0,0-.042-.04h0a.694.694,0,0,0-.947.026l-1.146,1.147a.689.689,0,0,0-.026.947l.964-.964A.136.136,0,0,1,465.9,223.517Z" fill="#f69733"/>
          </g>
        </g>
      </g>
    </g>
  </g>
</svg>
