<svg xmlns="http://www.w3.org/2000/svg" xmlns:xlink="http://www.w3.org/1999/xlink" width="52" height="52" viewBox="0 0 52 52"><defs><style>.a{fill:#fff;stroke:#27c0d9;stroke-width:2px;}.b{fill:#27c0d9;}.c{stroke:none;}.d{fill:none;}.e{filter:url(#a);}</style><filter id="a" x="0" y="0" width="52" height="52" filterUnits="userSpaceOnUse"><feOffset dy="3" input="SourceAlpha"/><feGaussianBlur stdDeviation="2" result="b"/><feFlood flood-color="#2195a8" flood-opacity="0.4"/><feComposite operator="in" in2="b"/><feComposite in="SourceGraphic"/></filter></defs><g transform="translate(-280 -202)"><g class="e" transform="matrix(1, 0, 0, 1, 280, 202)"><g class="a" transform="translate(6 3)"><rect class="c" width="40" height="40" rx="10"/><rect class="d" x="1" y="1" width="38" height="38" rx="9"/></g></g><g transform="translate(-587.64 -198.345)"><path class="b" d="M898.929,415.965a.924.924,0,0,0-.88.443,3.224,3.224,0,0,0,0,2.508,1.1,1.1,0,0,0,1.759,0,2.554,2.554,0,0,0,.251-1.253,2.584,2.584,0,0,0-.251-1.255A.924.924,0,0,0,898.929,415.965Zm.376,2.564a.365.365,0,0,1-.375.3.372.372,0,0,1-.381-.3,3.11,3.11,0,0,1-.094-.866,3,3,0,0,1,.094-.88.372.372,0,0,1,.381-.286.363.363,0,0,1,.375.286,3.139,3.139,0,0,1,.093.88A3.22,3.22,0,0,1,899.3,418.529Zm-13.819,16.815h16.307a1.851,1.851,0,0,0,1.846-1.846V413.191a1.853,1.853,0,0,0-1.846-1.846H885.486a1.851,1.851,0,0,0-1.846,1.846V433.5A1.851,1.851,0,0,0,885.486,435.344Zm4.775-3.826a.482.482,0,0,1-.483.484h-3.441a.484.484,0,0,1-.481-.484v-1.135a.483.483,0,0,1,.481-.482h3.441a.482.482,0,0,1,.483.482v1.135Zm0-3.565a.483.483,0,0,1-.483.484h-3.441a.484.484,0,0,1-.481-.484v-1.136a.482.482,0,0,1,.481-.481h3.441a.482.482,0,0,1,.483.481v1.136Zm0-3.568a.483.483,0,0,1-.483.482h-3.441a.483.483,0,0,1-.481-.482V423.25a.484.484,0,0,1,.481-.484h3.441a.483.483,0,0,1,.483.484v1.135Zm5.614,7.133a.483.483,0,0,1-.484.484h-3.44a.483.483,0,0,1-.48-.484v-1.135a.482.482,0,0,1,.48-.482h3.44a.483.483,0,0,1,.484.482v1.135Zm0-3.565a.484.484,0,0,1-.484.484h-3.44a.483.483,0,0,1-.48-.484v-1.136a.482.482,0,0,1,.48-.481h3.44a.484.484,0,0,1,.484.481v1.136Zm0-3.568a.484.484,0,0,1-.484.482h-3.44a.482.482,0,0,1-.48-.482V423.25a.483.483,0,0,1,.48-.484h3.44a.484.484,0,0,1,.484.484v1.135Zm5.614,7.133a.483.483,0,0,1-.481.484h-3.439a.484.484,0,0,1-.485-.484v-1.135a.484.484,0,0,1,.485-.482h3.439a.483.483,0,0,1,.481.482Zm0-3.565a.484.484,0,0,1-.481.484h-3.439a.485.485,0,0,1-.485-.484v-1.136a.484.484,0,0,1,.485-.481h3.439a.483.483,0,0,1,.481.481Zm0-3.568a.483.483,0,0,1-.481.482h-3.439a.484.484,0,0,1-.485-.482V423.25a.485.485,0,0,1,.485-.484h3.439a.484.484,0,0,1,.481.484Zm-15.7-9.7h15.651v5.684H885.79Z" transform="translate(0 0)"/></g></g></svg>