<svg xmlns="http://www.w3.org/2000/svg" width="28" height="28" viewBox="0 0 28 28"><defs><style>.a{fill:#2dcb9b;}.b{fill:#26c5df;}.c{fill:#e0eef1;}.d{fill:#fb7686;}.e{fill:#d15241;}.f{fill:#f5f5f5;}</style></defs><g transform="translate(-283.64 -406.945)"><path class="a" d="M310.615,431.44l-2.406-8.212h-2.167l-6.779,3.144Z"/><path class="a" d="M287.073,423.228l-2.16,7.375,16.792-7.375Z"/><path class="b" d="M284.091,433.406l-.451,1.539h28l-.173-.589-14.584-6.881Z"/><path class="c" d="M299.262,426.372l6.779-3.144H301.7L284.913,430.6l-.821,2.8,12.792-5.931,14.584,6.881-.853-2.916Z"/><path class="d" d="M290.057,414.528c0,4.189,7.583,12.808,7.583,12.808V406.945A7.583,7.583,0,0,0,290.057,414.528Z"/><path class="e" d="M297.64,406.945v20.391s7.584-8.619,7.584-12.808A7.583,7.583,0,0,0,297.64,406.945Z"/><path class="f" d="M296.4,409.5a3.791,3.791,0,1,1-3.79,3.791A3.792,3.792,0,0,1,296.4,409.5Z" transform="translate(1.241 1.241)"/></g></svg>