<svg xmlns="http://www.w3.org/2000/svg" width="72" height="56" viewBox="0 0 72 56">
  <g id="시세" transform="translate(-289 -704)">
    <path id="시세영역" d="M0,0H72V56H0Z" transform="translate(289 704)" fill="#fff"/>
    <text id="시세-2" data-name="시세" transform="translate(325 752)" fill="#6cd1cb" font-size="12" font-family="NotoSansCJKkr-Regular, Noto Sans CJK KR" letter-spacing="-0.03em"><tspan x="-10.86" y="0">시세</tspan></text>
    <g id="시세아이콘" transform="translate(-233.917 434.67)">
      <path id="패스_539" data-name="패스 539" d="M567.269,290.455h-1.746l1.447-5.555a.875.875,0,0,0-1.694-.441l-1.56,6H561.39l-1.735-6.082a.876.876,0,0,0-.841-.636h0a.874.874,0,0,0-.84.634l-1.748,6.084h-2.2l-1.448-6.017a.875.875,0,1,0-1.7.409l1.349,5.608h-1.662a.875.875,0,0,0,0,1.75h2.083l1.455,6.047a.876.876,0,0,0,.832.671h.019a.875.875,0,0,0,.841-.633l1.748-6.085h2.525l1.734,6.083a.875.875,0,0,0,1.688-.02l1.578-6.063h2.2a.875.875,0,0,0,0-1.75Zm-12.24,4.163-.581-2.413h1.275Zm3.017-4.163.764-2.662.759,2.662Zm4.559,4.267-.717-2.517h1.373Z" fill="#6cd1cb"/>
      <path id="패스_540" data-name="패스 540" d="M558.917,278.33a12,12,0,1,0,12,12A12,12,0,0,0,558.917,278.33Zm0,22.8a10.8,10.8,0,1,1,10.8-10.8A10.812,10.812,0,0,1,558.917,301.13Z" fill="#6cd1cb"/>
    </g>
  </g>
</svg>
