<svg xmlns="http://www.w3.org/2000/svg" xmlns:xlink="http://www.w3.org/1999/xlink" width="259" height="209" viewBox="0 0 259 209"><defs><style>.a{fill:#fff;}.b{fill:#f5f5f5;}.c{fill:#868686;font-size:12px;}.c,.m{font-family:NotoSansCJKkr-Medium, Noto Sans CJK KR;font-weight:500;letter-spacing:-0.03em;}.d,.m{fill:#3b3b3b;}.d{font-size:16px;font-family:NotoSansCJKkr-Bold, Noto Sans CJK KR;font-weight:700;}.e,.i{fill:#11ae99;}.e{text-decoration:underline;}.f,.g{fill:#00b5d3;}.f{opacity:0.2;}.g{opacity:0.3;}.h{fill:#dfdfdf;}.j{fill:#6cd1cb;}.k{fill:#384148;}.l{fill:none;stroke:#010002;stroke-miterlimit:10;stroke-width:0.75px;}.m{font-size:14px;}.n{filter:url(#c);}.o{filter:url(#a);}</style><filter id="a" x="3" y="11" width="253" height="198" filterUnits="userSpaceOnUse"><feOffset dy="4" input="SourceAlpha"/><feGaussianBlur stdDeviation="3" result="b"/><feFlood flood-opacity="0.161"/><feComposite operator="in" in2="b"/><feComposite in="SourceGraphic"/></filter><filter id="c" x="0" y="0" width="259" height="204" filterUnits="userSpaceOnUse"><feOffset dy="-4" input="SourceAlpha"/><feGaussianBlur stdDeviation="4" result="d"/><feFlood flood-color="#fff"/><feComposite operator="in" in2="d"/><feComposite in="SourceGraphic"/></filter></defs><g transform="translate(-8 -531)"><g class="o" transform="matrix(1, 0, 0, 1, 8, 531)"><rect class="a" width="235" height="180" rx="10" transform="translate(12 16)"/></g><g class="n" transform="matrix(1, 0, 0, 1, 8, 531)"><rect class="b" width="235" height="180" rx="10" transform="translate(12 16)"/></g><text class="c" transform="translate(35 579)"><tspan x="0" y="0">중량 얼마? 공임 얼마?</tspan></text><text class="d" transform="translate(35 602)"><tspan x="0" y="0">계산기 두드리고 하는 실수,</tspan><tspan x="0" y="20">제품 소싱할 때 </tspan><tspan class="e" y="20">간단 계산법</tspan></text><g transform="translate(5.402 41.5)"><ellipse class="f" cx="12.5" cy="13" rx="12.5" ry="13" transform="translate(214.598 594.5)"/><ellipse class="f" cx="9.5" cy="9" rx="9.5" ry="9" transform="translate(175.598 644.5)"/><circle class="g" cx="8" cy="8" r="8" transform="translate(209.598 591.5)"/><g transform="translate(190.259 610.988)"><path class="h" d="M317.375,409.157v-14.3a3.906,3.906,0,0,0-3.906-3.908H277.395a3.906,3.906,0,0,0-3.906,3.908v14.3Z" transform="translate(-273.488 -390.944)"/><path class="i" d="M273.489,409.985v33.306a3.907,3.907,0,0,0,3.906,3.907h36.074a3.906,3.906,0,0,0,3.906-3.907V409.985Z" transform="translate(-273.488 -392.686)"/><g transform="translate(3.454 20.446)"><path class="j" d="M300.391,437.742h-6.5a1.709,1.709,0,0,0-1.708,1.709v3.812a1.709,1.709,0,0,0,1.708,1.71h6.5a1.709,1.709,0,0,0,1.708-1.71v-3.812A1.709,1.709,0,0,0,300.391,437.742Z" transform="translate(-278.652 -415.67)"/><path class="j" d="M285.5,437.742H279a1.709,1.709,0,0,0-1.709,1.709v3.812a1.71,1.71,0,0,0,1.709,1.71h6.5a1.71,1.71,0,0,0,1.709-1.71v-3.812A1.709,1.709,0,0,0,285.5,437.742Z" transform="translate(-277.29 -415.67)"/><path class="j" d="M300.391,425.6h-6.5a1.708,1.708,0,0,0-1.708,1.708v3.814a1.708,1.708,0,0,0,1.708,1.708h6.5a1.708,1.708,0,0,0,1.708-1.708V427.3A1.707,1.707,0,0,0,300.391,425.6Z" transform="translate(-278.652 -414.559)"/><path class="j" d="M285.5,425.6H279a1.708,1.708,0,0,0-1.709,1.708v3.814A1.709,1.709,0,0,0,279,432.826h6.5a1.709,1.709,0,0,0,1.709-1.708V427.3A1.708,1.708,0,0,0,285.5,425.6Z" transform="translate(-277.29 -414.559)"/><path class="j" d="M300.391,413.448h-6.5a1.709,1.709,0,0,0-1.708,1.71v3.812a1.709,1.709,0,0,0,1.708,1.709h6.5a1.709,1.709,0,0,0,1.708-1.709v-3.812A1.708,1.708,0,0,0,300.391,413.448Z" transform="translate(-278.652 -413.448)"/><path class="j" d="M285.5,413.448H279a1.709,1.709,0,0,0-1.709,1.71v3.812A1.709,1.709,0,0,0,279,420.679h6.5a1.709,1.709,0,0,0,1.709-1.709v-3.812A1.709,1.709,0,0,0,285.5,413.448Z" transform="translate(-277.29 -413.448)"/><path class="j" d="M308.786,413.448h6.5a1.71,1.71,0,0,1,1.709,1.71v3.812a1.709,1.709,0,0,1-1.709,1.709h-6.5a1.707,1.707,0,0,1-1.707-1.709v-3.812A1.707,1.707,0,0,1,308.786,413.448Z" transform="translate(-280.015 -413.448)"/></g><path class="j" d="M308.786,425.6h6.5a1.709,1.709,0,0,1,1.709,1.708v14.848a1.71,1.71,0,0,1-1.709,1.71h-6.5a1.708,1.708,0,0,1-1.707-1.71V427.3A1.706,1.706,0,0,1,308.786,425.6Z" transform="translate(-276.56 -394.113)"/><path class="a" d="M312.56,395.811H279a1.709,1.709,0,0,0-1.709,1.708v5.962A1.709,1.709,0,0,0,279,405.189H312.56a1.709,1.709,0,0,0,1.709-1.708v-5.962A1.709,1.709,0,0,0,312.56,395.811Z" transform="translate(-273.836 -391.389)"/><g transform="translate(28.11 6.148)"><path class="k" d="M313.323,403.636a.88.88,0,0,1-.88-.88v-4.165a.88.88,0,1,1,1.761,0v4.165A.88.88,0,0,1,313.323,403.636Z" transform="translate(-305.161 -397.711)"/><path class="k" d="M309.316,403.636a.881.881,0,0,1-.881-.88v-4.165a.881.881,0,0,1,1.762,0v4.165A.881.881,0,0,1,309.316,403.636Z" transform="translate(-304.794 -397.711)"/><path class="k" d="M305.308,403.636a.881.881,0,0,1-.88-.88v-4.165a.881.881,0,0,1,1.762,0v4.165A.881.881,0,0,1,305.308,403.636Z" transform="translate(-304.428 -397.711)"/></g></g></g><g transform="translate(0 44)"><path class="l" d="M254.606,407.07l5,5-5,5" transform="translate(-152.606 245.43)"/><text class="m" transform="translate(35 662)"><tspan x="0" y="0">제품계산기</tspan></text></g></g></svg>