<svg xmlns="http://www.w3.org/2000/svg" width="140" height="24.316" viewBox="0 0 140 24.316"><defs><style>.a{fill:#fff;}</style></defs><g transform="translate(-997.445 -207.919)"><path class="a" d="M1013.2,223.38a7.129,7.129,0,0,0-2.152-.955,10.076,10.076,0,0,0-5.054,0,7.14,7.14,0,0,0-2.154.955,4.968,4.968,0,0,0-1.509,1.574,4.38,4.38,0,0,0,0,4.307,4.986,4.986,0,0,0,1.509,1.57,7.14,7.14,0,0,0,2.154.955,10.107,10.107,0,0,0,5.054,0,7.129,7.129,0,0,0,2.152-.955,4.964,4.964,0,0,0,1.509-1.57,4.359,4.359,0,0,0,0-4.307A4.946,4.946,0,0,0,1013.2,223.38Zm-2.334,5.286a4.219,4.219,0,0,1-2.32.579,4.342,4.342,0,0,1-2.372-.579,1.8,1.8,0,0,1,0-3.121,4.342,4.342,0,0,1,2.372-.579,4.219,4.219,0,0,1,2.32.579,1.8,1.8,0,0,1,0,3.121Z"/><path class="a" d="M999.795,214.817l.006.018a5.192,5.192,0,0,0,.4,1.13,3.015,3.015,0,0,0,.5.877c.127.119.358.139.682.053a15.2,15.2,0,0,0,2.115-.71,16.558,16.558,0,0,0,2.063-1.034,14.637,14.637,0,0,0,1.8-1.249,9,9,0,0,0,1.151-1.108,9.077,9.077,0,0,0,1.152,1.108,14.487,14.487,0,0,0,1.805,1.249,16.483,16.483,0,0,0,2.063,1.034,15.153,15.153,0,0,0,2.115.71c.324.086.555.066.682-.053a3,3,0,0,0,.5-.877,5.234,5.234,0,0,0,.4-1.13l.005-.018s0-.008,0-.012a.763.763,0,0,0,.005-.078c0-.207-.153-.351-.465-.439a14.415,14.415,0,0,1-1.583-.567c-.052-.021-.1-.046-.156-.07a16.939,16.939,0,0,1-3.345-1.992,3.882,3.882,0,0,1-1.084-1.161h5.9v-2.579h-16V210.5h5.9a3.9,3.9,0,0,1-1.083,1.161,16.463,16.463,0,0,1-1.687,1.135,16.729,16.729,0,0,1-1.659.857c-.051.024-.1.049-.154.07a14.577,14.577,0,0,1-1.585.567c-.312.088-.465.232-.465.439a.573.573,0,0,0,.007.078Z"/><path class="a" d="M1010.3,216.53a.574.574,0,0,0-.464-.582,4.6,4.6,0,0,0-1.289-.14,4.453,4.453,0,0,0-1.342.153.594.594,0,0,0-.464.594v1.707h-9.3v2.809H1019.6v-2.809h-9.3Z"/><path class="a" d="M1034.09,220.76h6.035V217.9h-11.786a.458.458,0,0,1-.309-.089.5.5,0,0,1-.1-.374v-1.65h12.2V209.1a1.145,1.145,0,0,0-.323-.889,1.262,1.262,0,0,0-.89-.3H1024.5v2.862h12.2v2.14h-12.2v4.771a1.609,1.609,0,0,0,.36.914,7.232,7.232,0,0,0,.75.891,9.077,9.077,0,0,0,.993.853,1.78,1.78,0,0,0,1.043.41h2.889v2.531h-9.3V226.1h22.152v-2.811h-9.3Z"/><path class="a" d="M1129.593,212.846a6.259,6.259,0,0,0-2.128-1.378,7.693,7.693,0,0,0-5.414,0,6.24,6.24,0,0,0-2.128,1.378,6.154,6.154,0,0,0-1.38,2.128,8.015,8.015,0,0,0,0,5.519,6.076,6.076,0,0,0,3.508,3.507,7.737,7.737,0,0,0,5.414,0,6.232,6.232,0,0,0,2.128-1.379,6.375,6.375,0,0,0,1.393-2.128,7.834,7.834,0,0,0,0-5.519A6.375,6.375,0,0,0,1129.593,212.846Zm-2.5,7.66a3.18,3.18,0,0,1-4.666,0,4.634,4.634,0,0,1,0-5.532,3.155,3.155,0,0,1,4.666,0,4.638,4.638,0,0,1,0,5.532Z"/><path class="a" d="M1133.887,208.074v23.439a.575.575,0,0,0,.464.582,4.635,4.635,0,0,0,1.29.14,4.457,4.457,0,0,0,1.339-.154.594.594,0,0,0,.465-.594V208.074Z"/><path class="a" d="M1069.908,224.282h9.3v7.1a.571.571,0,0,0,.464.581,4.588,4.588,0,0,0,1.289.141,4.469,4.469,0,0,0,1.341-.153.593.593,0,0,0,.464-.594v-7.078h9.3v-2.809h-22.152Z"/><path class="a" d="M1074.253,217.95a8.668,8.668,0,0,0,.994.852,1.779,1.779,0,0,0,1.044.414h12.532v-2.862h-11.836a.459.459,0,0,1-.308-.091.5.5,0,0,1-.106-.375v-.9h12.25v-2.862h-12.25v-1.342h12.25v-2.862h-15.679v8.226a1.612,1.612,0,0,0,.362.915A7.145,7.145,0,0,0,1074.253,217.95Z"/><path class="a" d="M1111.425,231.424a.548.548,0,0,0,.452.565,4.749,4.749,0,0,0,1.251.129,4.877,4.877,0,0,0,1.275-.129.548.548,0,0,0,.451-.565v-23.35h-3.429Z"/><path class="a" d="M1106.66,208.074v7.272h-4.023v3.018h4.023v13.06a.548.548,0,0,0,.451.565,4.745,4.745,0,0,0,1.25.129,4.889,4.889,0,0,0,1.277-.129.548.548,0,0,0,.451-.565v-23.35h-3.429Z"/><path class="a" d="M1099.354,221.923h-.823c-.378,0-.566-.2-.566-.592v-7.742h6.682v-3.066h-8.7v0h-1.541v11.321a1.789,1.789,0,0,0,.337.916,6.114,6.114,0,0,0,.747.965,5.775,5.775,0,0,0,1.058.827,2.185,2.185,0,0,0,1.133.386h6.967v-3.017h-5.293Z"/><path class="a" d="M1064.6,210.79a.922.922,0,0,0-.749-.385H1049.1a.92.92,0,0,0-.748.385l-3.69,5.117a.921.921,0,0,0-.071.96.89.89,0,0,0,.138.2h0l11.075,12.25.011.01a.881.881,0,0,0,.128.117l.021.013a.89.89,0,0,0,.13.075l.049.021a.952.952,0,0,0,.121.038l.048.013a1.031,1.031,0,0,0,.177.018,1.008,1.008,0,0,0,.175-.018c.017,0,.031-.008.049-.013a.891.891,0,0,0,.12-.038l.05-.022a.834.834,0,0,0,.126-.072l.024-.016a1.066,1.066,0,0,0,.128-.114l.012-.012,11.084-12.258.009-.011-.018-.015a.878.878,0,0,0,.115-.164.919.919,0,0,0-.073-.96Zm-2.552,1.463-1.886,2.614-1.885-2.614Zm-3.689,3.27h-3.769l1.884-2.616Zm-3.687-3.27-1.886,2.614-1.885-2.614Zm-5.574.654,1.885,2.616h-3.77Zm-1.608,4.463h4.612l2.311,7.659Zm8.993,8.125-2.455-8.125h4.893Zm2.064-.455,2.3-7.67h4.633Zm3.419-9.517,1.885-2.616,1.884,2.616Z"/></g></svg>